<svg xmlns="http://www.w3.org/2000/svg" viewBox="0 0 98.462 20.793" height="78.59" width="372.141"><g fill="#060034" font-weight="400"><path d="M1.666 12.733c0 .415.374.768.789.768a.7.7 0 0 0 .353-.104c.145-.083.311-.125.457-.02.311.207.602.435.892.664.104.104.125.249.063.373-.872 1.558-1.952 2.617-3.156 3.945-.166.167-.27.353-.27.603 0 .415.373.789.789.789.976 0 3.031-2.99 3.779-4.278.124-.207.311-.249.477-.083.582.582 1.474 1.62 1.993 1.62.374 0 .769-.374.769-.748 0-.56-1.495-1.827-2.16-2.387a.288.288 0 0 1-.083-.353c.685-1.578 1.474-3.987 1.474-5.606 0-.436-.373-.665-.768-.665-.374 0-.643.145-.726.52-.104.435-.146.913-.229 1.37a20.51 20.51 0 0 1-.955 3.342c-.083.229-.27.27-.478.125l-.872-.623a.327.327 0 0 1-.103-.353c.56-1.557.934-3.177 1.183-4.796a.298.298 0 0 1 .312-.27h2.159c.54 0 1.017-.25 1.017-.83 0-.437-.415-.769-.83-.769a.97.97 0 0 0-.353.062.39.39 0 0 1-.166.042H5.507c-.208 0-.332-.145-.311-.353.145-1.038.27-2.097.27-3.156 0-.457-.333-.768-.79-.768-.456 0-.726.249-.789.685-.166 1.1-.145 2.222-.29 3.322a.298.298 0 0 1-.312.27h-1.62c-.414 0-.684.332-.684.727 0 .415.27.747.706.747h1.266c.229 0 .353.145.312.374-.353 1.848-.914 3.633-1.537 5.42v.061l-.062.27zm7.288 6.125c0 .498.394.83.872.83.29 0 .56-.124.685-.353.083-.124.187-.228.353-.228h7.184c.498 0 .83-.332.83-.83 0-.499-.353-.997-.892-.997a.93.93 0 0 0-.52.187.436.436 0 0 1-.228.083H14.83c-.187 0-.312-.125-.312-.312v-3.343c0-.186.125-.311.312-.311h.83c.166 0 .29.104.374.228.124.25.394.395.685.395.457 0 .83-.332.83-.79v-4.92c0-1.703-1.453-1.578-2.699-1.557-.186 0-.311-.125-.311-.312V3.701c0-.187.125-.312.311-.312h2.866c.436 0 .706-.373.706-.789 0-.394-.291-.768-.706-.768h-7.122c-.997 0-1.62.644-1.62 1.64V18.9zM10.988 6.94c-.186 0-.311-.125-.311-.312V3.555c0-.062.042-.166.125-.166h1.847c.187 0 .312.125.312.312v2.927c0 .187-.125.312-.312.312zm0 5.19c-.186 0-.311-.124-.311-.31V8.724c0-.186.125-.311.311-.311h4.797c.083 0 .145.125.145.208v3.197c0 .187-.125.312-.311.312zm0 5.44c-.186 0-.311-.124-.311-.311v-3.343c0-.187.125-.311.311-.311h1.661c.187 0 .312.124.312.311v3.343c0 .187-.125.311-.312.311zM34.905 18.733c0 .499.395.83.872.83.478 0 .852-.352.852-.83V1.915c0-.477-.374-.83-.852-.83-.477 0-.872.332-.872.83zM23.465 6.068c0 5.315-.914 7.827-3.24 12.52a1.148 1.148 0 0 0-.145.519c0 .477.436.893.914.893.644 0 1.1-1.018 1.35-1.495 2.034-3.966 2.844-7.475 2.844-11.939v-4.63c0-.498-.374-.81-.851-.81-.478 0-.872.312-.872.81zm5.502 10.485c0 .498.415.83.893.83.477 0 .872-.332.872-.83V2.87c0-.477-.415-.81-.872-.81-.478 0-.893.312-.893.81zM59.924 7.853c0 .457.352.79.81.79.456 0 .809-.333.809-.79V5.777c0-.062.02-.125.042-.166.02-.042.083-.062.145-.062h5.15c.186 0 .31.124.31.311v4.194c0 .457.374.768.81.768.436 0 .81-.311.81-.768V5.86c0-.187.125-.311.312-.311h5.419c.083 0 .104.083.104.145v2.16c0 .456.353.788.81.788.456 0 .81-.332.81-.789V5.57c0-.955-.603-1.412-1.517-1.412h-5.626c-.187 0-.312-.124-.312-.311v-.581c0-.187.125-.312.312-.312h5.045c.415 0 .685-.353.685-.747 0-.395-.27-.727-.685-.727H62.021c-.395 0-.644.332-.644.706 0 .394.29.768.706.768h4.796c.187 0 .312.125.312.312v.581c0 .187-.125.311-.312.311h-5.46c-.873 0-1.496.499-1.496 1.412zm3.03-1.308c-.352 0-.58.29-.58.644 0 .374.249.706.643.706h2.845c.374 0 .623-.312.623-.665 0-.353-.25-.664-.623-.664h-2.907zm7.143.063c-.332 0-.56.311-.56.643s.228.644.56.644h3.198c.332 0 .56-.312.56-.623s-.228-.623-.56-.623h-3.198zM62.955 8.85c-.353 0-.581.29-.581.644 0 .373.249.706.643.706h2.845c.374 0 .623-.312.623-.665 0-.353-.25-.664-.623-.664h-2.907zm7.163.041c-.353 0-.602.291-.602.623 0 .374.27.706.665.706h3.03c.375 0 .624-.311.624-.664 0-.353-.25-.665-.623-.665zm-8.471 9.49c0 .394.27.767.685.767h10.029c.145 0 .249.104.332.229.145.228.394.353.685.353.457 0 .851-.332.851-.81v-5.834c0-.955-.519-1.558-1.495-1.558H62.581c-.394 0-.664.291-.664.686 0 .394.29.726.706.726h9.758c.063 0 .125.042.146.083a.39.39 0 0 1 .041.166v.976c0 .187-.124.312-.311.312H63.1c-.415 0-.664.311-.664.706 0 .415.29.789.727.789h9.094c.187 0 .311.124.311.311v1.1c0 .187-.124.312-.311.312H62.249c-.395 0-.623.311-.623.685zM93.018 19.003c0 .478.373.83.85.83l.042.021c.478 0 .852-.353.852-.83v-8.638c0-.186.124-.311.311-.311h1.723c.52 0 .873-.353.873-.872 0-.478-.374-.934-.873-.934-.186 0-.353.083-.498.186a.4.4 0 0 1-.207.063h-1.039c-.187 0-.311-.125-.311-.312V3.535c0-.187.124-.312.311-.312.166 0 .333.021.499.021.56 0 1.162-.104 1.162-.789 0-.436-.311-.768-.747-.768h-8.222a.744.744 0 0 0-.748.747c0 .457.312.79.768.79h4.942c.187 0 .312.124.312.31v4.672c0 .187-.125.312-.312.312h-1.93c-.188 0-.312-.125-.312-.312V4.801c0-.498-.395-.81-.872-.81-.478 0-.83.333-.83.81v3.405c0 .187-.125.312-.312.312h-1.703c-.436 0-.706.353-.706.768 0 .415.29.789.727.789h1.557c.208 0 .332.125.312.332-.291 3.198-1.309 5.44-3.323 7.994-.124.166-.228.353-.228.581 0 .457.415.893.872.893.52 0 .997-.643 1.287-1.017 1.931-2.554 2.845-5.357 3.136-8.513.02-.166.145-.29.311-.29h2.014c.187 0 .312.124.312.31zm-12.583-2.658c0 .478.374.831.83.831l.063-.062c.27 0 .519-.125.664-.333.083-.124.187-.228.333-.228h1.474c.145 0 .249.104.332.228.125.208.353.312.602.312.457 0 .83-.332.83-.79v-6.81c0-.871-.54-1.474-1.432-1.474h-1.474c-.27 0-.395-.166-.312-.415.457-1.308.769-2.658 1.039-4.028a.291.291 0 0 1 .29-.25h1.827c.436 0 .748-.331.748-.767s-.312-.769-.748-.769h-5.564c-.436 0-.706.333-.706.748 0 .436.29.789.747.789h1.433c.228 0 .353.145.311.374-.415 2.159-1.08 4.132-2.159 6.063-.25.456-1.287 1.972-1.287 2.367 0 .394.353.83.768.83.311 0 .602-.29.851-.644.374-.54.54-.519.54.146zm1.91-1.225c-.187 0-.311-.124-.311-.311V9.784c0-.062.02-.124.041-.166.021-.041.083-.062.146-.062h1.598c.083 0 .125.083.125.145v5.108c0 .187-.125.311-.311.311z" style="line-height:1.25;-inkscape-font-specification:UzumasaHonmaruGothic-Anime" font-family="UzumasaHonmaruGothic-Anime" letter-spacing="-.916" word-spacing="0"/><path d="M43.2 4.467a.639.639 0 0 0-.317.688l.326 1.692-1.743-1.001a.639.639 0 0 0-.667.008.639.639 0 0 0 .03 1.098l1.74 1.001-1.633.567a.639.639 0 0 0-.116.051.639.639 0 0 0 .535 1.156l2.681-.93.686.395v.775h-1.338a.639.639 0 0 0-.307.074.639.639 0 0 0 .307 1.204h1.339v.774l-.694.4-2.678-.923a.639.639 0 0 0-.553.058.639.639 0 0 0 .136 1.15l1.628.562-1.74 1.005a.639.639 0 1 0 .638 1.107l1.74-1.005-.326 1.69a.639.639 0 1 0 1.254.243l.54-2.78.693-.4.67.386-.669 1.158a.64.64 0 1 0 1.107.64l.669-1.159.672.388-.001.79-2.147 1.858a.639.639 0 1 0 .836.966l1.308-1.132-.004 2.008a.639.639 0 1 0 1.278.004l.004-2.01 1.302 1.127a.64.64 0 1 0 .837-.966l-2.136-1.848v-.794l.672-.388.667 1.155a.64.64 0 0 0 1.107-.64l-.667-1.155.672-.387.688.396.533 2.773a.64.64 0 1 0 1.255-.24l-.325-1.692 1.743 1.002a.639.639 0 1 0 .636-1.108l-1.74-1.001 1.633-.566a.639.639 0 1 0-.418-1.207l-2.682.93-.686-.395v-.775h1.339a.64.64 0 1 0 0-1.28l-1.338.002v-.774l.693-.4 2.678.922a.639.639 0 1 0 .417-1.207l-1.629-.562 1.742-1.005a.639.639 0 1 0-.639-1.107L53.697 6.84l.328-1.691a.639.639 0 0 0-.946-.684.639.639 0 0 0-.31.44l-.539 2.781-.693.4-.67-.387.669-1.158a.639.639 0 0 0-.85-.891.639.639 0 0 0-.257.252l-.67 1.159-.67-.388V5.88l2.146-1.857a.639.639 0 0 0-.75-1.032.639.639 0 0 0-.086.066l-1.307 1.131.004-2.007a.639.639 0 0 0-.953-.566.639.639 0 0 0-.324.564l-.004 2.009-1.303-1.127a.639.639 0 0 0-.772-.059.639.639 0 0 0-.065 1.026l2.136 1.848-.002.795-.67.388-.668-1.157a.639.639 0 0 0-.886-.235.639.639 0 0 0-.222.874l.668 1.157-.67.387-.69-.397-.533-2.773a.639.639 0 0 0-.939-.448zM46 9.192l.67-.388.672 1.163H46zm1.778-1.027l.671-.388.672.388-.671 1.163zM46 11.245l1.342-.001-.672 1.163-.67-.387zm4.227-2.44l.671.387v.774h-1.343zm-1.779 3.078l.672 1.163-.671.387-.672-.387zm1.108-.64h1.342v.776l-.67.388z" style="line-height:normal;font-variant-ligatures:normal;font-variant-position:normal;font-variant-caps:normal;font-variant-numeric:normal;font-variant-alternates:normal;font-feature-settings:normal;text-indent:0;text-align:start;text-decoration-line:none;text-decoration-style:solid;text-decoration-color:#000;text-transform:none;text-orientation:mixed;white-space:normal;shape-padding:0;isolation:auto;mix-blend-mode:normal;solid-color:#000;solid-opacity:1" color="#000" font-family="sans-serif" overflow="visible" fill-rule="evenodd"/></g></svg>