<?xml version="1.0" encoding="UTF-8" standalone="no"?>
<!-- Created with Inkscape (http://www.inkscape.org/) -->

<svg
   xmlns:dc="http://purl.org/dc/elements/1.1/"
   xmlns:cc="http://creativecommons.org/ns#"
   xmlns:rdf="http://www.w3.org/1999/02/22-rdf-syntax-ns#"
   xmlns:svg="http://www.w3.org/2000/svg"
   xmlns="http://www.w3.org/2000/svg"
   xmlns:sodipodi="http://sodipodi.sourceforge.net/DTD/sodipodi-0.dtd"
   xmlns:inkscape="http://www.inkscape.org/namespaces/inkscape"
   width="372.14081"
   height="78.589569"
   viewBox="0 0 98.462253 20.793491"
   version="1.1"
   id="svg8"
   inkscape:version="0.92.3 (2405546, 2018-03-11)"
   sodipodi:docname="header-banner.svg">
  <defs
     id="defs2" />
  <sodipodi:namedview
     id="base"
     pagecolor="#ffffff"
     bordercolor="#666666"
     borderopacity="1.0"
     inkscape:pageopacity="0.0"
     inkscape:pageshadow="2"
     inkscape:zoom="1.4"
     inkscape:cx="189.81331"
     inkscape:cy="149.6093"
     inkscape:document-units="mm"
     inkscape:current-layer="layer1"
     showgrid="false"
     inkscape:snap-nodes="false"
     inkscape:snap-object-midpoints="true"
     inkscape:snap-center="true"
     fit-margin-top="3"
     units="px"
     fit-margin-left="3"
     fit-margin-bottom="3"
     fit-margin-right="3"
     inkscape:window-width="1920"
     inkscape:window-height="965"
     inkscape:window-x="-8"
     inkscape:window-y="-8"
     inkscape:window-maximized="1" />
  <metadata
     id="metadata5">
    <rdf:RDF>
      <cc:Work
         rdf:about="">
        <dc:format>image/svg+xml</dc:format>
        <dc:type
           rdf:resource="http://purl.org/dc/dcmitype/StillImage" />
        <dc:title></dc:title>
      </cc:Work>
    </rdf:RDF>
  </metadata>
  <g
     inkscape:label="レイヤー 1"
     inkscape:groupmode="layer"
     id="layer1"
     transform="translate(-50.8898,-138.74622)">
    <g
       style="fill:#060034;fill-opacity:1"
       id="g992"
       transform="translate(-1.148071,-10.397217)"
       inkscape:export-filename="C:\Users\tamai\OneDrive\デスクトップ\j-sb.png"
       inkscape:export-xdpi="462.77277"
       inkscape:export-ydpi="462.77277">
      <path
         inkscape:connector-curvature="0"
         id="path982"
         style="font-style:normal;font-variant:normal;font-weight:normal;font-stretch:normal;font-size:medium;line-height:1.25;font-family:UzumasaHonmaruGothic-Anime;-inkscape-font-specification:UzumasaHonmaruGothic-Anime;letter-spacing:-0.91591805px;word-spacing:0px;fill:#060034;fill-opacity:1;stroke:none;stroke-width:0.26458332"
         d="m 53.703672,161.87609 c 0,0.41526 0.373736,0.76823 0.788998,0.76823 0.124579,0 0.249158,-0.0415 0.352973,-0.10381 0.145342,-0.0831 0.311447,-0.12458 0.456789,-0.0208 0.311447,0.20764 0.602131,0.43603 0.892814,0.66442 0.103816,0.10382 0.124579,0.24916 0.06229,0.37374 -0.872051,1.55723 -1.951734,2.61615 -3.155995,3.94499 -0.166105,0.16611 -0.26992,0.35298 -0.26992,0.60213 0,0.41527 0.373736,0.789 0.788998,0.789 0.975867,0 3.031416,-2.98989 3.778888,-4.2772 0.124579,-0.20763 0.311447,-0.24916 0.477552,-0.0831 0.581368,0.58136 1.474182,1.61952 1.99326,1.61952 0.373736,0 0.768236,-0.37374 0.768236,-0.74747 0,-0.56061 -1.494945,-1.82716 -2.159365,-2.38776 -0.103816,-0.0831 -0.145342,-0.2284 -0.08305,-0.35297 0.685183,-1.578 1.474182,-3.98652 1.474182,-5.60605 0,-0.43602 -0.373736,-0.66442 -0.768235,-0.66442 -0.373737,0 -0.643657,0.14534 -0.72671,0.51908 -0.103815,0.43603 -0.145342,0.91358 -0.228394,1.37037 -0.228394,1.14197 -0.539841,2.26318 -0.955104,3.34286 -0.08305,0.22839 -0.26992,0.26992 -0.477552,0.12458 l -0.872051,-0.6229 c -0.103815,-0.083 -0.145342,-0.22839 -0.103815,-0.35297 0.560604,-1.55723 0.93434,-3.17676 1.183498,-4.79628 0.02076,-0.1661 0.145342,-0.26992 0.311446,-0.26992 h 2.159365 c 0.539841,0 1.017393,-0.24916 1.017393,-0.83052 0,-0.43603 -0.415262,-0.76824 -0.830525,-0.76824 -0.124578,0 -0.249157,0.0208 -0.352973,0.0623 -0.04153,0.0208 -0.103815,0.0415 -0.166105,0.0415 h -1.515708 c -0.207631,0 -0.33221,-0.14535 -0.311447,-0.35298 0.145342,-1.03815 0.269921,-2.09707 0.269921,-3.15599 0,-0.45679 -0.33221,-0.76824 -0.788999,-0.76824 -0.456788,0 -0.726709,0.24916 -0.788998,0.68518 -0.166105,1.10045 -0.145342,2.22166 -0.290684,3.3221 -0.02076,0.16611 -0.145342,0.26993 -0.311447,0.26993 h -1.619523 c -0.415263,0 -0.685183,0.33221 -0.685183,0.7267 0,0.41527 0.26992,0.74748 0.705946,0.74748 h 1.26655 c 0.228395,0 0.352973,0.14534 0.311447,0.37373 -0.352973,1.84792 -0.913577,3.63355 -1.536471,5.41918 v 0.0623 l -0.06229,0.26992 z m 7.287856,6.12512 c 0,0.49831 0.394499,0.83052 0.872051,0.83052 0.290684,0 0.560604,-0.12458 0.685183,-0.35297 0.08305,-0.12458 0.186868,-0.22839 0.352973,-0.22839 h 7.18404 c 0.498315,0 0.830525,-0.33221 0.830525,-0.83053 0,-0.49831 -0.352973,-0.99663 -0.892814,-0.99663 -0.186868,0 -0.373736,0.0831 -0.519078,0.18687 -0.06229,0.0415 -0.145342,0.0831 -0.228394,0.0831 h -2.408523 c -0.186868,0 -0.311446,-0.12458 -0.311446,-0.31145 v -3.34286 c 0,-0.18687 0.124578,-0.31144 0.311446,-0.31144 h 0.830525 c 0.166105,0 0.290684,0.10381 0.373736,0.22839 0.124579,0.24916 0.3945,0.3945 0.685184,0.3945 0.456788,0 0.830524,-0.33221 0.830524,-0.789 v -4.92086 c 0,-1.70258 -1.453418,-1.578 -2.699206,-1.55723 -0.186868,0 -0.311446,-0.12458 -0.311446,-0.31145 v -2.9276 c 0,-0.18687 0.124578,-0.31145 0.311446,-0.31145 h 2.865311 c 0.436026,0 0.705947,-0.37373 0.705947,-0.789 0,-0.3945 -0.290684,-0.76823 -0.705947,-0.76823 h -7.121751 c -0.99663,0 -1.619523,0.64365 -1.619523,1.64028 v 15.427 z m 2.034786,-11.91803 c -0.186868,0 -0.311447,-0.12458 -0.311447,-0.31145 v -3.07294 c 0,-0.0623 0.04153,-0.16611 0.124579,-0.16611 h 1.847917 c 0.186869,0 0.311447,0.12458 0.311447,0.31145 v 2.9276 c 0,0.18687 -0.124578,0.31145 -0.311447,0.31145 z m 0,5.19078 c -0.186868,0 -0.311447,-0.12458 -0.311447,-0.31145 v -3.09371 c 0,-0.18686 0.124579,-0.31144 0.311447,-0.31144 h 4.796281 c 0.08305,0 0.145342,0.12458 0.145342,0.20763 v 3.19752 c 0,0.18687 -0.124579,0.31145 -0.311447,0.31145 z m 0,5.43993 c -0.186868,0 -0.311447,-0.12457 -0.311447,-0.31144 v -3.34286 c 0,-0.18687 0.124579,-0.31145 0.311447,-0.31145 h 1.661049 c 0.186869,0 0.311447,0.12458 0.311447,0.31145 v 3.34286 c 0,0.18687 -0.124578,0.31144 -0.311447,0.31144 z" />
      <path
         inkscape:connector-curvature="0"
         id="path984"
         style="font-style:normal;font-variant:normal;font-weight:normal;font-stretch:normal;font-size:medium;line-height:1.25;font-family:UzumasaHonmaruGothic-Anime;-inkscape-font-specification:UzumasaHonmaruGothic-Anime;letter-spacing:-0.91591805px;word-spacing:0px;fill:#060034;fill-opacity:1;stroke:none;stroke-width:0.26458332"
         d="m 86.943094,167.87663 c 0,0.49831 0.394499,0.83052 0.872051,0.83052 0.477552,0 0.851288,-0.35297 0.851288,-0.83052 V 151.0585 c 0,-0.47755 -0.373736,-0.83052 -0.851288,-0.83052 -0.477552,0 -0.872051,0.33221 -0.872051,0.83052 z m -11.440481,-12.6655 c 0,5.31535 -0.913577,7.82769 -3.239047,12.52016 -0.08305,0.1661 -0.145342,0.33221 -0.145342,0.51908 0,0.47755 0.436026,0.89281 0.913578,0.89281 0.643657,0 1.100445,-1.01739 1.349603,-1.49494 2.034786,-3.96576 2.844548,-7.47473 2.844548,-11.9388 v -4.63018 c 0,-0.49831 -0.373737,-0.80976 -0.851288,-0.80976 -0.477552,0 -0.872052,0.31145 -0.872052,0.80976 z m 5.502228,10.48537 c 0,0.49832 0.415262,0.83053 0.892814,0.83053 0.477552,0 0.872051,-0.33221 0.872051,-0.83053 v -13.6829 c 0,-0.47755 -0.415262,-0.80976 -0.872051,-0.80976 -0.477552,0 -0.892814,0.31145 -0.892814,0.80976 z" />
      <path
         inkscape:connector-curvature="0"
         id="path986"
         style="font-style:normal;font-variant:normal;font-weight:normal;font-stretch:normal;font-size:medium;line-height:1.25;font-family:UzumasaHonmaruGothic-Anime;-inkscape-font-specification:UzumasaHonmaruGothic-Anime;letter-spacing:-0.91591805px;word-spacing:0px;fill:#060034;fill-opacity:1;stroke:none;stroke-width:0.26458332"
         d="m 111.9614,156.99675 c 0,0.45679 0.35297,0.789 0.80976,0.789 0.45679,0 0.80976,-0.33221 0.80976,-0.789 v -2.07631 c 0,-0.0623 0.0208,-0.12458 0.0415,-0.1661 0.0208,-0.0415 0.0831,-0.0623 0.14534,-0.0623 h 5.14926 c 0.18686,0 0.31144,0.12458 0.31144,0.31144 v 4.19415 c 0,0.45679 0.37374,0.76824 0.80976,0.76824 0.43603,0 0.80977,-0.31145 0.80977,-0.76824 v -4.19415 c 0,-0.18686 0.12458,-0.31144 0.31144,-0.31144 h 5.41918 c 0.083,0 0.10381,0.083 0.10381,0.14534 v 2.15936 c 0,0.45679 0.35298,0.789 0.80977,0.789 0.45678,0 0.80976,-0.33221 0.80976,-0.789 v -2.28394 c 0,-0.9551 -0.60213,-1.41189 -1.51571,-1.41189 h -5.62681 c -0.18686,0 -0.31144,-0.12458 -0.31144,-0.31145 v -0.58137 c 0,-0.18686 0.12458,-0.31144 0.31144,-0.31144 h 5.04544 c 0.41526,0 0.68518,-0.35298 0.68518,-0.74748 0,-0.3945 -0.26992,-0.72671 -0.68518,-0.72671 h -12.14643 c -0.3945,0 -0.64366,0.33221 -0.64366,0.70595 0,0.3945 0.29069,0.76824 0.70595,0.76824 h 4.79628 c 0.18687,0 0.31145,0.12458 0.31145,0.31144 v 0.58137 c 0,0.18687 -0.12458,0.31145 -0.31145,0.31145 h -5.4607 c -0.87205,0 -1.49494,0.49831 -1.49494,1.41189 z m 3.03141,-1.30807 c -0.35297,0 -0.58137,0.29068 -0.58137,0.64365 0,0.37374 0.24916,0.70595 0.64366,0.70595 h 2.84455 c 0.37374,0 0.62289,-0.31145 0.62289,-0.66442 0,-0.35297 -0.24915,-0.66442 -0.62289,-0.66442 h -2.90684 z m 7.14252,0.0623 c -0.33221,0 -0.56061,0.31144 -0.56061,0.64365 0,0.33221 0.2284,0.64366 0.56061,0.64366 h 3.19752 c 0.33221,0 0.5606,-0.31145 0.5606,-0.62289 0,-0.31145 -0.22839,-0.6229 -0.5606,-0.6229 h -3.19752 z m -7.14252,2.24241 c -0.35297,0 -0.58137,0.29069 -0.58137,0.64366 0,0.37374 0.24916,0.70595 0.64366,0.70595 h 2.84455 c 0.37374,0 0.62289,-0.31145 0.62289,-0.66442 0,-0.35298 -0.24915,-0.66442 -0.62289,-0.66442 h -2.90684 z m 7.16328,0.0415 c -0.35297,0 -0.60213,0.29068 -0.60213,0.62289 0,0.37374 0.26992,0.70595 0.66442,0.70595 h 3.03141 c 0.37374,0 0.6229,-0.31145 0.6229,-0.66442 0,-0.35297 -0.24916,-0.66442 -0.6229,-0.66442 z m -8.47136,9.48875 c 0,0.3945 0.26993,0.76823 0.68519,0.76823 h 10.02859 c 0.14534,0 0.24915,0.10382 0.33221,0.2284 0.14534,0.22839 0.3945,0.35297 0.68518,0.35297 0.45679,0 0.85129,-0.33221 0.85129,-0.80976 v -5.83444 c 0,-0.9551 -0.51908,-1.55723 -1.49495,-1.55723 h -10.15316 c -0.3945,0 -0.66442,0.29068 -0.66442,0.68518 0,0.3945 0.29068,0.72671 0.70594,0.72671 h 9.75867 c 0.0623,0 0.12458,0.0415 0.14534,0.083 0.0208,0.0415 0.0415,0.10382 0.0415,0.16611 v 0.97586 c 0,0.18687 -0.12458,0.31145 -0.31145,0.31145 h -9.15653 c -0.41526,0 -0.66442,0.31145 -0.66442,0.70595 0,0.41526 0.29068,0.78899 0.72671,0.78899 h 9.09424 c 0.18687,0 0.31145,0.12458 0.31145,0.31145 v 1.10045 c 0,0.18686 -0.12458,0.31144 -0.31145,0.31144 h -10.00782 c -0.3945,0 -0.6229,0.31145 -0.6229,0.68519 z" />
      <path
         inkscape:connector-curvature="0"
         id="path988"
         style="font-style:normal;font-variant:normal;font-weight:normal;font-stretch:normal;font-size:medium;line-height:1.25;font-family:UzumasaHonmaruGothic-Anime;-inkscape-font-specification:UzumasaHonmaruGothic-Anime;letter-spacing:-0.91591805px;word-spacing:0px;fill:#060034;fill-opacity:1;stroke:none;stroke-width:0.26458332"
         d="m 145.05546,168.14655 c 0,0.47755 0.37373,0.83053 0.85129,0.83053 l 0.0415,0.0208 c 0.47755,0 0.85129,-0.35297 0.85129,-0.83053 v -8.63746 c 0,-0.18686 0.12458,-0.31144 0.31145,-0.31144 h 1.72334 c 0.51907,0 0.87205,-0.35298 0.87205,-0.87205 0,-0.47756 -0.37374,-0.93434 -0.87205,-0.93434 -0.18687,0 -0.35298,0.0831 -0.49832,0.18686 -0.0623,0.0415 -0.14534,0.0623 -0.20763,0.0623 h -1.03816 c -0.18686,0 -0.31144,-0.12458 -0.31144,-0.31144 v -4.67171 c 0,-0.18686 0.12458,-0.31144 0.31144,-0.31144 0.16611,0 0.33221,0.0208 0.49832,0.0208 0.5606,0 1.16273,-0.10382 1.16273,-0.789 0,-0.43602 -0.31144,-0.76823 -0.74747,-0.76823 h -8.2222 c -0.41526,0 -0.74747,0.33221 -0.74747,0.74747 0,0.45679 0.31145,0.789 0.76824,0.789 h 4.94162 c 0.18687,0 0.31145,0.12458 0.31145,0.31144 v 4.67171 c 0,0.18686 -0.12458,0.31144 -0.31145,0.31144 h -1.93097 c -0.18687,0 -0.31145,-0.12458 -0.31145,-0.31144 v -3.40525 c 0,-0.49831 -0.3945,-0.80976 -0.87205,-0.80976 -0.47755,0 -0.83052,0.33221 -0.83052,0.80976 v 3.40516 c 0,0.18686 -0.12458,0.31144 -0.31145,0.31144 h -1.70258 c -0.43601,0 -0.70593,0.35298 -0.70593,0.76824 0,0.41526 0.29068,0.789 0.7267,0.789 h 1.55723 c 0.20763,0 0.33221,0.12458 0.31145,0.33221 -0.29068,3.19752 -1.30808,5.43994 -3.32209,7.9938 -0.12458,0.1661 -0.2284,0.35297 -0.2284,0.58137 0,0.45679 0.41527,0.89281 0.87206,0.89281 0.51906,0 0.99662,-0.64366 1.2873,-1.01739 1.93097,-2.55387 2.84455,-5.35689 3.13523,-8.51288 0.0208,-0.16611 0.14534,-0.29069 0.31145,-0.29069 h 2.01402 c 0.18687,0 0.31145,0.12458 0.31145,0.31145 z m -12.58245,-2.65768 c 0,0.47755 0.37374,0.83053 0.83053,0.83053 l 0.0623,-0.0623 c 0.26992,0 0.51907,-0.12458 0.66442,-0.33221 0.0831,-0.12458 0.18686,-0.2284 0.33221,-0.2284 h 1.47418 c 0.14534,0 0.24916,0.10382 0.33221,0.2284 0.12458,0.20763 0.35297,0.31144 0.60213,0.31144 0.45679,0 0.83053,-0.33221 0.83053,-0.789 v -6.8103 c 0,-0.87205 -0.53984,-1.47418 -1.43266,-1.47418 h -1.47418 c -0.26992,0 -0.3945,-0.16611 -0.31145,-0.41526 0.45679,-1.30808 0.76823,-2.65768 1.03816,-4.02805 0.0208,-0.14534 0.14534,-0.24916 0.29068,-0.24916 h 1.82716 c 0.43602,0 0.74747,-0.33221 0.74747,-0.76823 0,-0.43603 -0.31145,-0.76824 -0.74747,-0.76824 h -5.56452 c -0.43603,0 -0.70595,0.33221 -0.70595,0.74747 0,0.43603 0.29068,0.789 0.74747,0.789 h 1.43266 c 0.22839,0 0.35297,0.14534 0.31145,0.37374 -0.41527,2.15936 -1.07969,4.13186 -2.15937,6.06283 -0.24916,0.45679 -1.28731,1.9725 -1.28731,2.367 0,0.3945 0.35297,0.83052 0.76823,0.83052 0.31145,0 0.60213,-0.29068 0.85129,-0.64366 0.37374,-0.53984 0.53984,-0.51907 0.53984,0.14535 z m 1.91021,-1.22502 c -0.18687,0 -0.31145,-0.12458 -0.31145,-0.31145 v -5.02468 c 0,-0.0623 0.0208,-0.12457 0.0415,-0.1661 0.0208,-0.0415 0.083,-0.0623 0.14534,-0.0623 h 1.59876 c 0.083,0 0.12458,0.0831 0.12458,0.14534 v 5.10773 c 0,0.18687 -0.12458,0.31145 -0.31144,0.31145 z" />
      <path
         inkscape:connector-curvature="0"
         style="color:#000000;font-style:normal;font-variant:normal;font-weight:normal;font-stretch:normal;font-size:medium;line-height:normal;font-family:sans-serif;font-variant-ligatures:normal;font-variant-position:normal;font-variant-caps:normal;font-variant-numeric:normal;font-variant-alternates:normal;font-feature-settings:normal;text-indent:0;text-align:start;text-decoration:none;text-decoration-line:none;text-decoration-style:solid;text-decoration-color:#000000;letter-spacing:normal;word-spacing:normal;text-transform:none;writing-mode:lr-tb;direction:ltr;text-orientation:mixed;dominant-baseline:auto;baseline-shift:baseline;text-anchor:start;white-space:normal;shape-padding:0;clip-rule:nonzero;display:inline;overflow:visible;visibility:visible;opacity:1;isolation:auto;mix-blend-mode:normal;color-interpolation:sRGB;color-interpolation-filters:linearRGB;solid-color:#000000;solid-opacity:1;vector-effect:none;fill:#060034;fill-opacity:1;fill-rule:evenodd;stroke:none;stroke-width:1.8520838;stroke-linecap:round;stroke-linejoin:miter;stroke-miterlimit:4;stroke-dasharray:none;stroke-dashoffset:0;stroke-opacity:1;color-rendering:auto;image-rendering:auto;shape-rendering:auto;text-rendering:auto;enable-background:accumulate"
         d="m 95.23811,153.61021 a 0.63898814,0.63898814 0 0 0 -0.3168,0.68846 l 0.32521,1.69208 -1.74217,-1.00162 a 0.63898814,0.63898814 0 0 0 -0.66718,0.008 0.63898814,0.63898814 0 0 0 0.0301,1.09831 l 1.74039,1.0014 -1.63368,0.5661 a 0.63898814,0.63898814 0 0 0 -0.11638,0.0515 0.63898814,0.63898814 0 0 0 0.535,1.15553 l 2.68145,-0.92978 0.68632,0.39507 3e-5,0.77519 -1.33825,3.1e-4 a 0.63898827,0.63898827 0 0 0 -0.30757,0.0735 0.63898827,0.63898827 0 0 0 0.30774,1.20401 l 1.33807,-6.1e-4 1.8e-4,0.77471 -0.69381,0.40057 -2.678,-0.92324 a 0.63898814,0.63898814 0 0 0 -0.55321,0.058 0.63898814,0.63898814 0 0 0 0.13677,1.15036 l 1.62775,0.56169 -1.74088,1.0051 a 0.63898827,0.63898827 0 1 0 0.63875,1.10633 l 1.74087,-1.0051 -0.32742,1.69053 a 0.63898814,0.63898814 0 1 0 1.25412,0.24258 l 0.53967,-2.77972 0.69383,-0.40057 0.66998,0.38677 -0.66913,1.15784 a 0.63933253,0.63933253 0 1 0 1.10691,0.64009 l 0.66891,-1.15896 0.6718,0.38777 -8.8e-4,0.7903 -2.14638,1.85799 a 0.63898814,0.63898814 0 1 0 0.83608,0.96607 l 1.30739,-1.13194 -0.004,2.00809 a 0.63898814,0.63898814 0 1 0 1.27792,0.004 l 0.004,-2.01017 1.30243,1.12703 a 0.63910767,0.63910767 0 1 0 0.83635,-0.96661 l -2.1359,-1.84759 8.8e-4,-0.79462 0.67127,-0.38757 0.66709,1.15544 a 0.63946554,0.63946554 0 0 0 1.10759,-0.63946 l -0.66711,-1.15545 0.67128,-0.38754 0.68825,0.39556 0.53278,2.77398 a 0.63910751,0.63910751 0 1 0 1.25528,-0.24101 l -0.32482,-1.69145 1.74282,1.00206 a 0.63898814,0.63898814 0 1 0 0.63619,-1.10794 l -1.7407,-1.00122 1.63399,-0.56627 a 0.63898814,0.63898814 0 1 0 -0.4186,-1.20711 l -2.68176,0.92996 -0.68595,-0.39442 2.5e-4,-0.7754 1.33845,1e-5 a 0.63941666,0.63941666 0 1 0 -5.6e-4,-1.27883 l -1.33761,7.5e-4 5e-5,-0.77362 0.6935,-0.40039 2.67747,0.92231 a 0.63898814,0.63898814 0 1 0 0.41696,-1.20741 l -1.62835,-0.56135 1.74148,-1.00544 a 0.63898814,0.63898814 0 1 0 -0.63874,-1.10633 l -1.74148,1.00545 0.32804,-1.69086 a 0.63898814,0.63898814 0 0 0 -0.94546,-0.68348 0.63898814,0.63898814 0 0 0 -0.30921,0.43994 l -0.53944,2.78083 -0.69352,0.40039 -0.67084,-0.38753 0.66958,-1.1585 a 0.63898827,0.63898827 0 0 0 -0.85054,-0.89058 0.63898827,0.63898827 0 0 0 -0.25596,0.25191 l -0.66939,1.15884 -0.67132,-0.38765 8.7e-4,-0.79206 2.14565,-1.85714 a 0.63898814,0.63898814 0 0 0 -0.7496,-1.03165 0.63898814,0.63898814 0 0 0 -0.0865,0.0656 l -1.30728,1.13146 0.004,-2.00762 a 0.63898814,0.63898814 0 0 0 -0.95246,-0.56582 0.63898814,0.63898814 0 0 0 -0.32461,0.56372 l -0.004,2.00925 -1.30292,-1.12719 a 0.63898814,0.63898814 0 0 0 -0.77152,-0.0585 0.63898814,0.63898814 0 0 0 -0.0646,1.0254 l 2.13576,1.84808 -0.002,0.79572 -0.67066,0.38721 -0.6678,-1.15667 a 0.63898827,0.63898827 0 0 0 -0.88598,-0.2353 0.63898827,0.63898827 0 0 0 -0.22161,0.87476 l 0.66781,1.15666 -0.67067,0.38722 -0.69024,-0.39688 -0.53212,-2.77354 a 0.63898814,0.63898814 0 0 0 -0.93865,-0.4478 z m 2.79946,4.72473 0.67098,-0.38739 0.67155,1.16314 -1.34243,2.3e-4 z m 1.77855,-1.02684 0.67096,-0.38739 0.67201,0.38808 -0.67142,1.16245 z m -1.77816,3.07974 1.34225,-5.3e-4 -0.67204,1.16281 -0.66999,-0.38675 z m 4.22683,-2.44035 0.6715,0.38796 -5e-5,0.77361 -1.34304,6e-4 z m -1.7787,3.07886 0.67155,1.16314 -0.67098,0.38739 -0.67181,-0.38777 z m 1.10759,-0.63946 1.34259,7e-5 -10e-5,0.77569 -0.67096,0.38739 z"
         id="path990"
         inkscape:export-xdpi="192.017"
         inkscape:export-ydpi="192.017" />
    </g>
  </g>
</svg>
