<svg xmlns="http://www.w3.org/2000/svg" viewBox="0 0 103.932 24.061" height="90.938" width="392.816"><g word-spacing="0" fill="#f9f9ff" stroke-width="1.346"><g aria-label="姫川雪質研究会" style="line-height:77.78209686px;-inkscape-font-specification:'UzumasaHonmaruGothic-Cinema, Normal';font-variant-ligatures:normal;font-variant-caps:normal;font-variant-numeric:normal;font-feature-settings:normal;text-align:start" font-weight="400" font-size="16.924" font-family="UzumasaHonmaruGothic-Cinema" letter-spacing="-.601" stroke-width="1.118"><path d="M8.104 3.167c0-.184.046-.245.214-.245h1.319c.092 0 .153.061.153.153v2.31c0 .091-.061.152-.153.152h-1.38c-.092 0-.153-.06-.153-.153zm0 7.433c0-.092.061-.153.153-.153h1.38c.092 0 .153.061.153.153v2.615c0 .092-.061.153-.153.153h-1.38c-.092 0-.153-.061-.153-.153zm3.649-3.977c.184 0 .23.092.23.276v2.309c0 .092-.062.153-.154.153H8.257c-.092 0-.153-.061-.153-.153V6.776c0-.092.061-.153.153-.153zm-4.907 7.724c0 .688.966.826 1.181.29.03-.076.092-.122.169-.122h5.366c.89 0 .736-1.346-.046-1.346a.727.727 0 0 0-.414.153.174.174 0 0 1-.123.046h-1.87c-.092 0-.153-.061-.153-.153V10.6c0-.092.06-.153.153-.153h.766c.077 0 .138.046.17.122.214.55 1.134.413 1.134-.26V6.684c0-.826-.537-1.147-1.135-1.147h-.935c-.092 0-.153-.06-.153-.153v-2.31c0-.09.06-.152.153-.152H13.3c.69 0 .69-1.147 0-1.147H8.042c-.628 0-1.196.367-1.196 1.208zm-.874-8.014c.077-.704-1.057-.72-1.103-.169-.123 1.193-.46 2.432-.905 3.58-.046.122-.138.152-.23.076a11.217 11.217 0 0 0-.782-.566.146.146 0 0 1-.046-.184c.46-1.284.72-2.523.905-3.655a.15.15 0 0 1 .153-.122H5.45c.46.045.905-.092.92-.612 0-.428-.521-.704-.874-.505-.03.015-.061.03-.092.03H4.18c-.108 0-.17-.076-.154-.183.108-.826.184-1.636.23-2.401.03-.704-1.119-.765-1.165-.061-.046.826-.092 1.667-.215 2.508a.15.15 0 0 1-.153.122H1.465c-.69 0-.675 1.086.015 1.086h1.027c.108 0 .169.077.154.184a22.814 22.814 0 0 1-1.135 4.084c-.23.596.43 1.024.828.718.061-.046.138-.06.215-.015.306.214.536.398.751.581a.146.146 0 0 1 .046.184c-.813 1.483-1.625 2.233-2.377 2.967-.26.245-.245.627-.046.826.46.49.905.015 1.242-.321.782-.81 1.457-1.652 2.024-2.723.062-.107.154-.122.246-.046.46.413.98.98 1.088 1.086.276.23.598.214.782.046.583-.49-.03-.979-.43-1.33l-.98-.888a.162.162 0 0 1-.031-.183c.552-1.3.935-2.63 1.088-4.114zM26.127 14.255c0 .81 1.273.81 1.273 0V1.867c0-.811-1.273-.811-1.273 0zm-4.385-1.606c0 .811 1.303.811 1.303 0V2.57c0-.795-1.303-.795-1.303 0zm-6.286 2.402c.69.458 1.042-.306 1.395-.964 1.549-2.952 2.147-5.72 2.1-9.146V1.88c.016-.794-1.272-.794-1.272 0v3.045c0 4.098-.797 6.332-2.392 9.222-.215.383-.077.734.169.903zM38.585 5.293c-.583 0-.552.948.046.948h2.3c.567 0 .567-.948 0-.948zm.015 1.682c-.613 0-.567.979.046.979h2.239c.613 0 .613-.979 0-.979zm-7.528-.765c0 .78 1.196.78 1.196 0V4.68c0-.122.03-.167.169-.167h3.848c.092 0 .153.06.153.153v3.166c0 .749 1.196.764 1.196 0V4.666c0-.092.062-.153.154-.153h3.986c.138 0 .169.045.169.168v1.53c0 .78 1.196.78 1.196 0V4.527c0-.75-.49-1.04-1.12-1.04h-4.231c-.092 0-.154-.061-.154-.153v-.581c0-.092.062-.153.154-.153h3.802c.675 0 .675-1.086 0-1.086h-8.97c-.659 0-.613 1.086.047 1.086h3.618c.092 0 .153.06.153.153v.58c0 .093-.06.154-.153.154h-4.109c-.567 0-1.104.29-1.104 1.04zm2.254.75c-.613 0-.567.979.046.979h2.1c.614 0 .614-.98 0-.98zm-.015-1.698c-.614 0-.568.979.046.979h2.1c.613 0 .613-.979 0-.979zm-.522 8.229c-.644 0-.598 1.07.046 1.07h7.467c.077 0 .138.046.169.107.23.505 1.15.367 1.15-.29V10.08c0-.826-.506-1.147-1.104-1.147h-7.498c-.674 0-.628 1.04.031 1.04h7.19c.139 0 .17.076.17.122v.857c0 .091-.062.153-.154.153h-6.838c-.675 0-.629 1.1.046 1.1h6.792c.092 0 .154.062.154.154v.963c0 .092-.062.153-.154.153zM53.511 14.102c1.564.322 2.607.704 3.71 1.102.338.076.63-.077.721-.337.261-.673-.475-.841-.98-.994a23.061 23.061 0 0 0-2.638-.658c-.521-.107-1.104-.29-1.227.321-.046.215.077.49.414.566zm-7.973.627c.046.689.752.536 1.212.46a18.274 18.274 0 0 0 3.05-.796c.507-.184 1.135-.352.92-.933a.533.533 0 0 0-.704-.29c-1.748.657-2.852.795-4.002.963-.353.061-.49.321-.476.596zm9.491-9.054c0 .704 1.135.704 1.135 0V4.513c0-.092.061-.153.153-.153h1.687c.613 0 .644-1.01.03-1.01h-4.293c-.107 0-.168-.061-.153-.168a1.88 1.88 0 0 0 .03-.306c0-.092.077-.184.185-.184 1.104-.06 2.223-.229 3.296-.565.705-.23.353-1.331-.353-1.102-1.165.398-2.1.551-3.204.658-.613.061-1.073.184-1.073.994 0 .857-.23 1.866-.767 2.661-.215.306-.138.612.107.78.568.398.905-.137 1.181-.672.153-.306.26-.643.353-.964a.147.147 0 0 1 .138-.107h1.395c.092 0 .153.061.153.153zm-5.964.03c.015.674 1.134.674 1.134 0V4.483c0-.092.062-.153.154-.153h.904c.63 0 .66-.994.031-.994h-3.266c-.107 0-.168-.061-.168-.168v-.352c0-.061.015-.107.122-.122a12.809 12.809 0 0 0 3.082-.582c.705-.23.368-1.315-.322-1.1-1.18.381-1.794.55-2.99.657-.521.046-1.058.26-1.058.994 0 .795-.015 2.386-1.242 3.778-.245.275-.199.627 0 .81.522.474.951-.046 1.288-.504.537-.75.813-1.56.951-2.28a.15.15 0 0 1 .153-.122h1.058c.092 0 .154.062.154.153zm-.015 1.606h5.887c.123 0 .2.108.2.169v.55c0 .092-.062.153-.154.153h-5.98c-.091 0-.153-.06-.153-.153v-.535c0-.061.077-.184.2-.184zm-.184 1.912c0-.091.06-.153.153-.153h5.98c.092 0 .153.062.153.153v.582c0 .091-.061.152-.153.152h-5.98c-.092 0-.153-.06-.153-.152zm0 1.79c0-.092.06-.153.153-.153h5.98c.092 0 .153.061.153.153v.642c0 .092-.061.153-.153.153h-5.98c-.092 0-.153-.061-.153-.153zm-1.181 1.545c0 .657.905.81 1.104.336.03-.076.092-.122.169-.122h6.071c.077 0 .138.046.169.122.215.49 1.134.337 1.134-.321V7.28c0-.642-.46-.918-1.073-.918h-6.5c-.507 0-1.074.26-1.074.918zM70.492 14.439c0 .81 1.257.81 1.257 0v-6.44c0-.091.062-.152.154-.152h1.349c.89 0 .813-1.316 0-1.33-.138 0-.276.076-.383.152a.285.285 0 0 1-.108.03h-.858c-.092 0-.154-.06-.154-.152V2.953c0-.092.062-.153.154-.153h.766c.721 0 .736-1.132 0-1.132h-6.071c-.736 0-.72 1.132.015 1.132h3.726c.092 0 .153.06.153.153v3.594c0 .092-.061.153-.153.153h-1.58c-.091 0-.153-.061-.153-.153.016-.444 0-1.01 0-2.57 0-.78-1.257-.826-1.257 0 0 1.59.015 2.142 0 2.585 0 .092-.061.153-.153.153h-1.334c-.72 0-.69 1.147.015 1.147h1.227c.092 0 .153.061.138.153-.169 1.912-.767 4.068-2.469 5.965a.637.637 0 0 0 .03.887c.568.52 1.013-.061 1.396-.55 1.625-2.065 2.162-4.36 2.346-6.348 0-.076.061-.137.153-.137h1.64c.093 0 .154.06.154.152zm-8.141-6.776c0-.153.03-.199.138-.199h1.119c.107 0 .153.046.153.169v3.777c0 .092-.061.153-.153.153h-1.104c-.092 0-.153-.06-.153-.153zm-1.181 4.803c0 .657.89.78 1.12.29a.189.189 0 0 1 .168-.107h1.211c.077 0 .138.046.169.107.23.46 1.088.322 1.088-.32V7.418c0-.765-.505-1.086-1.057-1.086h-1.196c-.138 0-.2-.077-.154-.2.353-.947.629-2.095.844-3.135a.15.15 0 0 1 .153-.122h1.41c.736 0 .736-1.132 0-1.132h-4.109c-.72 0-.69 1.132.031 1.132h1.15c.107 0 .169.077.153.184-.582 3.028-1.44 4.374-2.468 5.995a.59.59 0 0 0 .138.795c.414.322.736.046 1.042-.458.2-.337.307-.322.307.06zM75.452 4.895c.016.765 1.258.765 1.258 0v-.857c0-.229.03-.29.276-.29h4.783c.092 0 .154.061.154.153v1.53c0 1.789 1.748 1.835 2.238 1.85.154 0 .307.015.49.015.338 0 .706-.015 1.105-.076.414-.061.567-.55.383-.841-.138-.245-.23-.49-.23-.75v-.75c0-.52-.797-.52-.797 0v1.163c0 .092-.061.153-.153.153-.261.015-.552.015-.782 0-1.043-.03-1.12-.306-1.12-.704V3.916c0-.092.062-.153.154-.153h2.729c.26 0 .291.061.291.352v.734c0 .765 1.257.765 1.257 0V3.794c0-.826-.552-1.178-1.18-1.178h-4.14c-.092 0-.153-.061-.153-.153v-.856c0-.765-1.273-.765-1.273 0v.856c0 .092-.061.153-.153.153h-3.987c-.598 0-1.18.275-1.165 1.147zm.43 2.554c.153.658.782.444 1.242.306a5.555 5.555 0 0 0 3.296-2.799c.26-.505-.736-1.01-1.012-.49-.628 1.178-1.809 1.943-3.082 2.295-.383.107-.506.413-.444.688zm.812 1.224c-.766.015-.736 1.177.016 1.177h2.836c.138 0 .2.077.153.2-.781 2.003-2.238 2.966-4.17 3.731-.399.168-.49.52-.383.795.26.689.889.398 1.426.153 2.054-.948 3.71-2.4 4.446-4.787a.147.147 0 0 1 .138-.107h1.533c.2 0 .246.061.246.321v2.31c0 2.095 1.962 2.126 2.667 2.141.598 0 1.196-.03 1.794-.092.491-.06.675-.55.476-.917a2.193 2.193 0 0 1-.276-1.04v-1.392c0-.52-.813-.52-.813 0v2.05a.137.137 0 0 1-.138.137c-.276.015-.629.015-1.027.015-1.319-.015-1.41-.352-1.41-.872V9.79c0-.826-.553-1.147-1.15-1.147h-1.55c-.122 0-.183-.076-.168-.199.03-.244.061-.673.061-1.376 0-.75-1.196-.734-1.196 0 0 .52-.015.948-.092 1.437a.15.15 0 0 1-.153.123zM91.36 7.311c1.794-1.208 3.45-2.691 4.753-4.542.077-.107.184-.107.26 0 1.304 1.759 3.098 3.41 5.106 4.619.583.352 1.196.78 1.564.153.169-.29.138-.704-.291-.933-2.392-1.285-4.446-3.227-5.78-5.078a.284.284 0 0 1-.031-.107c.03-.596-.797-.887-1.135-.336-1.41 2.324-3.618 4.22-5.887 5.643-.338.214-.399.597-.23.872.383.627 1.042.138 1.671-.29zm7.559-.091c.767 0 .782-1.209.015-1.209h-5.29c-.766 0-.72 1.209.031 1.209zM90.96 8.734c-.766 0-.736 1.162.031 1.162h3.25c.138 0 .2.077.154.2-.292.733-.89 2.003-1.518 3.18-.03.046-.077.077-.123.077-.904.061-1.564.092-1.594.092a.547.547 0 0 0-.568.52c-.03.764.721.657 1.196.627 1.488-.092 5.474-.321 7.743-.857.046-.015.767.994.767.994.245.367.598.352.843.184.598-.413.169-.918-.123-1.361a24.036 24.036 0 0 0-1.947-2.509c-.398-.443-.89-1.01-1.41-.489-.2.168-.23.52.076.841.384.398.629.719.905 1.07.092.123.061.215-.077.246-1.134.229-2.652.397-3.91.504-.168.016-.23-.076-.153-.23a38.905 38.905 0 0 0 1.35-2.997c.03-.061.091-.107.153-.107h5.719c.904 0 .705-1.33-.077-1.33a.761.761 0 0 0-.399.122.285.285 0 0 1-.107.03z" style="-inkscape-font-specification:'UzumasaHonmaruGothic-Cinema, Normal';font-variant-ligatures:normal;font-variant-caps:normal;font-variant-numeric:normal;font-feature-settings:normal;text-align:start"/></g><g style="line-height:1.25;-inkscape-font-specification:'GenEi Antique v5 Medium';text-align:center" aria-label="the Himekawa Snow Society" font-weight="500" font-size="8.783" font-family="GenEi Antique v5" letter-spacing="0" text-anchor="middle" stroke-width=".356"><path style="-inkscape-font-specification:'GenEi Antique v5 Medium';text-align:center" d="M8.82 19.117q-.032-.038-.032-.057 0-.026.031-.083l.07-.14.064-.12q.02-.04.07-.04.141.014.352.014 0-.268.032-.872 0-.064.082-.077.083-.012.147-.038.064-.025.128-.07.07-.044.14-.07.153 0 .153.134-.032.4-.032.993.575 0 .81-.013.033 0 .071.038.038.032.038.057 0 .026-.038.14-.038.109-.051.185-.013.05-.07.05-.16-.012-.766-.012l-.02 1.814q0 .357.077.452.077.096.307.096.083 0 .236-.039.153-.038.16-.038.038 0 .095.115.057.114.057.153 0 .031-.025.038-.434.273-.88.273-.288 0-.48-.197-.19-.197-.19-.56l.019-2.107-.485.013q-.032 0-.07-.032zM11.601 21.867v-.007q.07-.49.07-1.298v-1.993q0-.986-.07-1.4v-.007q0-.089.103-.089.102-.006.236-.044.14-.038.223-.07.083-.032.115-.032t.064.045q.038.038.038.095-.064.891-.064 1.356v.764q.555-.567 1.206-.567.517 0 .772.312.262.312.262.897l-.02.732q0 .796.07 1.299v.006q0 .032-.025.058-.025.025-.057.025h-.613q-.032 0-.057-.025-.026-.026-.026-.058v-.006q.064-.427.064-1.299v-.713q0-.394-.153-.528-.147-.14-.39-.14-.242 0-.516.14t-.517.414v.827q0 .783.064 1.299v.006q0 .032-.026.058-.025.025-.057.025h-.613q-.031 0-.057-.025-.026-.026-.026-.058zM15.596 21.504q-.338-.414-.338-1.178 0-.763.459-1.234.466-.478 1.091-.478.804 0 1.149.669.172.343.172.77 0 .083-.058.133-.05.051-.134.051H15.96q0 .624.237.917.236.293.784.293.55 0 .9-.376.026-.025.051-.025.026 0 .045.025l.14.185q.02.019.02.044 0 .02-.014.032-.223.306-.574.49-.344.178-.746.178-.798 0-1.206-.496zm.402-1.687l.714.007q.709 0 .709-.038 0-.35-.198-.548-.198-.203-.409-.203-.204 0-.382.108-.332.216-.434.675zM21.166 21.86q.077-.515.077-1.444V18.64q0-.904-.077-1.445v-.007q0-.032.026-.057.025-.032.057-.032h.676q.032 0 .051.026.026.025.026.057v.013q-.07.458-.07 1.444v.516h2.514v-.516q0-.948-.07-1.444v-.007q0-.032.025-.057.026-.032.057-.032h.677q.07 0 .07.082v.013q-.07.458-.07 1.445v1.776q0 .904.076 1.445v.006q0 .032-.025.058-.026.025-.058.025h-.682q-.07 0-.07-.076v-.013q.07-.477.07-1.445V19.6h-2.514v.815q0 .948.07 1.445v.007q0 .031-.026.057-.025.025-.057.025h-.676q-.077 0-.077-.076zM26.475 17.838q-.128-.134-.128-.306t.128-.299q.134-.127.306-.127t.3.127q.134.127.134.3 0 .171-.134.305-.128.133-.3.133t-.306-.133zm-.083 4.029v-.007q.07-.535.07-1.298v-.401q0-.306-.038-.796-.032-.49-.032-.617 0-.07.115-.07l.53-.02q.127 0 .127.14v.007q-.064.63-.064 1.241v.516q0 .79.064 1.298v.007q0 .026-.032.051-.026.032-.051.032h-.606q-.032 0-.058-.026-.025-.025-.025-.057zM28.185 21.867v-.007q.064-.433.064-1.298v-.401q0-1.012-.064-1.394v-.007q0-.032.025-.057.032-.032.058-.032l.523-.026q.102 0 .102.14v.414q.593-.579 1.187-.579.3 0 .542.14.243.14.326.37.536-.51 1.135-.51.6 0 .81.35.211.344.211.866v.725q0 .802.07 1.299v.006q0 .032-.025.058-.026.025-.058.025h-.612q-.032 0-.057-.025-.026-.026-.026-.058v-.006q.064-.433.064-1.299v-.802q0-.579-.645-.579-.23 0-.414.077-.18.076-.409.318v.986q0 .802.07 1.299v.006q0 .032-.025.058-.026.025-.058.025h-.612q-.032 0-.057-.025-.026-.026-.026-.058v-.006q.064-.433.064-1.299v-.802q0-.318-.153-.445-.147-.134-.339-.134-.19 0-.459.147-.268.146-.504.381v.853q0 .802.07 1.299v.006q0 .032-.025.058-.026.025-.058.025h-.612q-.032 0-.058-.025-.025-.026-.025-.058zM34.112 21.504q-.338-.414-.338-1.178 0-.763.46-1.234.465-.478 1.09-.478.805 0 1.15.669.171.343.171.77 0 .083-.057.133-.051.051-.134.051h-1.978q0 .624.236.917.236.293.785.293t.9-.376q.025-.025.05-.025.026 0 .045.025l.14.185q.02.019.02.044 0 .02-.013.032-.223.306-.574.49-.345.178-.747.178-.797 0-1.206-.496zm.402-1.687l.715.007q.708 0 .708-.038 0-.35-.198-.548-.197-.203-.408-.203-.204 0-.383.108-.332.216-.434.675zM37.405 21.867v-.007q.07-.528.07-1.445v-1.852q0-.98-.07-1.394v-.007q0-.089.102-.089.102-.006.236-.044.14-.038.223-.07.083-.032.115-.032t.064.045q.038.038.038.095-.064.917-.064 1.362v1.623q.128-.019.217-.089.217-.172.562-.547.35-.376.574-.7.02-.026.051-.026l.74-.019q.026 0 .051.025.026.026.026.058t-.026.05q-.689.593-1.423 1.337.517.611 1.06 1.152.542.535.542.567 0 .032-.032.057-.025.032-.057.032h-.836q-.045 0-.064-.026-.319-.458-.51-.725-.185-.274-.62-.732-.038-.026-.255-.051 0 .993.064 1.445v.007q0 .031-.025.057-.026.025-.058.025h-.612q-.032 0-.058-.025-.025-.026-.025-.057zM41.01 21.79q-.268-.216-.268-.623 0-.414.338-.707.345-.293.919-.42.115-.025.427-.076.32-.051.32-.102 0-.554-.262-.694-.204-.095-.44-.095-.377 0-.747.585-.02.032-.057.032l-.096-.007q-.045 0-.064-.063-.013-.064-.057-.223-.039-.166-.058-.261 0-.045.038-.083.524-.433 1.06-.433 1.32 0 1.32 1.235l-.025 1.095q0 .337.045.452.05.108.23.108.025 0 .108-.025l.083-.02q.076 0 .121.242 0 .032-.02.051-.235.242-.656.242-.415 0-.568-.395-.275.23-.485.312-.204.083-.574.083-.364 0-.632-.21zm.383-.662q0 .14.16.261.165.115.344.115.178 0 .383-.083.427-.165.427-.324l.026-.777-.6.14q-.74.197-.74.668zM44.053 18.722q0-.05.051-.05l.74.006q.039 0 .058.045.517 1.616.874 2.457.224-.484.58-1.496-.337-.872-.337-.942 0-.07.05-.07h.734q.058 0 .064.044.275 1.286.709 2.464.414-.974.886-2.464.026-.05.064-.05l.562.006q.064 0 .064.045 0 .006-.013.044-.377.821-1.353 3.15-.019.04-.064.04l-.453.006q-.025 0-.057-.045l-.6-1.566q-.121.306-.58 1.573-.026.044-.064.044l-.498-.007q-.045 0-.064-.038-.542-1.4-1.34-3.15-.013-.02-.013-.045zM49.7 21.79q-.268-.216-.268-.623 0-.414.338-.707.345-.293.92-.42.114-.025.427-.076.319-.051.319-.102 0-.554-.262-.694-.204-.095-.44-.095-.376 0-.747.585-.019.032-.057.032l-.096-.007q-.044 0-.064-.063-.012-.064-.057-.223-.038-.166-.057-.261 0-.045.038-.083.523-.433 1.06-.433 1.32 0 1.32 1.235l-.026 1.095q0 .337.045.452.051.108.23.108.025 0 .108-.025l.083-.02q.077 0 .121.242 0 .032-.019.051-.236.242-.657.242-.415 0-.568-.395-.274.23-.485.312-.204.083-.574.083-.364 0-.632-.21zm.383-.662q0 .14.16.261.166.115.344.115.179 0 .383-.083.428-.165.428-.324l.025-.777-.6.14q-.74.197-.74.668zM55.15 21.587v-.013q.146-.554.165-.738.013-.058.058-.058l.076-.006q.039 0 .058.032.16.305.491.528.332.223.632.223.306 0 .568-.21.261-.217.261-.592 0-.376-.23-.599-.223-.229-.574-.375-.35-.153-.536-.248-.178-.102-.389-.274-.434-.337-.434-.904 0-.573.434-.948.44-.376 1.085-.376.644 0 1.027.23.179.107.179.171l-.007.026q-.14.483-.166.719-.013.057-.051.057l-.077.007q-.044 0-.063-.038-.14-.325-.402-.522-.256-.204-.568-.204-.306 0-.523.178-.217.178-.217.535 0 .35.319.585.223.153.542.28.319.121.517.23.204.101.421.28.453.362.453 1.005 0 .637-.472 1.038-.466.394-1.174.394-.421 0-.766-.082-.338-.083-.491-.172-.147-.096-.147-.16zM58.997 21.867v-.007q.07-.477.07-1.298v-.401q0-.974-.07-1.394v-.007q0-.032.025-.057.032-.032.058-.032l.51-.026q.122 0 .122.134v.407q.555-.566 1.205-.566.517 0 .773.312.261.312.261.897l-.019.732q0 .802.07 1.299v.006q0 .032-.025.058-.026.025-.058.025h-.612q-.032 0-.058-.025-.025-.026-.025-.058v-.006q.064-.484.064-1.299v-.713q0-.394-.154-.528-.146-.14-.395-.14-.243 0-.517.14-.268.134-.51.414v.827q0 .847.063 1.299v.006q0 .032-.025.058-.026.025-.058.025h-.612q-.032 0-.058-.025-.025-.026-.025-.058zM63.087 21.542q-.434-.464-.434-1.21 0-.75.447-1.234.453-.484 1.2-.484.746 0 1.154.465.408.458.408 1.222 0 .757-.433 1.228-.434.471-1.168.471t-1.174-.458zm.268-1.286q0 .707.408 1.102.23.222.562.222.338 0 .587-.318.249-.325.249-.815 0-.706-.205-1.056-.204-.357-.682-.357-.472 0-.696.357-.223.35-.223.865zM66.118 18.722q0-.05.05-.05l.74.006q.04 0 .058.045.517 1.616.874 2.457.224-.484.581-1.496-.338-.872-.338-.942 0-.07.051-.07h.734q.057 0 .064.044.274 1.286.708 2.464.415-.974.887-2.464.025-.05.064-.05l.561.006q.064 0 .064.045 0 .006-.013.044-.376.821-1.353 3.15-.019.04-.063.04l-.453.006q-.026 0-.058-.045l-.6-1.566q-.12.306-.58 1.573-.026.044-.064.044l-.498-.007q-.044 0-.064-.038-.542-1.4-1.34-3.15-.012-.02-.012-.045zM73.78 21.587v-.013q.148-.554.167-.738.013-.058.057-.058l.077-.006q.038 0 .057.032.16.305.491.528.332.223.632.223.306 0 .568-.21.262-.217.262-.592 0-.376-.23-.599-.223-.229-.574-.375-.351-.153-.536-.248-.179-.102-.39-.274-.433-.337-.433-.904 0-.573.434-.948.44-.376 1.084-.376.645 0 1.027.23.18.107.18.171l-.008.026q-.14.483-.165.719-.013.057-.051.057l-.077.007q-.045 0-.064-.038-.14-.325-.402-.522-.255-.204-.568-.204-.306 0-.523.178-.217.178-.217.535 0 .35.32.585.222.153.542.28.319.121.516.23.205.101.421.28.454.362.454 1.005 0 .637-.473 1.038-.465.394-1.174.394-.42 0-.765-.082-.339-.083-.492-.172-.146-.096-.146-.16zM77.8 21.542q-.433-.464-.433-1.21 0-.75.446-1.234.453-.484 1.2-.484.747 0 1.155.465.408.458.408 1.222 0 .757-.434 1.228T78.975 22q-.734 0-1.174-.458zm.269-1.286q0 .707.408 1.102.23.222.562.222.338 0 .587-.318.248-.325.248-.815 0-.706-.204-1.056-.204-.357-.683-.357-.472 0-.695.357-.223.35-.223.865zM81.418 21.53q-.414-.472-.414-1.223 0-.757.491-1.222.491-.47 1.091-.47.606 0 1.027.216.051.032.051.076l-.172.611q-.013.045-.05.045l-.097.006q-.044 0-.063-.025-.288-.51-.658-.51-.363 0-.644.338-.274.331-.274.904 0 .566.28.904.281.33.677.33.402 0 .727-.286.013-.012.058-.012.044 0 .127.095.09.095.09.12 0 .026-.013.04-.421.534-1.123.534-.696 0-1.11-.471zM84.564 17.838q-.127-.134-.127-.306t.127-.299q.134-.127.306-.127.173 0 .3.127.134.127.134.3 0 .171-.134.305-.127.133-.3.133-.172 0-.306-.133zm-.083 4.029v-.007q.07-.535.07-1.298v-.401q0-.306-.038-.796-.032-.49-.032-.617 0-.07.115-.07l.53-.02q.127 0 .127.14v.007q-.064.63-.064 1.241v.516q0 .79.064 1.298v.007q0 .026-.032.051-.025.032-.05.032h-.607q-.032 0-.057-.026-.026-.025-.026-.057zM86.332 21.504q-.339-.414-.339-1.178 0-.763.46-1.234.466-.478 1.09-.478.805 0 1.15.669.172.343.172.77 0 .083-.058.133-.05.051-.134.051h-1.978q0 .624.236.917.236.293.785.293t.9-.376q.025-.025.05-.025.026 0 .046.025l.14.185q.019.019.019.044 0 .02-.013.032-.223.306-.574.49-.345.178-.747.178-.797 0-1.206-.496zm.402-1.687l.714.007q.708 0 .708-.038 0-.35-.197-.548-.198-.203-.409-.203-.204 0-.383.108-.331.216-.433.675zM89.165 19.117q-.032-.038-.032-.057 0-.026.032-.083l.07-.14.064-.12q.019-.04.07-.04.14.014.35.014 0-.268.033-.872 0-.064.083-.077.082-.012.146-.038.064-.025.128-.07.07-.044.14-.07.153 0 .153.134-.032.4-.032.993.575 0 .81-.013.033 0 .071.038.038.032.038.057 0 .026-.038.14-.038.109-.051.185-.013.05-.07.05-.16-.012-.766-.012l-.019 1.814q0 .357.077.452.076.096.306.096.083 0 .236-.039.153-.038.16-.038.038 0 .095.115.058.114.058.153 0 .031-.026.038-.434.273-.88.273-.288 0-.479-.197t-.191-.56l.019-2.107-.485.013q-.032 0-.07-.032zM91.557 18.716q0-.044.058-.044h.682q.045 0 .064.038.453 1.368.887 2.412.728-1.572.996-2.412.019-.038.063-.038h.6q.064 0 .064.038 0 .032-.057.14-.058.102-.97 1.935-.906 1.827-1.091 2.438-.026.044-.07.044h-.632q-.045 0-.045-.038 0-.032.275-.471.28-.44.485-.891-.53-1.407-1.296-3.106-.012-.02-.012-.045z"/></g></g></svg>