<svg xmlns="http://www.w3.org/2000/svg" viewBox="0 0 27.297 30.891" height="116.755" width="103.17"><path d="M17.994 3.148a1.031 1.031 0 0 0-1.219.113l-2.102 1.82-.006-3.243a1.031 1.031 0 0 0-.551-.926 1.031 1.031 0 0 0-1.511.929l.005 3.24-2.11-1.826a1.031 1.031 0 0 0-.166-.121 1.031 1.031 0 0 0-1.184 1.68l3.464 2.998.002 1.279-1.083.625-1.08-1.87a1.031 1.031 0 0 0-.352-.371 1.031 1.031 0 0 0-1.434 1.402l1.08 1.87-1.083.625-1.12-.646-.87-4.489a1.031 1.031 0 0 0-.528-.726A1.031 1.031 0 0 0 4.65 6.63l.528 2.728-2.81-1.622a1.031 1.031 0 1 0-1.031 1.785l2.81 1.623-2.627.906a1.031 1.031 0 1 0 .673 1.95l4.321-1.49 1.12.647v1.249l-2.159-.001a1.032 1.032 0 1 0 0 2.064h2.16v1.252l-1.106.636-4.33-1.501a1.031 1.031 0 1 0-.675 1.948l2.637.914-2.81 1.617a1.031 1.031 0 1 0 1.028 1.788l2.812-1.618-.524 2.73a1.032 1.032 0 1 0 2.026.39l.86-4.477 1.111-.64 1.084.626L8.67 22a1.032 1.032 0 0 0 1.788 1.032l1.077-1.865 1.083.626.003 1.281-3.448 2.984a1.032 1.032 0 1 0 1.35 1.56l2.103-1.82.006 3.246a1.031 1.031 0 1 0 2.062-.005l-.005-3.241 2.11 1.827a1.031 1.031 0 1 0 1.35-1.56l-3.465-2.998-.002-1.277 1.085-.626 1.08 1.871a1.032 1.032 0 1 0 1.787-1.033l-1.08-1.869 1.08-.624 1.12.646.872 4.487a1.031 1.031 0 1 0 2.024-.391l-.53-2.73 2.812 1.623a1.031 1.031 0 1 0 1.03-1.785l-2.81-1.623 2.628-.906a1.031 1.031 0 0 0 .193-1.874 1.031 1.031 0 0 0-.865-.077l-4.323 1.49-1.119-.646v-1.25h2.16a1.031 1.031 0 0 0 .559-1.907 1.031 1.031 0 0 0-.56-.155h-2.16V13.16l1.11-.638 4.327 1.5a1.031 1.031 0 0 0 .837-1.88 1.031 1.031 0 0 0-.161-.068l-2.637-.914 2.809-1.616a1.031 1.031 0 0 0 .022-1.788 1.031 1.031 0 0 0-1.05.001L22.11 9.373l.524-2.73a1.031 1.031 0 0 0-.54-1.126 1.031 1.031 0 0 0-1.486.737l-.86 4.477-1.113.64-1.083-.625L18.63 8.88a1.031 1.031 0 0 0-.386-1.428 1.031 1.031 0 0 0-1.402.396l-1.078 1.867-1.082-.625-.002-1.285 3.447-2.982a1.031 1.031 0 0 0-.131-1.674zm-4.346 7.727l1.083.625-1.084 1.878-1.083-1.877zm2.871 1.657l1.083.626v1.252h-2.167zm-5.74 0l1.084 1.876H9.695v-1.25zm6.823 3.94v1.251l-1.082.625-1.085-1.877zm-5.74-.002l-1.084 1.878-1.083-.625V16.47zm1.788 1.033l1.083 1.877-1.084.625-1.083-.625z" style="line-height:normal;font-variant-ligatures:normal;font-variant-position:normal;font-variant-caps:normal;font-variant-numeric:normal;font-variant-alternates:normal;font-feature-settings:normal;text-indent:0;text-align:start;text-decoration-line:none;text-decoration-style:solid;text-decoration-color:#000;text-transform:none;text-orientation:mixed;white-space:normal;shape-padding:0;isolation:auto;mix-blend-mode:normal;solid-color:#000;solid-opacity:1" color="#000" font-weight="400" font-family="sans-serif" overflow="visible" fill="#f9f9ff" fill-rule="evenodd"/></svg>