<?xml version="1.0" encoding="UTF-8" standalone="no"?>
<!-- Created with Inkscape (http://www.inkscape.org/) -->

<svg
   xmlns:dc="http://purl.org/dc/elements/1.1/"
   xmlns:cc="http://creativecommons.org/ns#"
   xmlns:rdf="http://www.w3.org/1999/02/22-rdf-syntax-ns#"
   xmlns:svg="http://www.w3.org/2000/svg"
   xmlns="http://www.w3.org/2000/svg"
   xmlns:sodipodi="http://sodipodi.sourceforge.net/DTD/sodipodi-0.dtd"
   xmlns:inkscape="http://www.inkscape.org/namespaces/inkscape"
   width="103.1702"
   height="116.75462"
   viewBox="0 0 27.297116 30.891327"
   version="1.1"
   id="svg8"
   inkscape:version="0.92.3 (2405546, 2018-03-11)"
   sodipodi:docname="top-mark.svg">
  <defs
     id="defs2" />
  <sodipodi:namedview
     id="base"
     pagecolor="#ffffff"
     bordercolor="#666666"
     borderopacity="1.0"
     inkscape:pageopacity="0.0"
     inkscape:pageshadow="2"
     inkscape:zoom="1.4"
     inkscape:cx="152.25986"
     inkscape:cy="137.09642"
     inkscape:document-units="mm"
     inkscape:current-layer="layer1"
     showgrid="false"
     inkscape:snap-nodes="false"
     inkscape:snap-object-midpoints="true"
     inkscape:snap-center="true"
     fit-margin-top="3"
     units="px"
     fit-margin-left="3"
     fit-margin-bottom="3"
     fit-margin-right="3"
     inkscape:window-width="1920"
     inkscape:window-height="965"
     inkscape:window-x="-8"
     inkscape:window-y="-8"
     inkscape:window-maximized="1" />
  <metadata
     id="metadata5">
    <rdf:RDF>
      <cc:Work
         rdf:about="">
        <dc:format>image/svg+xml</dc:format>
        <dc:type
           rdf:resource="http://purl.org/dc/dcmitype/StillImage" />
        <dc:title></dc:title>
      </cc:Work>
    </rdf:RDF>
  </metadata>
  <g
     inkscape:label="レイヤー 1"
     inkscape:groupmode="layer"
     id="layer1"
     transform="translate(-68.425386,-132.37676)">
    <path
       inkscape:connector-curvature="0"
       style="color:#000000;font-style:normal;font-variant:normal;font-weight:normal;font-stretch:normal;font-size:medium;line-height:normal;font-family:sans-serif;font-variant-ligatures:normal;font-variant-position:normal;font-variant-caps:normal;font-variant-numeric:normal;font-variant-alternates:normal;font-feature-settings:normal;text-indent:0;text-align:start;text-decoration:none;text-decoration-line:none;text-decoration-style:solid;text-decoration-color:#000000;letter-spacing:normal;word-spacing:normal;text-transform:none;writing-mode:lr-tb;direction:ltr;text-orientation:mixed;dominant-baseline:auto;baseline-shift:baseline;text-anchor:start;white-space:normal;shape-padding:0;clip-rule:nonzero;display:inline;overflow:visible;visibility:visible;opacity:1;isolation:auto;mix-blend-mode:normal;color-interpolation:sRGB;color-interpolation-filters:linearRGB;solid-color:#000000;solid-opacity:1;vector-effect:none;fill:#f9f9ff;fill-opacity:1;fill-rule:evenodd;stroke:none;stroke-width:4.48450947;stroke-linecap:round;stroke-linejoin:miter;stroke-miterlimit:4;stroke-dasharray:none;stroke-dashoffset:0;stroke-opacity:1;color-rendering:auto;image-rendering:auto;shape-rendering:auto;text-rendering:auto;enable-background:accumulate"
       d="m 86.418989,135.52505 a 1.0314282,1.0314282 0 0 0 -1.21811,0.11278 l -2.10289,1.82022 -0.006,-3.24375 a 1.0314282,1.0314282 0 0 0 -0.55089,-0.92546 1.0314282,1.0314282 0 0 0 -1.511,0.92857 l 0.005,3.2411 -2.10985,-1.82685 a 1.0314282,1.0314282 0 0 0 -0.16599,-0.12112 1.0314282,1.0314282 0 0 0 -1.18355,1.68049 l 3.46387,2.99802 0.002,1.27823 -1.08362,0.62571 -1.08051,-1.87051 a 1.0314283,1.0314283 0 0 0 -0.35084,-0.37071 1.0314283,1.0314283 0 0 0 -1.43472,1.40189 l 1.08079,1.87003 -1.08284,0.62551 -1.11993,-0.64659 -0.87076,-4.4887 a 1.0314282,1.0314282 0 0 0 -0.52751,-0.72655 1.0314282,1.0314282 0 0 0 -1.49771,1.11963 l 0.52851,2.72877 -2.81004,-1.62239 a 1.0314283,1.0314283 0 1 0 -1.03104,1.78581 l 2.81004,1.62239 -2.62742,0.90665 a 1.0314282,1.0314282 0 1 0 0.67305,1.94894 l 4.32133,-1.48903 1.11993,0.64659 8e-5,1.24873 -2.15859,-9e-4 a 1.0319841,1.0319841 0 1 0 -10e-4,2.06394 l 2.15996,-3e-4 1.3e-4,1.2521 -1.10565,0.63624 -4.32959,-1.50085 a 1.0314282,1.0314282 0 1 0 -0.67569,1.94843 l 2.63752,0.91404 -2.80976,1.61614 a 1.0314282,1.0314282 0 1 0 1.0274,1.78869 l 2.8127,-1.61777 -0.52435,2.73028 a 1.0316222,1.0316222 0 1 0 2.02624,0.389 l 0.85892,-4.47691 1.11202,-0.63923 1.08354,0.62558 -1.07678,1.86505 a 1.0321914,1.0321914 0 0 0 1.7878,1.0322 l 1.07679,-1.86505 1.08354,0.62558 0.003,1.28135 -3.44775,2.98359 a 1.0316288,1.0316288 0 1 0 1.35001,1.56029 l 2.10231,-1.81924 0.006,3.24503 a 1.0314282,1.0314282 0 1 0 2.06226,-0.005 l -0.005,-3.24139 2.11034,1.82714 a 1.0314282,1.0314282 0 1 0 1.34955,-1.55939 l -3.46437,-2.99831 -0.002,-1.27723 1.08413,-0.62543 1.08021,1.87102 a 1.0321155,1.0321155 0 1 0 1.78722,-1.0329 l -1.08059,-1.86924 1.08148,-0.62429 1.11943,0.64631 0.87162,4.48719 a 1.0314282,1.0314282 0 1 0 2.02436,-0.3916 l -0.52952,-2.72932 2.81104,1.62295 a 1.0314282,1.0314282 0 1 0 1.03104,-1.78581 l -2.81104,-1.62295 2.62843,-0.90609 a 1.0314282,1.0314282 0 0 0 0.19236,-1.87328 1.0314282,1.0314282 0 0 0 -0.86455,-0.0771 l -4.3227,1.49026 -1.11943,-0.64631 2.9e-4,-1.25052 2.15988,9.8e-4 a 1.0314283,1.0314283 0 0 0 0.55852,-1.90777 1.0314283,1.0314283 0 0 0 -0.55876,-0.15446 l -2.16017,-4.8e-4 7e-5,-1.2513 1.1083,-0.63738 4.32781,1.50049 a 1.0314282,1.0314282 0 0 0 0.83715,-1.88048 1.0314282,1.0314282 0 0 0 -0.16147,-0.0679 l -2.63673,-0.91427 2.80897,-1.61591 a 1.0314282,1.0314282 0 0 0 0.0222,-1.78811 1.0314282,1.0314282 0 0 0 -1.05001,0.001 l -2.81183,1.61627 0.52414,-2.73107 a 1.0314282,1.0314282 0 0 0 -0.54094,-1.12572 1.0314282,1.0314282 0 0 0 -1.48559,0.73722 l -0.85971,4.47715 -1.11338,0.64042 -1.08255,-0.625 1.07794,-1.86705 a 1.0314283,1.0314283 0 0 0 -0.38611,-1.42842 1.0314283,1.0314283 0 0 0 -1.4017,0.39623 l -1.07793,1.86704 -1.08255,-0.62501 -0.002,-1.28521 3.44767,-2.98232 a 1.0314282,1.0314282 0 0 0 -0.13162,-1.67355 z m -4.34533,7.7266 1.08305,0.6253 -1.08399,1.87752 -1.08375,-1.8764 z m 2.87086,1.65749 1.08304,0.6253 -1.5e-4,1.25258 -2.16688,-3.5e-4 z m -5.74033,-8e-5 1.08404,1.8759 -2.16787,-9.6e-4 -8e-5,-1.24872 z m 6.82275,3.93913 -3.7e-4,1.2518 -1.08147,0.62429 -1.08475,-1.87697 z m -5.73946,-10e-4 -1.08399,1.87752 -1.08305,-0.62529 -1.3e-4,-1.25209 z m 1.7878,1.03219 1.08347,1.87688 -1.08441,0.62594 -1.08305,-0.62531 z"
       id="path855"
       inkscape:export-xdpi="192.017"
       inkscape:export-ydpi="192.017" />
  </g>
</svg>
