<svg xmlns="http://www.w3.org/2000/svg" width="600" height="600" viewBox="0 0 158.75 158.75"><defs><linearGradient id="a"><stop offset="0" stop-color="#a8a100"/><stop offset="1" stop-color="#cad000"/></linearGradient></defs><g stroke-width=".447"><path d="M0 0h158.75v158.75H0z" fill="#060034"/><path d="M98.113 26.377a4.446 4.446 0 0 0-5.25.486l-9.065 7.846-.025-13.982a4.446 4.446 0 0 0-2.375-3.99 4.446 4.446 0 0 0-6.513 4.003l.02 13.97-9.094-7.874a4.446 4.446 0 0 0-.715-.522 4.446 4.446 0 0 0-5.102 7.244l14.93 12.923.008 5.51-4.67 2.697-4.658-8.063a4.446 4.446 0 0 0-1.512-1.598 4.446 4.446 0 0 0-6.185 6.043l4.659 8.06-4.668 2.697-4.827-2.787-3.753-19.349a4.446 4.446 0 0 0-2.274-3.132 4.446 4.446 0 0 0-6.456 4.827l2.278 11.762-12.113-6.993a4.446 4.446 0 1 0-4.444 7.697l12.113 6.994-11.326 3.908a4.446 4.446 0 1 0 2.901 8.4l18.627-6.418 4.828 2.787v5.383l-9.304-.004a4.448 4.448 0 1 0-.006 8.897l9.31-.002v5.397l-4.765 2.743-18.663-6.47a4.446 4.446 0 1 0-2.912 8.4l11.369 3.94-12.112 6.965a4.446 4.446 0 1 0 4.429 7.71l12.124-6.973-2.26 11.769a4.447 4.447 0 1 0 8.734 1.677l3.702-19.298 4.793-2.755 4.671 2.696-4.641 8.04a4.45 4.45 0 0 0 7.706 4.449l4.641-8.04 4.671 2.697.011 5.523-14.861 12.861a4.447 4.447 0 1 0 5.819 6.726l9.062-7.842.025 13.988a4.446 4.446 0 1 0 8.889-.023l-.023-13.972 9.097 7.875a4.446 4.446 0 1 0 5.817-6.721l-14.933-12.924-.01-5.506 4.673-2.696 4.657 8.065a4.449 4.449 0 1 0 7.704-4.452l-4.658-8.057 4.661-2.691 4.826 2.786 3.757 19.341a4.446 4.446 0 1 0 8.726-1.688l-2.283-11.764 12.117 6.996a4.446 4.446 0 1 0 4.444-7.698l-12.117-6.996 11.33-3.906a4.446 4.446 0 0 0 .83-8.074 4.446 4.446 0 0 0-3.727-.333l-18.633 6.424-4.825-2.786v-5.39l9.311.004a4.446 4.446 0 0 0 2.407-8.223 4.446 4.446 0 0 0-2.408-.666l-9.311-.002v-5.394l4.777-2.747 18.655 6.467a4.446 4.446 0 0 0 3.609-8.105 4.446 4.446 0 0 0-.696-.293l-11.366-3.941 12.108-6.966a4.446 4.446 0 0 0 .096-7.707 4.446 4.446 0 0 0-4.526.004l-12.12 6.967 2.259-11.772a4.446 4.446 0 0 0-2.332-4.852 4.446 4.446 0 0 0-6.403 3.178l-3.706 19.298-4.8 2.76-4.666-2.693 4.647-8.048a4.446 4.446 0 0 0-1.665-6.157 4.446 4.446 0 0 0-6.042 1.708l-4.646 8.047-4.666-2.694-.01-5.54 14.861-12.855a4.446 4.446 0 0 0-.567-7.214zm-18.73 33.305l4.668 2.695-4.672 8.094-4.672-8.089zm12.374 7.145l4.669 2.695v5.4l-9.341-.002zm-24.743 0l4.672 8.085-9.344-.004v-5.382zm29.41 16.979l-.002 5.396-4.662 2.69-4.676-8.09zm-24.74-.005l-4.673 8.093-4.669-2.695v-5.397zm7.706 4.45l4.67 8.09-4.675 2.698-4.668-2.695z" style="line-height:normal;font-variant-ligatures:normal;font-variant-position:normal;font-variant-caps:normal;font-variant-numeric:normal;font-variant-alternates:normal;font-feature-settings:normal;text-indent:0;text-align:start;text-decoration-line:none;text-decoration-style:solid;text-decoration-color:#000;text-transform:none;text-orientation:mixed;white-space:normal;shape-padding:0;isolation:auto;mix-blend-mode:normal;solid-color:#000;solid-opacity:1" color="#000" font-weight="400" font-family="sans-serif" overflow="visible" fill="#f9f9ff" fill-rule="evenodd"/></g></svg>