<?xml version="1.0" encoding="UTF-8" standalone="no"?>
<svg
   xmlns:dc="http://purl.org/dc/elements/1.1/"
   xmlns:cc="http://creativecommons.org/ns#"
   xmlns:rdf="http://www.w3.org/1999/02/22-rdf-syntax-ns#"
   xmlns:svg="http://www.w3.org/2000/svg"
   xmlns="http://www.w3.org/2000/svg"
   xmlns:xlink="http://www.w3.org/1999/xlink"
   xmlns:sodipodi="http://sodipodi.sourceforge.net/DTD/sodipodi-0.dtd"
   xmlns:inkscape="http://www.inkscape.org/namespaces/inkscape"
   id="svg8"
   version="1.1"
   viewBox="0 0 158.75 158.75"
   height="600"
   width="600"
   sodipodi:docname="icon.svg"
   inkscape:version="0.92.3 (2405546, 2018-03-11)">
  <sodipodi:namedview
     pagecolor="#ffffff"
     bordercolor="#666666"
     borderopacity="1"
     objecttolerance="10"
     gridtolerance="10"
     guidetolerance="10"
     inkscape:pageopacity="0"
     inkscape:pageshadow="2"
     inkscape:window-width="1920"
     inkscape:window-height="965"
     id="namedview47"
     showgrid="false"
     inkscape:snap-page="true"
     inkscape:snap-object-midpoints="true"
     inkscape:snap-center="true"
     inkscape:zoom="0.64"
     inkscape:cx="346.14536"
     inkscape:cy="666.89421"
     inkscape:window-x="-8"
     inkscape:window-y="-8"
     inkscape:window-maximized="1"
     inkscape:current-layer="layer1" />
  <defs
     id="defs2">
    <linearGradient
       id="linearGradient4530">
      <stop
         id="stop4526"
         offset="0"
         style="stop-color:#a8a100;stop-opacity:1;" />
      <stop
         id="stop4528"
         offset="1"
         style="stop-color:#cad000;stop-opacity:1" />
    </linearGradient>
    <filter
       style="color-interpolation-filters:sRGB"
       id="filter4771">
      <feFlood
         flood-opacity="1"
         flood-color="rgb(0,0,0)"
         result="flood"
         id="feFlood4773" />
      <feComposite
         in="flood"
         in2="SourceGraphic"
         operator="in"
         result="composite1"
         id="feComposite4775" />
      <feGaussianBlur
         in="composite1"
         stdDeviation="5"
         result="blur"
         id="feGaussianBlur4777" />
      <feOffset
         dx="0"
         dy="0"
         result="offset"
         id="feOffset4779" />
      <feComposite
         in="SourceGraphic"
         in2="offset"
         operator="over"
         result="composite2"
         id="feComposite4781" />
    </filter>
    <filter
       style="color-interpolation-filters:sRGB"
       id="filter4758">
      <feFlood
         flood-opacity="1"
         flood-color="rgb(0,0,0)"
         result="flood"
         id="feFlood4760" />
      <feComposite
         in="flood"
         in2="SourceGraphic"
         operator="in"
         result="composite1"
         id="feComposite4762" />
      <feGaussianBlur
         in="composite1"
         stdDeviation="5"
         result="blur"
         id="feGaussianBlur4764" />
      <feOffset
         dx="0"
         dy="0"
         result="offset"
         id="feOffset4766" />
      <feComposite
         in="SourceGraphic"
         in2="offset"
         operator="over"
         result="composite2"
         id="feComposite4768" />
    </filter>
    <filter
       style="color-interpolation-filters:sRGB"
       id="filter4746">
      <feFlood
         flood-opacity="1"
         flood-color="rgb(0,0,0)"
         result="flood"
         id="feFlood4748" />
      <feComposite
         in="flood"
         in2="SourceGraphic"
         operator="in"
         result="composite1"
         id="feComposite4750" />
      <feGaussianBlur
         in="composite1"
         stdDeviation="5"
         result="blur"
         id="feGaussianBlur4752" />
      <feOffset
         dx="0"
         dy="0"
         result="offset"
         id="feOffset4754" />
      <feComposite
         in="SourceGraphic"
         in2="offset"
         operator="over"
         result="composite2"
         id="feComposite4756" />
    </filter>
    <filter
       style="color-interpolation-filters:sRGB"
       id="filter4734">
      <feFlood
         flood-opacity="1"
         flood-color="rgb(0,0,0)"
         result="flood"
         id="feFlood4736" />
      <feComposite
         in="flood"
         in2="SourceGraphic"
         operator="in"
         result="composite1"
         id="feComposite4738" />
      <feGaussianBlur
         in="composite1"
         stdDeviation="5"
         result="blur"
         id="feGaussianBlur4740" />
      <feOffset
         dx="0"
         dy="0"
         result="offset"
         id="feOffset4742" />
      <feComposite
         in="SourceGraphic"
         in2="offset"
         operator="over"
         result="composite2"
         id="feComposite4744" />
    </filter>
    <filter
       style="color-interpolation-filters:sRGB"
       id="filter4207">
      <feFlood
         flood-opacity="1"
         flood-color="rgb(0,0,0)"
         result="flood"
         id="feFlood4209" />
      <feComposite
         in="flood"
         in2="SourceGraphic"
         operator="in"
         result="composite1"
         id="feComposite4211" />
      <feGaussianBlur
         in="composite1"
         stdDeviation="5"
         result="blur"
         id="feGaussianBlur4213" />
      <feOffset
         dx="0"
         dy="0"
         result="offset"
         id="feOffset4215" />
      <feComposite
         in="SourceGraphic"
         in2="offset"
         operator="over"
         result="composite2"
         id="feComposite4217" />
    </filter>
    <linearGradient
       gradientTransform="scale(1.1202807,0.89263341)"
       spreadMethod="reflect"
       gradientUnits="userSpaceOnUse"
       y2="161.0775"
       x2="297.74918"
       y1="173.11845"
       x1="210.52345"
       id="linearGradient4532"
       xlink:href="#linearGradient4530" />
  </defs>
  <metadata
     id="metadata5">
    <rdf:RDF>
      <cc:Work
         rdf:about="">
        <dc:format>image/svg+xml</dc:format>
        <dc:type
           rdf:resource="http://purl.org/dc/dcmitype/StillImage" />
        <dc:title />
      </cc:Work>
    </rdf:RDF>
  </metadata>
  <g
     transform="translate(0,-138.24998)"
     id="layer1">
    <g
       inkscape:export-filename="C:\Users\tamai\OneDrive\デスクトップ\g863.png"
       inkscape:export-xdpi="482.77444"
       inkscape:export-ydpi="482.77444"
       id="g863"
       transform="matrix(4.6044154,0,0,4.6044154,-194.43794,-423.20531)"
       style="stroke-width:0.44699261">
      <rect
         y="121.93845"
         x="42.228584"
         height="34.477768"
         width="34.477768"
         id="rect853"
         style="fill:#060034;fill-opacity:1;stroke-width:0.11826678"
         inkscape:export-filename="C:\Users\tamai\OneDrive\デスクトップ\rect853.png"
         inkscape:export-xdpi="192.017"
         inkscape:export-ydpi="192.017" />
      <path
         inkscape:connector-curvature="0"
         style="color:#000000;font-style:normal;font-variant:normal;font-weight:normal;font-stretch:normal;font-size:medium;line-height:normal;font-family:sans-serif;font-variant-ligatures:normal;font-variant-position:normal;font-variant-caps:normal;font-variant-numeric:normal;font-variant-alternates:normal;font-feature-settings:normal;text-indent:0;text-align:start;text-decoration:none;text-decoration-line:none;text-decoration-style:solid;text-decoration-color:#000000;letter-spacing:normal;word-spacing:normal;text-transform:none;writing-mode:lr-tb;direction:ltr;text-orientation:mixed;dominant-baseline:auto;baseline-shift:baseline;text-anchor:start;white-space:normal;shape-padding:0;clip-rule:nonzero;display:inline;overflow:visible;visibility:visible;opacity:1;isolation:auto;mix-blend-mode:normal;color-interpolation:sRGB;color-interpolation-filters:linearRGB;solid-color:#000000;solid-opacity:1;vector-effect:none;fill:#f9f9ff;fill-opacity:1;fill-rule:evenodd;stroke:none;stroke-width:0.97395849;stroke-linecap:round;stroke-linejoin:miter;stroke-miterlimit:4;stroke-dasharray:none;stroke-dashoffset:0;stroke-opacity:1;color-rendering:auto;image-rendering:auto;shape-rendering:auto;text-rendering:auto;enable-background:accumulate"
         d="m 63.537044,127.66703 a 0.96558484,0.96558484 0 0 0 -1.140348,0.10558 l -1.968648,1.70403 -0.0055,-3.03668 a 0.96558484,0.96558484 0 0 0 -0.515722,-0.86638 0.96558484,0.96558484 0 0 0 -1.414544,0.86929 l 0.0045,3.0342 -1.975162,-1.71023 a 0.96558484,0.96558484 0 0 0 -0.155391,-0.11339 0.96558484,0.96558484 0 0 0 -1.107999,1.57321 l 3.242745,2.80664 0.0016,1.19663 -1.014443,0.58577 -1.01153,-1.75111 a 0.96558501,0.96558501 0 0 0 -0.328443,-0.34704 0.96558501,0.96558501 0 0 0 -1.343137,1.3124 l 1.011795,1.75065 -1.013713,0.58558 -1.048438,-0.60532 -0.815162,-4.20215 a 0.96558484,0.96558484 0 0 0 -0.493837,-0.68017 0.96558484,0.96558484 0 0 0 -1.402098,1.04816 l 0.494774,2.55457 -2.63066,-1.51882 a 0.96558501,0.96558501 0 1 0 -0.96522,1.67181 l 2.63066,1.51882 -2.459694,0.84877 a 0.96558484,0.96558484 0 1 0 0.63008,1.82453 l 4.045471,-1.39398 1.048438,0.60532 7.4e-5,1.16901 -2.020795,-8.5e-4 a 0.96610531,0.96610531 0 1 0 -0.0013,1.93218 l 2.022079,-2.8e-4 1.19e-4,1.17217 -1.035066,0.59562 -4.053204,-1.40504 a 0.96558484,0.96558484 0 1 0 -0.632555,1.82405 l 2.469148,0.85569 -2.630392,1.51297 a 0.96558484,0.96558484 0 1 0 0.961811,1.6745 l 2.633145,-1.51449 -0.490872,2.55598 a 0.96576641,0.96576641 0 1 0 1.896892,0.36417 l 0.804082,-4.19112 1.041034,-0.59842 1.014376,0.58565 -1.00805,1.74599 a 0.96629753,0.96629753 0 0 0 1.673675,0.9663 l 1.00805,-1.74599 1.014375,0.58565 0.0024,1.19955 -3.227655,2.79313 a 0.9657681,0.9657681 0 1 0 1.263822,1.46068 l 1.968107,-1.7031 0.0054,3.03788 a 0.96558484,0.96558484 0 1 0 1.930609,-0.005 l -0.0049,-3.03447 1.975631,1.7105 a 0.96558484,0.96558484 0 1 0 1.263393,-1.45984 l -3.243211,-2.80691 -0.0021,-1.19569 1.014919,-0.58551 1.011253,1.75158 a 0.96622831,0.96622831 0 1 0 1.673128,-0.96696 l -1.011603,-1.74991 1.012435,-0.58444 1.047972,0.60505 0.815977,4.20074 a 0.96558484,0.96558484 0 1 0 1.895131,-0.3666 l -0.495717,-2.55509 2.631593,1.51935 a 0.96558484,0.96558484 0 1 0 0.96522,-1.67181 l -2.631593,-1.51935 2.460637,-0.84825 a 0.96558484,0.96558484 0 0 0 0.180087,-1.75369 0.96558484,0.96558484 0 0 0 -0.809363,-0.0722 l -4.046752,1.39513 -1.047972,-0.60505 2.7e-4,-1.17069 2.022003,9.2e-4 a 0.96558501,0.96558501 0 0 0 0.522861,-1.78599 0.96558501,0.96558501 0 0 0 -0.523089,-0.1446 l -2.022268,-4.5e-4 6.7e-5,-1.17142 1.037551,-0.59669 4.051529,1.4047 a 0.96558484,0.96558484 0 0 0 0.783713,-1.76043 0.96558484,0.96558484 0 0 0 -0.151161,-0.0636 l -2.468415,-0.8559 2.629659,-1.51276 a 0.96558484,0.96558484 0 0 0 0.02083,-1.67396 0.96558484,0.96558484 0 0 0 -0.98298,0.001 l -2.632331,1.51309 0.490674,-2.55672 a 0.96558484,0.96558484 0 0 0 -0.506402,-1.05386 0.96558484,0.96558484 0 0 0 -1.390755,0.69016 l -0.80483,4.19134 -1.042305,0.59954 -1.013443,-0.58511 1.009125,-1.74786 a 0.96558501,0.96558501 0 0 0 -0.361464,-1.33723 0.96558501,0.96558501 0 0 0 -1.312211,0.37093 l -1.009125,1.74786 -1.013444,-0.58511 -0.0021,-1.20317 3.227588,-2.79194 a 0.96558484,0.96558484 0 0 0 -0.123209,-1.56671 z m -4.06793,7.23336 1.01391,0.58538 -1.01479,1.75767 -1.01457,-1.75662 z m 2.687584,1.55168 1.01391,0.58538 -1.4e-4,1.17262 -2.02856,-3.3e-4 z m -5.373882,-7e-5 1.014844,1.75614 -2.029488,-8.9e-4 -7.5e-5,-1.16901 z m 6.387212,3.68766 -3.43e-4,1.17189 -1.012435,0.58444 -1.015508,-1.75715 z m -5.373074,-0.001 -1.01479,1.75767 -1.01391,-0.58538 -1.25e-4,-1.17216 z m 1.673674,0.9663 1.014305,1.75707 -1.015185,0.58598 -1.01391,-0.58539 z"
         id="path855"
         inkscape:export-xdpi="192.017"
         inkscape:export-ydpi="192.017" />
    </g>
  </g>
</svg>
