<?xml version="1.0" encoding="UTF-8" standalone="no"?>
<svg
   xmlns:dc="http://purl.org/dc/elements/1.1/"
   xmlns:cc="http://creativecommons.org/ns#"
   xmlns:rdf="http://www.w3.org/1999/02/22-rdf-syntax-ns#"
   xmlns:svg="http://www.w3.org/2000/svg"
   xmlns="http://www.w3.org/2000/svg"
   xmlns:xlink="http://www.w3.org/1999/xlink"
   xmlns:sodipodi="http://sodipodi.sourceforge.net/DTD/sodipodi-0.dtd"
   xmlns:inkscape="http://www.inkscape.org/namespaces/inkscape"
   id="svg8"
   version="1.1"
   viewBox="0 0 158.75 15.875001"
   height="60"
   width="600"
   sodipodi:docname="publisher.svg"
   inkscape:version="0.92.3 (2405546, 2018-03-11)">
  <sodipodi:namedview
     pagecolor="#ffffff"
     bordercolor="#666666"
     borderopacity="1"
     objecttolerance="10"
     gridtolerance="10"
     guidetolerance="10"
     inkscape:pageopacity="0"
     inkscape:pageshadow="2"
     inkscape:window-width="1920"
     inkscape:window-height="965"
     id="namedview17"
     showgrid="false"
     inkscape:snap-page="true"
     inkscape:snap-object-midpoints="true"
     inkscape:snap-center="true"
     inkscape:zoom="0.42"
     inkscape:cx="-71.175652"
     inkscape:cy="364.22147"
     inkscape:window-x="-8"
     inkscape:window-y="-8"
     inkscape:window-maximized="1"
     inkscape:current-layer="svg8" />
  <defs
     id="defs2">
    <linearGradient
       gradientTransform="matrix(0.81252653,0,0,1.230729,-155.43452,239.67092)"
       spreadMethod="reflect"
       gradientUnits="userSpaceOnUse"
       y2="161.0775"
       x2="297.74918"
       y1="173.11845"
       x1="210.52345"
       id="linearGradient4532"
       xlink:href="#linearGradient4530" />
    <linearGradient
       id="linearGradient4530">
      <stop
         id="stop4526"
         offset="0"
         style="stop-color:#a8a100;stop-opacity:1;" />
      <stop
         id="stop4528"
         offset="1"
         style="stop-color:#cad000;stop-opacity:1" />
    </linearGradient>
    <linearGradient
       gradientTransform="scale(1.1202807,0.89263341)"
       spreadMethod="reflect"
       gradientUnits="userSpaceOnUse"
       y2="161.0775"
       x2="297.74918"
       y1="173.11845"
       x1="210.52345"
       id="linearGradient4568"
       xlink:href="#linearGradient4530" />
  </defs>
  <metadata
     id="metadata5">
    <rdf:RDF>
      <cc:Work
         rdf:about="">
        <dc:format>image/svg+xml</dc:format>
        <dc:type
           rdf:resource="http://purl.org/dc/dcmitype/StillImage" />
        <dc:title />
      </cc:Work>
    </rdf:RDF>
  </metadata>
  <rect
     y="-4.661814e-015"
     x="7.6130432e-016"
     height="15.875"
     width="158.75"
     id="rect4936"
     style="fill:#060034;fill-opacity:1;stroke:none;stroke-width:1.85208333;stroke-linejoin:round;stroke-miterlimit:4;stroke-dasharray:none;stroke-opacity:1"
     inkscape:export-filename="C:\Users\tamai\OneDrive\デスクトップ\e-1d.png"
     inkscape:export-xdpi="366.15198"
     inkscape:export-ydpi="366.15198" />
  <g
     style="fill:#f9f9ff;fill-opacity:1;stroke-width:1.91219246"
     transform="matrix(0.52295993,0,0,0.52295993,-12.672569,-107.02264)"
     id="g4944">
    <path
       inkscape:connector-curvature="0"
       style="color:#000000;font-style:normal;font-variant:normal;font-weight:normal;font-stretch:normal;font-size:medium;line-height:normal;font-family:sans-serif;font-variant-ligatures:normal;font-variant-position:normal;font-variant-caps:normal;font-variant-numeric:normal;font-variant-alternates:normal;font-feature-settings:normal;text-indent:0;text-align:start;text-decoration:none;text-decoration-line:none;text-decoration-style:solid;text-decoration-color:#000000;letter-spacing:normal;word-spacing:normal;text-transform:none;writing-mode:lr-tb;direction:ltr;text-orientation:mixed;dominant-baseline:auto;baseline-shift:baseline;text-anchor:start;white-space:normal;shape-padding:0;clip-rule:nonzero;display:inline;overflow:visible;visibility:visible;opacity:1;isolation:auto;mix-blend-mode:normal;color-interpolation:sRGB;color-interpolation-filters:linearRGB;solid-color:#000000;solid-opacity:1;vector-effect:none;fill:#f9f9ff;fill-opacity:1;fill-rule:evenodd;stroke:none;stroke-width:3.54154062;stroke-linecap:round;stroke-linejoin:miter;stroke-miterlimit:4;stroke-dasharray:none;stroke-dashoffset:0;stroke-opacity:1;color-rendering:auto;image-rendering:auto;shape-rendering:auto;text-rendering:auto;enable-background:accumulate"
       d="m 39.819833,212.34607 a 0.77869981,0.77869981 0 0 0 -0.386086,0.839 l 0.396309,2.06204 -2.123075,-1.22061 a 0.77869981,0.77869981 0 0 0 -0.813046,0.0108 0.77869981,0.77869981 0 0 0 0.03674,1.33844 l 2.120914,1.22035 -1.990879,0.68987 a 0.77869981,0.77869981 0 0 0 -0.141832,0.0628 0.77869981,0.77869981 0 0 0 0.651965,1.40819 l 3.267741,-1.13306 0.836368,0.48143 5.6e-5,0.9447 -1.63087,3.7e-4 a 0.77869996,0.77869996 0 0 0 -0.374808,0.0894 0.77869996,0.77869996 0 0 0 0.375005,1.46726 l 1.630649,-7.5e-4 2.16e-4,0.94411 -0.845517,0.48816 -3.263526,-1.12511 a 0.77869981,0.77869981 0 0 0 -0.674158,0.0706 0.77869981,0.77869981 0 0 0 0.166675,1.40188 l 1.983636,0.68451 -2.121506,1.22485 a 0.77869996,0.77869996 0 1 0 0.778405,1.34824 l 2.121506,-1.22486 -0.399016,2.06014 a 0.77869981,0.77869981 0 1 0 1.528333,0.29564 l 0.65767,-3.38749 0.845517,-0.48816 0.816481,0.47132 -0.815425,1.41102 a 0.77911949,0.77911949 45 1 0 1.348923,0.78003 l 0.815155,-1.41236 0.818694,0.47255 -0.0014,0.9631 -2.61567,2.26422 a 0.77869981,0.77869981 0 1 0 1.018877,1.1773 l 1.593254,-1.37944 -0.004,2.44716 a 0.77869981,0.77869981 0 1 0 1.557318,0.003 l 0.004,-2.44968 1.587186,1.37346 a 0.77884548,0.77884548 0 1 0 1.019215,-1.17796 l -2.602897,-2.25157 0.0018,-0.96835 0.818047,-0.4723 0.812945,1.40806 a 0.77927386,0.77927386 45 0 0 1.349741,-0.77927 l -0.812945,-1.40806 0.818048,-0.4723 0.838734,0.48205 0.649268,3.38049 a 0.77884548,0.77884548 0 1 0 1.529754,-0.29369 l -0.395863,-2.06127 2.12388,1.22114 a 0.77869981,0.77869981 0 1 0 0.775285,-1.3502 l -2.12129,-1.22013 1.991256,-0.69008 a 0.77869981,0.77869981 0 1 0 -0.510135,-1.47102 l -3.268118,1.13328 -0.835928,-0.48068 3.21e-4,-0.94491 1.631089,2e-5 a 0.77922008,0.77922008 0 1 0 -6.88e-4,-1.55844 l -1.630064,8.9e-4 6.1e-5,-0.94275 0.845142,-0.48795 3.262864,1.12397 a 0.77869981,0.77869981 0 1 0 0.508134,-1.47139 L 53.39,216.58461 l 2.122258,-1.22528 a 0.77869981,0.77869981 0 1 0 -0.778405,-1.34824 l -2.122258,1.22529 0.399768,-2.06057 a 0.77869981,0.77869981 0 0 0 -1.152172,-0.8329 0.77869981,0.77869981 0 0 0 -0.376812,0.53613 l -0.657394,3.38884 -0.845142,0.48794 -0.817512,-0.47224 0.81597,-1.41182 a 0.77869996,0.77869996 0 0 0 -1.036519,-1.08532 0.77869996,0.77869996 0 0 0 -0.311913,0.30702 l -0.815749,1.41219 -0.818105,-0.4724 0.0016,-0.96525 2.614757,-2.2632 a 0.77869981,0.77869981 0 0 0 -0.913488,-1.2572 0.77869981,0.77869981 0 0 0 -0.105387,0.0799 l -1.593095,1.37885 0.0038,-2.44657 a 0.77869981,0.77869981 0 0 0 -1.160707,-0.68952 0.77869981,0.77869981 0 0 0 -0.395588,0.68697 l -0.0047,2.44856 -1.58779,-1.37364 a 0.77869981,0.77869981 0 0 0 -0.940216,-0.0713 0.77869981,0.77869981 0 0 0 -0.07878,1.24961 l 2.602737,2.25215 -0.0016,0.96971 -0.817297,0.47186 -0.813815,-1.40957 a 0.77869996,0.77869996 0 0 0 -1.079683,-0.28675 0.77869996,0.77869996 0 0 0 -0.270058,1.06603 l 0.813815,1.40957 -0.817296,0.47186 -0.841161,-0.48366 -0.648463,-3.37995 a 0.77869981,0.77869981 0 0 0 -1.143889,-0.5457 z m 3.411555,5.75777 0.817671,-0.47209 0.818375,1.41747 -1.635932,2.9e-4 z m 2.167413,-1.25136 0.817672,-0.47208 0.818914,0.47293 -0.818211,1.41662 z m -2.166947,3.75314 1.635721,-6.5e-4 -0.818965,1.41705 -0.816481,-0.47132 z m 5.150993,-2.97393 0.818324,0.47278 -6.2e-5,0.94276 -1.636686,7.2e-4 z m -2.167593,3.75202 0.818375,1.41747 -0.817671,0.47208 -0.818696,-0.47255 z m 1.349742,-0.77927 1.636151,10e-5 -1.04e-4,0.94528 -0.817672,0.47209 z"
       id="path4938"
       inkscape:export-xdpi="192.017"
       inkscape:export-ydpi="192.017" />
    <text
       id="text4942"
       y="226.53391"
       x="61.370075"
       style="font-style:normal;font-variant:normal;font-weight:normal;font-stretch:normal;font-size:19.23727608px;line-height:1.25;font-family:'GenEi Antique v5';-inkscape-font-specification:'GenEi Antique v5';letter-spacing:0px;word-spacing:0px;fill:#f9f9ff;fill-opacity:1;stroke:none;stroke-width:0.80618787"
       xml:space="preserve"><tspan
         style="font-style:normal;font-variant:normal;font-weight:normal;font-stretch:normal;font-family:'GenEi Antique v5';-inkscape-font-specification:'GenEi Antique v5';fill:#f9f9ff;fill-opacity:1;stroke-width:0.80618787"
         y="226.53391"
         x="61.370075"
         id="tspan4940"
         sodipodi:role="line">the Himekawa Snow Society</tspan></text>
  </g>
</svg>
