<?xml version="1.0" encoding="UTF-8" standalone="no"?>
<svg
   xmlns:dc="http://purl.org/dc/elements/1.1/"
   xmlns:cc="http://creativecommons.org/ns#"
   xmlns:rdf="http://www.w3.org/1999/02/22-rdf-syntax-ns#"
   xmlns:svg="http://www.w3.org/2000/svg"
   xmlns="http://www.w3.org/2000/svg"
   xmlns:xlink="http://www.w3.org/1999/xlink"
   xmlns:sodipodi="http://sodipodi.sourceforge.net/DTD/sodipodi-0.dtd"
   xmlns:inkscape="http://www.inkscape.org/namespaces/inkscape"
   id="svg8"
   version="1.1"
   viewBox="0 0 317.49999 166.68751"
   height="630"
   width="1200"
   sodipodi:docname="thumb0.svg"
   inkscape:version="0.92.3 (2405546, 2018-03-11)">
  <sodipodi:namedview
     pagecolor="#ffffff"
     bordercolor="#666666"
     borderopacity="1"
     objecttolerance="10"
     gridtolerance="10"
     guidetolerance="10"
     inkscape:pageopacity="0"
     inkscape:pageshadow="2"
     inkscape:window-width="1920"
     inkscape:window-height="965"
     id="namedview46"
     showgrid="false"
     inkscape:snap-center="true"
     inkscape:snap-object-midpoints="true"
     inkscape:zoom="0.13244223"
     inkscape:cx="-860.90926"
     inkscape:cy="1620.2901"
     inkscape:window-x="-8"
     inkscape:window-y="-8"
     inkscape:window-maximized="1"
     inkscape:current-layer="svg8"
     inkscape:snap-page="true" />
  <defs
     id="defs2">
    <filter
       id="filter4771"
       style="color-interpolation-filters:sRGB">
      <feFlood
         id="feFlood4773"
         result="flood"
         flood-color="rgb(0,0,0)"
         flood-opacity="1" />
      <feComposite
         id="feComposite4775"
         result="composite1"
         operator="in"
         in2="SourceGraphic"
         in="flood" />
      <feGaussianBlur
         id="feGaussianBlur4777"
         result="blur"
         stdDeviation="5"
         in="composite1" />
      <feOffset
         id="feOffset4779"
         result="offset"
         dy="0"
         dx="0" />
      <feComposite
         id="feComposite4781"
         result="composite2"
         operator="over"
         in2="offset"
         in="SourceGraphic" />
    </filter>
    <filter
       id="filter4758"
       style="color-interpolation-filters:sRGB">
      <feFlood
         id="feFlood4760"
         result="flood"
         flood-color="rgb(0,0,0)"
         flood-opacity="1" />
      <feComposite
         id="feComposite4762"
         result="composite1"
         operator="in"
         in2="SourceGraphic"
         in="flood" />
      <feGaussianBlur
         id="feGaussianBlur4764"
         result="blur"
         stdDeviation="5"
         in="composite1" />
      <feOffset
         id="feOffset4766"
         result="offset"
         dy="0"
         dx="0" />
      <feComposite
         id="feComposite4768"
         result="composite2"
         operator="over"
         in2="offset"
         in="SourceGraphic" />
    </filter>
    <filter
       id="filter4746"
       style="color-interpolation-filters:sRGB">
      <feFlood
         id="feFlood4748"
         result="flood"
         flood-color="rgb(0,0,0)"
         flood-opacity="1" />
      <feComposite
         id="feComposite4750"
         result="composite1"
         operator="in"
         in2="SourceGraphic"
         in="flood" />
      <feGaussianBlur
         id="feGaussianBlur4752"
         result="blur"
         stdDeviation="5"
         in="composite1" />
      <feOffset
         id="feOffset4754"
         result="offset"
         dy="0"
         dx="0" />
      <feComposite
         id="feComposite4756"
         result="composite2"
         operator="over"
         in2="offset"
         in="SourceGraphic" />
    </filter>
    <filter
       id="filter4734"
       style="color-interpolation-filters:sRGB">
      <feFlood
         id="feFlood4736"
         result="flood"
         flood-color="rgb(0,0,0)"
         flood-opacity="1" />
      <feComposite
         id="feComposite4738"
         result="composite1"
         operator="in"
         in2="SourceGraphic"
         in="flood" />
      <feGaussianBlur
         id="feGaussianBlur4740"
         result="blur"
         stdDeviation="5"
         in="composite1" />
      <feOffset
         id="feOffset4742"
         result="offset"
         dy="0"
         dx="0" />
      <feComposite
         id="feComposite4744"
         result="composite2"
         operator="over"
         in2="offset"
         in="SourceGraphic" />
    </filter>
    <filter
       id="filter4207"
       style="color-interpolation-filters:sRGB">
      <feFlood
         id="feFlood4209"
         result="flood"
         flood-color="rgb(0,0,0)"
         flood-opacity="1" />
      <feComposite
         id="feComposite4211"
         result="composite1"
         operator="in"
         in2="SourceGraphic"
         in="flood" />
      <feGaussianBlur
         id="feGaussianBlur4213"
         result="blur"
         stdDeviation="5"
         in="composite1" />
      <feOffset
         id="feOffset4215"
         result="offset"
         dy="0"
         dx="0" />
      <feComposite
         id="feComposite4217"
         result="composite2"
         operator="over"
         in2="offset"
         in="SourceGraphic" />
    </filter>
    <linearGradient
       gradientTransform="matrix(1.1202807,0,0,0.89263339,-214.30721,39.210234)"
       spreadMethod="reflect"
       gradientUnits="userSpaceOnUse"
       y2="161.0775"
       x2="297.74918"
       y1="173.11845"
       x1="210.52345"
       id="linearGradient4532"
       xlink:href="#linearGradient4530" />
    <linearGradient
       id="linearGradient4530">
      <stop
         id="stop4526"
         offset="0"
         style="stop-color:#a8a100;stop-opacity:1;" />
      <stop
         id="stop4528"
         offset="1"
         style="stop-color:#cad000;stop-opacity:1" />
    </linearGradient>
    <linearGradient
       gradientTransform="scale(1.1202807,0.89263341)"
       spreadMethod="reflect"
       gradientUnits="userSpaceOnUse"
       y2="161.0775"
       x2="297.74918"
       y1="173.11845"
       x1="210.52345"
       id="linearGradient4568"
       xlink:href="#linearGradient4530" />
  </defs>
  <metadata
     id="metadata5">
    <rdf:RDF>
      <cc:Work
         rdf:about="">
        <dc:format>image/svg+xml</dc:format>
        <dc:type
           rdf:resource="http://purl.org/dc/dcmitype/StillImage" />
        <dc:title />
      </cc:Work>
    </rdf:RDF>
  </metadata>
  <rect
     style="fill:#060034;fill-opacity:1;stroke:none;stroke-width:1.85208333;stroke-linejoin:round;stroke-miterlimit:4;stroke-dasharray:none;stroke-opacity:1"
     id="rect4774"
     width="317.5"
     height="166.6875"
     x="-4.9419482e-009"
     y="-1.5033419e-009"
     inkscape:export-filename="C:\Users\tamai\OneDrive\デスクトップ\rect4774.png"
     inkscape:export-xdpi="252.92998"
     inkscape:export-ydpi="252.92998" />
  <g
     transform="matrix(1.5528543,0,0,1.5490285,-426.5775,25.178099)"
     id="g4750"
     style="fill:#f9f9ff;fill-opacity:1;stroke-width:0.64477021">
    <g
       id="g4764"
       style="fill:#f9f9ff;fill-opacity:1;stroke-width:0.64477021"
       transform="translate(-2.0710141e-7,2.579683)">
      <g
         transform="translate(265.75313,-77.939701)"
         id="g4746"
         style="fill:#f9f9ff;fill-opacity:1;stroke-width:0.64477021">
        <g
           transform="matrix(1.2178242,0,0,1.2178242,-8.654132,25.761494)"
           id="g4740"
           style="font-style:normal;font-variant:normal;font-weight:normal;font-stretch:normal;font-size:16.92380905px;line-height:77.78209686px;font-family:UzumasaHonmaruGothic-Cinema;-inkscape-font-specification:'UzumasaHonmaruGothic-Cinema, Normal';font-variant-ligatures:normal;font-variant-caps:normal;font-variant-numeric:normal;font-feature-settings:normal;text-align:start;letter-spacing:-0.60060424px;word-spacing:0px;writing-mode:lr-tb;text-anchor:start;fill:#f9f9ff;fill-opacity:1;stroke:none;stroke-width:0.53571749px;stroke-linecap:butt;stroke-linejoin:miter;stroke-opacity:1"
           aria-label="姫川雪質研究会">
          <path
             inkscape:connector-curvature="0"
             id="path4726"
             style="font-style:normal;font-variant:normal;font-weight:normal;font-stretch:normal;font-size:16.92380905px;font-family:UzumasaHonmaruGothic-Cinema;-inkscape-font-specification:'UzumasaHonmaruGothic-Cinema, Normal';font-variant-ligatures:normal;font-variant-caps:normal;font-variant-numeric:normal;font-feature-settings:normal;text-align:start;letter-spacing:-0.60060424px;writing-mode:lr-tb;text-anchor:start;fill:#f9f9ff;fill-opacity:1;stroke-width:0.53571749px"
             d="m 49.987982,83.586407 c 0,-0.203086 0.05077,-0.270781 0.236934,-0.270781 h 1.455447 c 0.101543,0 0.169238,0.0677 0.169238,0.169238 v 2.555495 c 0,0.101543 -0.0677,0.169238 -0.169238,0.169238 H 50.15722 c -0.101543,0 -0.169238,-0.0677 -0.169238,-0.169238 z m 0,8.224971 c 0,-0.101543 0.0677,-0.169238 0.169238,-0.169238 h 1.523143 c 0.101543,0 0.169238,0.0677 0.169238,0.169238 v 2.893971 c 0,0.101543 -0.0677,0.169238 -0.169238,0.169238 H 50.15722 c -0.101543,0 -0.169238,-0.0677 -0.169238,-0.169238 z m 4.027867,-4.40019 c 0.203085,0 0.253857,0.101543 0.253857,0.304628 v 2.555495 c 0,0.101543 -0.0677,0.169238 -0.169238,0.169238 H 50.15722 c -0.101543,0 -0.169238,-0.0677 -0.169238,-0.169238 v -2.690885 c 0,-0.101543 0.0677,-0.169238 0.169238,-0.169238 z m -5.415619,8.546523 c 0,0.761572 1.0662,0.913886 1.303133,0.321553 0.03385,-0.08462 0.101543,-0.135391 0.186162,-0.135391 h 5.923333 c 0.981581,0 0.812343,-1.489295 -0.05077,-1.489295 -0.135391,0 -0.338476,0.0677 -0.456943,0.169238 -0.03385,0.03385 -0.08462,0.05077 -0.135391,0.05077 H 53.30505 c -0.101543,0 -0.169238,-0.0677 -0.169238,-0.169238 v -2.893971 c 0,-0.101543 0.0677,-0.169238 0.169238,-0.169238 h 0.84619 c 0.08462,0 0.152314,0.05077 0.186162,0.13539 0.236933,0.609258 1.252362,0.456943 1.252362,-0.287704 v -4.010943 c 0,-0.913886 -0.592333,-1.269286 -1.252362,-1.269286 H 53.30505 c -0.101543,0 -0.169238,-0.0677 -0.169238,-0.169238 v -2.555495 c 0,-0.101543 0.0677,-0.169238 0.169238,-0.169238 h 2.420104 c 0.761572,0 0.761572,-1.269286 0,-1.269286 h -5.804866 c -0.693876,0 -1.320057,0.406172 -1.320057,1.336981 z m -0.964657,-8.868076 c 0.08462,-0.778495 -1.167743,-0.795419 -1.218515,-0.186162 -0.13539,1.320057 -0.507714,2.690886 -0.998504,3.960172 -0.05077,0.13539 -0.152315,0.169238 -0.253857,0.08462 -0.338477,-0.270781 -0.660029,-0.490791 -0.863115,-0.626181 -0.0677,-0.05077 -0.08462,-0.135391 -0.05077,-0.203086 0.507714,-1.4216 0.795419,-2.792428 0.998505,-4.04479 0.01692,-0.08462 0.08462,-0.135391 0.169238,-0.135391 h 1.641609 c 0.507714,0.05077 0.998505,-0.101543 1.015429,-0.676952 0,-0.473867 -0.57541,-0.778495 -0.964657,-0.558486 -0.03385,0.01692 -0.0677,0.03385 -0.101543,0.03385 h -1.353905 c -0.118467,0 -0.186162,-0.08462 -0.169238,-0.203086 0.118467,-0.913886 0.203086,-1.810847 0.253857,-2.657038 0.03385,-0.778495 -1.235438,-0.84619 -1.286209,-0.0677 -0.05077,0.913886 -0.101543,1.844695 -0.236934,2.775505 -0.01692,0.08462 -0.08462,0.13539 -0.169238,0.13539 h -1.387752 c -0.761572,0 -0.744648,1.20159 0.01692,1.20159 h 1.133895 c 0.118467,0 0.186162,0.08462 0.169238,0.203086 -0.253857,1.404676 -0.660029,2.978591 -1.252362,4.518657 -0.253857,0.660029 0.473867,1.133895 0.913886,0.795419 0.0677,-0.05077 0.152314,-0.0677 0.236933,-0.01692 0.338476,0.236934 0.592333,0.440019 0.829267,0.643105 0.0677,0.05077 0.08462,0.135391 0.05077,0.203086 -0.896962,1.641609 -1.793924,2.470876 -2.62319,3.283219 -0.287705,0.270781 -0.270781,0.693876 -0.05077,0.913885 0.507715,0.541562 0.998505,0.01692 1.370829,-0.355399 0.863114,-0.896962 1.607762,-1.827772 2.233943,-3.012439 0.0677,-0.118466 0.169238,-0.13539 0.270781,-0.05077 0.507714,0.456943 1.083123,1.083124 1.20159,1.201591 0.304629,0.253857 0.660029,0.236933 0.863114,0.05077 0.643105,-0.541562 -0.03385,-1.083124 -0.473866,-1.472371 L 46.46783,91.845226 c -0.05077,-0.05077 -0.0677,-0.135391 -0.03385,-0.203086 0.609257,-1.438524 1.032353,-2.910895 1.201591,-4.552505 z" />
          <path
             inkscape:connector-curvature="0"
             id="path4728"
             style="font-style:normal;font-variant:normal;font-weight:normal;font-stretch:normal;font-size:16.92380905px;font-family:UzumasaHonmaruGothic-Cinema;-inkscape-font-specification:'UzumasaHonmaruGothic-Cinema, Normal';font-variant-ligatures:normal;font-variant-caps:normal;font-variant-numeric:normal;font-feature-settings:normal;text-align:start;letter-spacing:-0.60060424px;writing-mode:lr-tb;text-anchor:start;fill:#f9f9ff;fill-opacity:1;stroke-width:0.53571749px"
             d="m 69.88211,95.856168 c 0,0.896962 1.404676,0.896962 1.404676,0 V 82.147883 c 0,-0.896962 -1.404676,-0.896962 -1.404676,0 z m -4.840209,-1.777 c 0,0.896962 1.438523,0.896962 1.438523,0 v -11.15279 c 0,-0.880038 -1.438523,-0.880038 -1.438523,0 z m -6.938762,2.657038 c 0.761571,0.507715 1.150819,-0.338476 1.540066,-1.0662 1.709305,-3.266295 2.369334,-6.329504 2.318562,-10.120437 v -3.384762 c 0.01692,-0.880038 -1.404676,-0.880038 -1.404676,0 v 3.367838 c 0,4.535581 -0.880038,7.006457 -2.640114,10.205057 -0.236933,0.423095 -0.08462,0.812343 0.186162,0.998504 z" />
          <path
             inkscape:connector-curvature="0"
             id="path4730"
             style="font-style:normal;font-variant:normal;font-weight:normal;font-stretch:normal;font-size:16.92380905px;font-family:UzumasaHonmaruGothic-Cinema;-inkscape-font-specification:'UzumasaHonmaruGothic-Cinema, Normal';font-variant-ligatures:normal;font-variant-caps:normal;font-variant-numeric:normal;font-feature-settings:normal;text-align:start;letter-spacing:-0.60060424px;writing-mode:lr-tb;text-anchor:start;fill:#f9f9ff;fill-opacity:1;stroke-width:0.53571749px"
             d="m 83.632895,85.938816 c -0.643105,0 -0.609257,1.049276 0.05077,1.049276 h 2.538572 c 0.626181,0 0.626181,-1.049276 0,-1.049276 z m 0.01692,1.861619 c -0.676953,0 -0.626181,1.083124 0.05077,1.083124 h 2.470876 c 0.676953,0 0.676953,-1.083124 0,-1.083124 z m -8.30959,-0.84619 c 0,0.863114 1.320057,0.863114 1.320057,0 v -1.692381 c 0,-0.135391 0.03385,-0.186162 0.186162,-0.186162 h 4.247876 c 0.101542,0 0.169238,0.06769 0.169238,0.169238 v 3.503229 c 0,0.829266 1.320057,0.84619 1.320057,0 V 85.24494 c 0,-0.101543 0.0677,-0.169238 0.169238,-0.169238 h 4.40019 c 0.152315,0 0.186162,0.05077 0.186162,0.186162 v 1.692381 c 0,0.863114 1.320057,0.863114 1.320057,0 v -1.861619 c 0,-0.829267 -0.541562,-1.150819 -1.235438,-1.150819 h -4.670971 c -0.101543,0 -0.169238,-0.0677 -0.169238,-0.169238 v -0.643105 c 0,-0.101543 0.0677,-0.169238 0.169238,-0.169238 h 4.197105 c 0.744647,0 0.744647,-1.201591 0,-1.201591 h -9.900429 c -0.727724,0 -0.676952,1.201591 0.05077,1.201591 h 3.994019 c 0.101542,0 0.169238,0.0677 0.169238,0.169238 v 0.643105 c 0,0.101543 -0.0677,0.169238 -0.169238,0.169238 h -4.535581 c -0.626181,0 -1.218514,0.321552 -1.218514,1.150819 z m 2.487799,0.829266 c -0.676952,0 -0.62618,1.083124 0.05077,1.083124 h 2.318562 c 0.676952,0 0.676952,-1.083124 0,-1.083124 z m -0.01692,-1.878542 c -0.676953,0 -0.626181,1.083123 0.05077,1.083123 h 2.318562 c 0.676952,0 0.676952,-1.083123 0,-1.083123 z m -0.57541,9.105009 c -0.7108,0 -0.660028,1.184667 0.05077,1.184667 h 8.241895 c 0.08462,0 0.152314,0.05077 0.186162,0.118466 0.253857,0.558486 1.269285,0.406172 1.269285,-0.321552 v -4.755591 c 0,-0.913885 -0.558486,-1.269285 -1.218514,-1.269285 h -8.275743 c -0.744647,0 -0.693876,1.150819 0.03385,1.150819 h 7.937266 c 0.152315,0 0.186162,0.08462 0.186162,0.13539 v 0.947734 c 0,0.101542 -0.0677,0.169238 -0.169238,0.169238 H 77.92957 c -0.744647,0 -0.693876,1.218514 0.05077,1.218514 h 7.497247 c 0.101543,0 0.169238,0.0677 0.169238,0.169238 v 1.0662 c 0,0.101543 -0.0677,0.169238 -0.169238,0.169238 z" />
          <path
             inkscape:connector-curvature="0"
             id="path4732"
             style="font-style:normal;font-variant:normal;font-weight:normal;font-stretch:normal;font-size:16.92380905px;font-family:UzumasaHonmaruGothic-Cinema;-inkscape-font-specification:'UzumasaHonmaruGothic-Cinema, Normal';font-variant-ligatures:normal;font-variant-caps:normal;font-variant-numeric:normal;font-feature-settings:normal;text-align:start;letter-spacing:-0.60060424px;writing-mode:lr-tb;text-anchor:start;fill:#f9f9ff;fill-opacity:1;stroke-width:0.53571749px"
             d="m 100.10842,95.68693 c 1.72623,0.3554 2.87704,0.778495 4.09556,1.218515 0.37232,0.08462 0.69388,-0.08462 0.79542,-0.372324 0.2877,-0.744648 -0.52464,-0.93081 -1.08313,-1.100048 -0.6431,-0.203086 -1.59083,-0.473867 -2.91089,-0.727724 -0.57541,-0.118466 -1.218515,-0.321552 -1.353906,0.3554 -0.05077,0.236934 0.08462,0.541562 0.456946,0.626181 z m -8.800384,0.693876 c 0.05077,0.761572 0.829267,0.592334 1.336981,0.507715 1.28621,-0.22001 2.420105,-0.541562 3.367838,-0.880038 0.558486,-0.203086 1.252362,-0.389248 1.015429,-1.032353 -0.101543,-0.270781 -0.423095,-0.456943 -0.778495,-0.321552 -1.929315,0.727724 -3.147829,0.880038 -4.417114,1.0662 -0.389248,0.0677 -0.541562,0.3554 -0.524639,0.660028 z M 101.78387,86.361911 c 0,0.778496 1.25237,0.778496 1.25237,0 v -1.286209 c 0,-0.101543 0.0677,-0.169238 0.16923,-0.169238 h 1.86162 c 0.67696,0 0.7108,-1.116971 0.0339,-1.116971 h -4.73867 c -0.11846,0 -0.18616,-0.0677 -0.16923,-0.186162 0.0169,-0.101543 0.0338,-0.22001 0.0338,-0.338477 0,-0.101542 0.0846,-0.203085 0.20309,-0.203085 1.21851,-0.0677 2.45395,-0.253857 3.63862,-0.626181 0.77849,-0.253857 0.38925,-1.472372 -0.38925,-1.218514 -1.28621,0.440019 -2.31856,0.609257 -3.53708,0.727723 -0.676948,0.0677 -1.184662,0.203086 -1.184662,1.100048 0,0.947733 -0.253857,2.064705 -0.84619,2.944743 -0.236934,0.338476 -0.152315,0.676952 0.118466,0.863114 0.626181,0.440019 0.998505,-0.152314 1.303134,-0.744648 0.169238,-0.338476 0.287704,-0.7108 0.389247,-1.0662 0.01692,-0.0677 0.08461,-0.118466 0.152315,-0.118466 h 1.54007 c 0.10154,0 0.16923,0.0677 0.16923,0.169238 z m -6.583357,0.03385 c 0.01692,0.744648 1.252361,0.744648 1.252361,0 v -1.353905 c 0,-0.101542 0.0677,-0.169238 0.169238,-0.169238 h 0.998505 c 0.693876,0 0.727724,-1.100047 0.03385,-1.100047 h -3.604772 c -0.118466,0 -0.186161,-0.0677 -0.186161,-0.186162 v -0.389248 c 0,-0.0677 0.01692,-0.118466 0.13539,-0.13539 1.252362,-0.08462 2.335486,-0.304629 3.401686,-0.643105 0.778495,-0.253857 0.406171,-1.455448 -0.3554,-1.218514 -1.303134,0.423095 -1.980086,0.609257 -3.300143,0.727724 -0.57541,0.05077 -1.167743,0.287704 -1.167743,1.100047 0,0.880038 -0.01692,2.640114 -1.370828,4.180181 -0.270781,0.304629 -0.22001,0.693876 0,0.896962 0.575409,0.524638 1.049276,-0.05077 1.4216,-0.558486 0.592333,-0.829267 0.896961,-1.726228 1.049276,-2.521647 0.01692,-0.08462 0.08462,-0.135391 0.169238,-0.135391 h 1.167743 c 0.101542,0 0.169238,0.0677 0.169238,0.169238 z m -0.01692,1.777 h 6.498737 c 0.13539,0 0.22001,0.118467 0.22001,0.186162 v 0.609257 c 0,0.101543 -0.0677,0.169238 -0.16924,0.169238 h -6.600279 c -0.101543,0 -0.169238,-0.0677 -0.169238,-0.169238 v -0.592333 c 0,-0.0677 0.08462,-0.203086 0.22001,-0.203086 z m -0.203086,2.115476 c 0,-0.101543 0.0677,-0.169238 0.169238,-0.169238 h 6.600285 c 0.10154,0 0.16923,0.0677 0.16923,0.169238 v 0.643105 c 0,0.101543 -0.0677,0.169238 -0.16923,0.169238 h -6.600285 c -0.101543,0 -0.169238,-0.0677 -0.169238,-0.169238 z m 0,1.980086 c 0,-0.101543 0.0677,-0.169238 0.169238,-0.169238 h 6.600285 c 0.10154,0 0.16923,0.0677 0.16923,0.169238 v 0.7108 c 0,0.101543 -0.0677,0.169238 -0.16923,0.169238 h -6.600285 c -0.101543,0 -0.169238,-0.0677 -0.169238,-0.169238 z m -1.303133,1.709305 c 0,0.727723 0.998504,0.896961 1.218514,0.372323 0.03385,-0.08462 0.101543,-0.13539 0.186162,-0.13539 h 6.70182 c 0.0846,0 0.15232,0.05077 0.18617,0.13539 0.23693,0.541562 1.25236,0.372324 1.25236,-0.3554 v -5.855638 c 0,-0.7108 -0.50772,-1.015428 -1.18467,-1.015428 h -7.17569 c -0.558485,0 -1.184666,0.287705 -1.184666,1.015428 z" />
          <path
             inkscape:connector-curvature="0"
             id="path4734"
             style="font-style:normal;font-variant:normal;font-weight:normal;font-stretch:normal;font-size:16.92380905px;font-family:UzumasaHonmaruGothic-Cinema;-inkscape-font-specification:'UzumasaHonmaruGothic-Cinema, Normal';font-variant-ligatures:normal;font-variant-caps:normal;font-variant-numeric:normal;font-feature-settings:normal;text-align:start;letter-spacing:-0.60060424px;writing-mode:lr-tb;text-anchor:start;fill:#f9f9ff;fill-opacity:1;stroke-width:0.53571749px"
             d="m 118.85172,96.059254 c 0,0.896962 1.38775,0.896962 1.38775,0 V 88.93433 c 0,-0.101542 0.0677,-0.169238 0.16924,-0.169238 h 1.4893 c 0.98158,0 0.89696,-1.455447 0,-1.472371 -0.15232,0 -0.30463,0.08462 -0.4231,0.169238 -0.0339,0.01692 -0.0846,0.03385 -0.11846,0.03385 h -0.94774 c -0.10154,0 -0.16924,-0.0677 -0.16924,-0.169238 v -3.977096 c 0,-0.101542 0.0677,-0.169238 0.16924,-0.169238 h 0.84619 c 0.79542,0 0.81235,-1.252361 0,-1.252361 h -6.70183 c -0.81234,0 -0.79541,1.252361 0.0169,1.252361 h 4.11248 c 0.10155,0 0.16924,0.0677 0.16924,0.169238 v 3.977096 c 0,0.101542 -0.0677,0.169238 -0.16924,0.169238 h -1.74315 c -0.10154,0 -0.16924,-0.0677 -0.16924,-0.169238 0.0169,-0.490791 0,-1.116972 0,-2.8432 0,-0.863115 -1.38775,-0.913886 -1.38775,0 0,1.760076 0.0169,2.369333 0,2.860123 0,0.101543 -0.0677,0.169239 -0.16924,0.169239 h -1.47237 c -0.79542,0 -0.76157,1.269285 0.0169,1.269285 h 1.3539 c 0.10154,0 0.16924,0.0677 0.15231,0.169238 -0.18616,2.115476 -0.84619,4.501733 -2.72473,6.600286 -0.2877,0.321552 -0.20308,0.761571 0.0339,0.981581 0.62618,0.575409 1.11697,-0.0677 1.54007,-0.609257 1.79392,-2.284715 2.38625,-4.823286 2.58934,-7.023381 0,-0.08462 0.0677,-0.152314 0.16924,-0.152314 h 1.81084 c 0.10155,0 0.16924,0.0677 0.16924,0.169238 z m -8.98654,-7.497247 c 0,-0.169238 0.0339,-0.22001 0.15231,-0.22001 h 1.23544 c 0.11847,0 0.16924,0.05077 0.16924,0.186162 v 4.180181 c 0,0.101543 -0.0677,0.169238 -0.16924,0.169238 h -1.21851 c -0.10155,0 -0.16924,-0.0677 -0.16924,-0.169238 z m -1.30313,5.314076 c 0,0.727723 0.98158,0.863114 1.23543,0.321552 0.0339,-0.0677 0.10155,-0.118467 0.18617,-0.118467 h 1.33698 c 0.0846,0 0.15231,0.05077 0.18616,0.118467 0.25386,0.507714 1.20159,0.3554 1.20159,-0.3554 v -5.551009 c 0,-0.846191 -0.55849,-1.201591 -1.16774,-1.201591 h -1.32006 c -0.15231,0 -0.22001,-0.08462 -0.16924,-0.220009 0.38925,-1.049276 0.69388,-2.318562 0.93081,-3.469381 0.0169,-0.08462 0.0846,-0.135391 0.16924,-0.135391 h 1.55699 c 0.81234,0 0.81234,-1.252361 0,-1.252361 h -4.53558 c -0.79542,0 -0.76157,1.252361 0.0339,1.252361 h 1.26928 c 0.11847,0 0.18616,0.08462 0.16924,0.203086 -0.6431,3.350914 -1.59084,4.84021 -2.72473,6.634133 -0.20309,0.321553 -0.10155,0.676953 0.15231,0.880038 0.45694,0.3554 0.81234,0.05077 1.15082,-0.507714 0.22001,-0.372324 0.33848,-0.3554 0.33848,0.0677 z" />
          <path
             inkscape:connector-curvature="0"
             id="path4736"
             style="font-style:normal;font-variant:normal;font-weight:normal;font-stretch:normal;font-size:16.92380905px;font-family:UzumasaHonmaruGothic-Cinema;-inkscape-font-specification:'UzumasaHonmaruGothic-Cinema, Normal';font-variant-ligatures:normal;font-variant-caps:normal;font-variant-numeric:normal;font-feature-settings:normal;text-align:start;letter-spacing:-0.60060424px;writing-mode:lr-tb;text-anchor:start;fill:#f9f9ff;fill-opacity:1;stroke-width:0.53571749px"
             d="m 124.32677,85.498797 c 0.0169,0.846191 1.38775,0.846191 1.38775,0 v -0.947733 c 0,-0.253857 0.0339,-0.321552 0.30463,-0.321552 h 5.28023 c 0.10154,0 0.16924,0.0677 0.16924,0.169238 v 1.692381 c 0,1.980085 1.92931,2.030857 2.47088,2.04778 0.16923,0 0.33847,0.01692 0.54156,0.01692 0.37232,0 0.77849,-0.01692 1.21851,-0.08462 0.45694,-0.0677 0.62618,-0.609257 0.4231,-0.930809 -0.15232,-0.270781 -0.25386,-0.541562 -0.25386,-0.829267 v -0.829267 c 0,-0.575409 -0.88004,-0.575409 -0.88004,0 v 1.28621 c 0,0.101543 -0.0677,0.169238 -0.16924,0.169238 -0.2877,0.01692 -0.60925,0.01692 -0.86311,0 -1.15082,-0.03385 -1.23544,-0.338476 -1.23544,-0.778495 v -1.743153 c 0,-0.101542 0.0677,-0.169238 0.16924,-0.169238 h 3.01244 c 0.2877,0 0.32155,0.0677 0.32155,0.389248 v 0.812343 c 0,0.84619 1.38775,0.84619 1.38775,0 v -1.167743 c 0,-0.913886 -0.60925,-1.303133 -1.30313,-1.303133 h -4.56943 c -0.10154,0 -0.16924,-0.0677 -0.16924,-0.169238 v -0.947734 c 0,-0.84619 -1.40467,-0.84619 -1.40467,0 v 0.947734 c 0,0.101542 -0.0677,0.169238 -0.16924,0.169238 h -4.40019 c -0.66003,0 -1.30314,0.304628 -1.28621,1.269285 z m 0.47387,2.826276 c 0.16924,0.727724 0.86311,0.490791 1.37083,0.338477 1.81084,-0.57541 2.99551,-1.827772 3.63862,-3.097058 0.2877,-0.558485 -0.81235,-1.116971 -1.11698,-0.541561 -0.69387,1.303133 -1.997,2.149323 -3.40168,2.538571 -0.4231,0.118467 -0.55849,0.456943 -0.49079,0.761571 z m 0.89696,1.353905 c -0.84619,0.01692 -0.81234,1.303133 0.0169,1.303133 h 3.13091 c 0.15231,0 0.22001,0.08462 0.16924,0.22001 -0.86312,2.217019 -2.47088,3.283219 -4.60328,4.129409 -0.44002,0.186162 -0.54156,0.57541 -0.42309,0.880038 0.2877,0.761572 0.98158,0.440019 1.57391,0.169238 2.26779,-1.049276 4.09556,-2.657038 4.9079,-5.297152 0.0169,-0.0677 0.0846,-0.118466 0.15232,-0.118466 h 1.69238 c 0.22001,0 0.27078,0.0677 0.27078,0.3554 v 2.555495 c 0,2.318562 2.16625,2.352409 2.94474,2.369333 0.66003,0 1.32006,-0.03385 1.98009,-0.101543 0.54156,-0.0677 0.74465,-0.609257 0.52464,-1.015428 -0.18616,-0.338477 -0.30463,-0.744648 -0.30463,-1.150819 v -1.540067 c 0,-0.57541 -0.89696,-0.57541 -0.89696,0 v 2.26779 c 0,0.08462 -0.0677,0.152315 -0.15232,0.152315 -0.30463,0.01692 -0.69387,0.01692 -1.13389,0.01692 -1.45545,-0.01692 -1.55699,-0.389247 -1.55699,-0.964657 v -2.995514 c 0,-0.913886 -0.60926,-1.269286 -1.26929,-1.269286 h -1.7093 c -0.13539,0 -0.20309,-0.08462 -0.18617,-0.220009 0.0339,-0.270781 0.0677,-0.744648 0.0677,-1.523143 0,-0.829267 -1.32006,-0.812343 -1.32006,0 0,0.57541 -0.0169,1.049276 -0.10154,1.590838 -0.0169,0.08462 -0.0846,0.135391 -0.16924,0.135391 z" />
          <path
             inkscape:connector-curvature="0"
             id="path4738"
             style="font-style:normal;font-variant:normal;font-weight:normal;font-stretch:normal;font-size:16.92380905px;font-family:UzumasaHonmaruGothic-Cinema;-inkscape-font-specification:'UzumasaHonmaruGothic-Cinema, Normal';font-variant-ligatures:normal;font-variant-caps:normal;font-variant-numeric:normal;font-feature-settings:normal;text-align:start;letter-spacing:-0.60060424px;writing-mode:lr-tb;text-anchor:start;fill:#f9f9ff;fill-opacity:1;stroke-width:0.53571749px"
             d="m 141.88541,88.172759 c 1.98009,-1.336981 3.80786,-2.97859 5.24639,-5.026371 0.0846,-0.118467 0.20308,-0.118467 0.2877,0 1.43852,1.946238 3.41861,3.774009 5.63563,5.11099 0.6431,0.389248 1.32006,0.863114 1.72623,0.169238 0.18616,-0.321552 0.15231,-0.778495 -0.32156,-1.032352 -2.64011,-1.4216 -4.9079,-3.570924 -6.38027,-5.618705 -0.0169,-0.03385 -0.0339,-0.08462 -0.0339,-0.118466 0.0339,-0.660029 -0.88004,-0.981581 -1.25236,-0.372324 -1.55699,2.572419 -3.99402,4.670971 -6.49874,6.244885 -0.37233,0.236934 -0.44002,0.660029 -0.25386,0.964657 0.42309,0.693877 1.15082,0.152315 1.84469,-0.321552 z m 8.34344,-0.101543 c 0.84619,0 0.86312,-1.336981 0.0169,-1.336981 h -5.83872 c -0.84619,0 -0.79542,1.336981 0.0339,1.336981 z m -8.78345,1.675457 c -0.8462,0 -0.81235,1.28621 0.0338,1.28621 h 3.58785 c 0.15231,0 0.22001,0.08462 0.16924,0.220009 -0.32155,0.812343 -0.98158,2.217019 -1.67546,3.520153 -0.0339,0.05077 -0.0846,0.08462 -0.13539,0.08462 -0.9985,0.0677 -1.72623,0.101542 -1.76008,0.101542 -0.38924,0 -0.60925,0.287705 -0.62618,0.57541 -0.0338,0.84619 0.79542,0.727724 1.32006,0.693876 1.64161,-0.101543 6.0418,-0.3554 8.54652,-0.947733 0.0508,-0.01692 0.84619,1.100047 0.84619,1.100047 0.27079,0.406172 0.66003,0.389248 0.93081,0.203086 0.66003,-0.456943 0.18617,-1.015428 -0.13539,-1.506219 -0.42309,-0.626181 -1.11697,-1.607762 -2.14932,-2.775505 -0.44002,-0.49079 -0.98158,-1.116971 -1.55699,-0.541561 -0.22001,0.186161 -0.25386,0.575409 0.0846,0.930809 0.42309,0.440019 0.69387,0.795419 0.9985,1.184667 0.10155,0.13539 0.0677,0.236933 -0.0846,0.270781 -1.25236,0.253857 -2.92781,0.440019 -4.31557,0.558485 -0.18616,0.01692 -0.25385,-0.08462 -0.16923,-0.253857 0.7108,-1.4216 1.30313,-2.826276 1.48929,-3.317066 0.0339,-0.0677 0.10154,-0.118467 0.16924,-0.118467 h 6.31258 c 0.9985,0 0.77849,-1.472371 -0.0846,-1.472371 -0.13539,0 -0.32155,0.05077 -0.44002,0.13539 -0.0339,0.01692 -0.0846,0.03385 -0.11847,0.03385 z" />
        </g>
        <text
           xml:space="preserve"
           style="font-style:normal;font-variant:normal;font-weight:500;font-stretch:normal;font-size:8.78284931px;line-height:1.25;font-family:'GenEi Antique v5';-inkscape-font-specification:'GenEi Antique v5 Medium';text-align:center;letter-spacing:0px;word-spacing:0px;text-anchor:middle;fill:#f9f9ff;fill-opacity:1;stroke:none;stroke-width:0.17059542"
           x="111.06223"
           y="152.75424"
           id="text4744"><tspan
             sodipodi:role="line"
             id="tspan4742"
             x="111.06223"
             y="152.75424"
             style="font-style:normal;font-variant:normal;font-weight:500;font-stretch:normal;font-family:'GenEi Antique v5';-inkscape-font-specification:'GenEi Antique v5 Medium';text-align:center;text-anchor:middle;fill:#f9f9ff;fill-opacity:1;stroke-width:0.17059542">the Himekawa Snow Society</tspan></text>
      </g>
      <path
         style="color:#000000;font-style:normal;font-variant:normal;font-weight:normal;font-stretch:normal;font-size:medium;line-height:normal;font-family:sans-serif;font-variant-ligatures:normal;font-variant-position:normal;font-variant-caps:normal;font-variant-numeric:normal;font-variant-alternates:normal;font-feature-settings:normal;text-indent:0;text-align:start;text-decoration:none;text-decoration-line:none;text-decoration-style:solid;text-decoration-color:#000000;letter-spacing:normal;word-spacing:normal;text-transform:none;writing-mode:lr-tb;direction:ltr;text-orientation:mixed;dominant-baseline:auto;baseline-shift:baseline;text-anchor:start;white-space:normal;shape-padding:0;clip-rule:nonzero;display:inline;overflow:visible;visibility:visible;opacity:1;isolation:auto;mix-blend-mode:normal;color-interpolation:sRGB;color-interpolation-filters:linearRGB;solid-color:#000000;solid-opacity:1;vector-effect:none;fill:#f9f9ff;fill-opacity:1;fill-rule:evenodd;stroke:none;stroke-width:1.19416809;stroke-linecap:round;stroke-linejoin:miter;stroke-miterlimit:4;stroke-dasharray:none;stroke-dashoffset:0;stroke-opacity:1;color-rendering:auto;image-rendering:auto;shape-rendering:auto;text-rendering:auto;enable-background:accumulate"
         d="m 363.85605,0.51700511 a 1.578817,1.5827164 29.999962 0 0 -0.7851,1.70505699 l 0.79921,4.1888658 -4.30421,-2.4759263 a 1.578817,1.5827164 29.999962 0 0 -1.64998,0.022974 1.578817,1.5827164 29.999962 0 0 0.0716,2.7186211 l 4.30022,2.4742704 -4.0405,1.4056379 a 1.578817,1.5827164 29.999962 0 0 -0.28783,0.128026 1.578817,1.5827164 29.999962 0 0 1.31921,2.858202 l 6.63237,-2.307861 1.69567,0.976021 -0.002,1.918985 -3.30866,0.0043 a 1.5788174,1.5827168 29.999962 0 0 -0.76061,0.182516 1.5788174,1.5827168 29.999962 0 0 0.7576,2.979533 l 3.3079,-0.0038 -0.002,1.916998 -1.71869,0.99474 -6.61541,-2.280118 a 1.578817,1.5827164 29.999962 0 0 -1.36786,0.144995 1.578817,1.5827164 29.999962 0 0 0.33513,2.847238 l 4.02284,1.38612 -4.30669,2.492611 a 1.5788174,1.5827168 29.999962 1 0 1.57628,2.736936 l 4.30669,-2.492612 -0.81398,4.185518 a 1.5789495,1.5828493 29.999962 0 0 3.10128,0.599452 l 1.33799,-6.883204 1.7187,-0.994741 1.65541,0.95555 -1.65736,2.86795 a 1.5796687,1.5835703 29.999962 0 0 2.73491,1.581449 l 1.65762,-2.871041 1.65916,0.958575 -0.005,1.955516 -5.31101,4.605698 a 1.5799365,1.5838387 29.999962 0 0 2.06579,2.391451 l 3.23425,-2.803798 -0.0137,4.96686 a 1.578817,1.5827164 29.999962 1 0 3.15944,0.0036 l 0.0126,-4.977483 3.21789,2.787935 a 1.5791118,1.583012 29.999962 1 0 2.07034,-2.394913 l -5.27789,-4.569748 0.005,-1.963357 1.66372,-0.962922 1.6458,2.85765 a 1.5799812,1.5838834 29.999962 1 0 2.73998,-1.585832 l -1.64577,-2.857598 1.66064,-0.961138 1.70223,0.978497 1.30822,6.864143 a 1.57911,1.5830102 29.999962 1 0 3.1041,-0.59994 l -0.79863,-4.186122 4.30618,2.475842 a 1.578817,1.5827164 29.999962 1 0 1.57578,-2.744291 l -4.29764,-2.471582 4.03929,-1.405958 a 1.5799365,1.5838387 29.999962 1 0 -1.03306,-2.989142 l -6.63388,2.308688 -1.692,-0.973139 0.002,-1.920176 3.30787,-0.0038 a 1.579867,1.583769 29.999962 1 0 0.002,-3.165528 l -3.30623,0.0049 10e-4,-1.914496 1.71564,-0.992972 6.6184,2.278234 a 1.5789489,1.5828487 29.999962 1 0 1.03277,-2.992133 l -4.02438,-1.3852243 4.30822,-2.4934933 a 1.578817,1.5827164 29.999962 1 0 -1.57627,-2.7369183 l -4.30821,2.4934933 0.8155,-4.1864475 a 1.578817,1.5827164 29.999962 0 0 -2.33569,-1.68935197 1.578817,1.5827164 29.999962 0 0 -0.76563,1.08981757 l -1.34099,6.8850886 -1.71487,0.9925303 -1.65828,-0.9570494 1.65842,-2.8695522 a 1.5788174,1.5827168 29.999962 0 0 -2.10044,-2.2023109 1.5788174,1.5827168 29.999962 0 0 -0.63348,0.6243155 l -1.65768,2.8691039 -1.65947,-0.9573319 0.005,-1.9594261 5.30987,-4.60405042 a 1.578817,1.5827164 29.999962 0 0 -1.85004,-2.55097038 1.578817,1.5827164 29.999962 0 0 -0.21404,0.1624492 l -3.23456,2.80501356 0.0126,-4.97042536 a 1.578817,1.5827164 29.999962 0 0 -2.35328,-1.3980548 1.578817,1.5827164 29.999962 0 0 -0.80358,1.3970626 L 375.265,-0.18630233 372.04679,-2.97302 a 1.578817,1.5827164 29.999962 0 0 -1.90778,-0.1435095 1.578817,1.5827164 29.999962 0 0 -0.16255,2.53840822 l 5.27621,4.56860488 -0.006,1.9701674 -1.65911,0.9602508 -1.64619,-2.8583258 a 1.5788174,1.5827168 29.999962 0 0 -2.19111,-0.5824074 1.5788174,1.5827168 29.999962 0 0 -0.54886,2.1682395 l 1.64619,2.8583258 -1.66218,0.9620302 -1.701,-0.9781247 -1.30965,-6.8683859 a 1.578817,1.5827164 29.999962 0 0 -2.31902,-1.10512944 z m 6.90817,11.68730889 1.65987,-0.960692 1.65766,2.878244 -3.31889,0.0041 z m 4.39988,-2.546544 1.65988,-0.9607019 1.66034,0.9588661 -1.66342,2.8785908 z m 6.05264,1.577052 1.65875,0.957878 -0.002,1.915709 -3.32045,0.005 z m -10.4569,6.053254 3.31695,-0.0041 -1.66268,2.878187 -1.65582,-0.95635 z m 6.05126,1.572841 1.6572,2.877447 -1.65987,0.960692 -1.65988,-0.958078 z m 2.74101,-1.58412 3.31811,-0.0037 -0.002,1.918944 -1.6599,0.960712 z"
         id="path4748"
         inkscape:connector-curvature="0" />
    </g>
  </g>
</svg>
