<svg xmlns="http://www.w3.org/2000/svg" width="1200" height="630" viewBox="0 0 317.5 166.688"><defs><linearGradient id="a"><stop offset="0" stop-color="#a8a100"/><stop offset="1" stop-color="#cad000"/></linearGradient></defs><path fill="#060034" d="M0 0h317.5v166.688H0z"/><g fill="#f9f9ff" stroke-width=".645"><g word-spacing="0"><g aria-label="姫川雪質研究会" style="line-height:77.78209686px;-inkscape-font-specification:'UzumasaHonmaruGothic-Cinema, Normal';font-variant-ligatures:normal;font-variant-caps:normal;font-variant-numeric:normal;font-feature-settings:normal;text-align:start" font-weight="400" font-size="16.924" font-family="UzumasaHonmaruGothic-Cinema" letter-spacing="-.601" stroke-width=".536"><path d="M67.192 106.03c0-.383.096-.511.448-.511h2.753c.192 0 .32.128.32.32v4.82c0 .191-.128.32-.32.32h-2.88c-.193 0-.32-.129-.32-.32zm0 15.516c0-.192.128-.32.32-.32h2.88c.193 0 .32.128.32.32v5.459c0 .192-.127.32-.32.32h-2.88c-.192 0-.32-.129-.32-.32zm7.617-8.301c.384 0 .48.191.48.575v4.82c0 .192-.128.32-.32.32h-7.457c-.192 0-.32-.128-.32-.32v-5.076c0-.191.128-.32.32-.32zm-10.241 16.122c0 1.437 2.016 1.724 2.464.607.064-.16.192-.255.352-.255h11.202c1.856 0 1.536-2.81-.096-2.81-.256 0-.64.128-.864.32a.364.364 0 0 1-.256.095h-3.905c-.192 0-.32-.128-.32-.32v-5.458c0-.192.128-.32.32-.32h1.6c.16 0 .288.096.352.256.449 1.15 2.369.862 2.369-.543v-7.566c0-1.724-1.12-2.395-2.369-2.395h-1.952c-.192 0-.32-.128-.32-.32v-4.82c0-.191.128-.32.32-.32h4.577c1.44 0 1.44-2.394 0-2.394H67.064c-1.312 0-2.496.767-2.496 2.523zm-1.824-16.729c.16-1.468-2.209-1.5-2.305-.35-.256 2.49-.96 5.075-1.888 7.47-.096.255-.288.319-.48.16-.64-.511-1.248-.926-1.632-1.182a.304.304 0 0 1-.096-.383c.96-2.682 1.504-5.268 1.888-7.63a.311.311 0 0 1 .32-.256h3.104c.96.096 1.889-.191 1.92-1.277 0-.894-1.087-1.468-1.824-1.053-.064.032-.128.064-.192.064H59c-.224 0-.352-.16-.32-.383.224-1.724.384-3.417.48-5.013.064-1.468-2.336-1.596-2.432-.128-.096 1.724-.192 3.48-.448 5.236a.311.311 0 0 1-.32.256h-2.625c-1.44 0-1.408 2.266.032 2.266h2.145c.224 0 .352.16.32.384-.48 2.65-1.249 5.618-2.369 8.524-.48 1.245.896 2.139 1.728 1.5.129-.096.289-.127.449-.032.64.447 1.12.83 1.568 1.214.128.095.16.255.096.383-1.696 3.096-3.393 4.66-4.96 6.193-.545.511-.513 1.31-.097 1.724.96 1.022 1.888.032 2.592-.67 1.633-1.692 3.04-3.448 4.225-5.683.128-.223.32-.255.512-.096.96.862 2.048 2.043 2.272 2.267.577.479 1.249.447 1.633.096 1.216-1.022-.064-2.044-.896-2.778l-2.049-1.852a.339.339 0 0 1-.064-.383c1.152-2.713 1.953-5.49 2.273-8.588zM104.814 129.176c0 1.692 2.656 1.692 2.656 0v-25.86c0-1.692-2.656-1.692-2.656 0zm-9.153-3.352c0 1.692 2.72 1.692 2.72 0v-21.04c0-1.66-2.72-1.66-2.72 0zm-13.122 5.012c1.44.958 2.176-.638 2.912-2.011 3.233-6.162 4.48-11.94 4.385-19.092v-6.385c.032-1.66-2.656-1.66-2.656 0v6.353c0 8.556-1.665 13.217-4.993 19.251-.448.799-.16 1.533.352 1.884zM130.818 110.467c-1.216 0-1.152 1.98.096 1.98h4.801c1.184 0 1.184-1.98 0-1.98zm.032 3.512c-1.28 0-1.184 2.043.096 2.043h4.673c1.28 0 1.28-2.043 0-2.043zm-15.714-1.596c0 1.628 2.496 1.628 2.496 0v-3.193c0-.255.064-.35.352-.35h8.034c.192 0 .32.127.32.318v6.61c0 1.563 2.496 1.595 2.496 0v-6.61c0-.191.128-.319.32-.319h8.321c.288 0 .352.096.352.351v3.193c0 1.628 2.497 1.628 2.497 0v-3.512c0-1.564-1.025-2.17-2.337-2.17h-8.833c-.192 0-.32-.129-.32-.32v-1.213c0-.192.128-.32.32-.32h7.937c1.408 0 1.408-2.266 0-2.266h-18.723c-1.376 0-1.28 2.266.096 2.266h7.554c.192 0 .32.128.32.32v1.213c0 .191-.128.32-.32.32h-8.578c-1.184 0-2.304.606-2.304 2.17zm4.705 1.564c-1.28 0-1.185 2.044.096 2.044h4.384c1.28 0 1.28-2.044 0-2.044zm-.032-3.543c-1.28 0-1.185 2.043.096 2.043h4.384c1.28 0 1.28-2.043 0-2.043zm-1.089 17.176c-1.344 0-1.248 2.234.096 2.234h15.587c.16 0 .288.096.352.224.48 1.053 2.4.766 2.4-.607v-8.97c0-1.725-1.056-2.395-2.304-2.395H119.2c-1.409 0-1.313 2.17.064 2.17h15.01c.288 0 .352.16.352.256v1.788c0 .191-.128.32-.32.32h-14.274c-1.409 0-1.313 2.298.096 2.298h14.178c.192 0 .32.128.32.32v2.01c0 .192-.128.32-.32.32zM161.975 128.857c3.265.67 5.441 1.468 7.745 2.298.704.16 1.312-.16 1.505-.702.544-1.405-.993-1.756-2.049-2.075a48.137 48.137 0 0 0-5.505-1.373c-1.088-.224-2.304-.607-2.56.67-.096.447.16 1.022.864 1.182zm-16.642 1.309c.096 1.436 1.568 1.117 2.528.957a38.144 38.144 0 0 0 6.369-1.66c1.056-.383 2.368-.734 1.92-1.947-.192-.511-.8-.862-1.472-.607-3.648 1.373-5.953 1.66-8.353 2.011-.736.128-1.024.67-.992 1.246zm19.81-18.9c0 1.468 2.369 1.468 2.369 0v-2.427c0-.191.128-.32.32-.32h3.52c1.28 0 1.345-2.106.065-2.106h-8.962c-.224 0-.352-.128-.32-.351.032-.192.064-.415.064-.639 0-.191.16-.383.384-.383 2.305-.128 4.64-.479 6.881-1.181 1.472-.48.736-2.778-.736-2.299-2.432.83-4.384 1.15-6.689 1.373-1.28.128-2.24.383-2.24 2.075 0 1.788-.48 3.895-1.6 5.555-.448.639-.288 1.277.224 1.628 1.184.83 1.888-.287 2.464-1.404.32-.639.544-1.341.736-2.012a.307.307 0 0 1 .288-.223h2.913c.192 0 .32.128.32.32zm-12.45.063c.033 1.405 2.37 1.405 2.37 0v-2.554c0-.191.127-.319.32-.319h1.887c1.313 0 1.377-2.075.064-2.075h-6.817c-.224 0-.352-.128-.352-.351v-.735c0-.127.032-.223.256-.255a26.737 26.737 0 0 0 6.433-1.213c1.473-.48.769-2.746-.672-2.299-2.464.798-3.744 1.15-6.24 1.373-1.089.096-2.209.543-2.209 2.075 0 1.66-.032 4.98-2.592 7.886-.512.574-.416 1.309 0 1.692 1.088.99 1.984-.096 2.688-1.054 1.12-1.564 1.696-3.256 1.984-4.757a.311.311 0 0 1 .32-.255h2.209c.192 0 .32.128.32.32zm-.031 3.353h12.29c.256 0 .416.223.416.35v1.15c0 .192-.128.32-.32.32h-12.482c-.192 0-.32-.128-.32-.32v-1.117c0-.128.16-.383.416-.383zm-.384 3.99c0-.191.128-.319.32-.319h12.482c.192 0 .32.128.32.32v1.212c0 .192-.128.32-.32.32h-12.482c-.192 0-.32-.128-.32-.32zm0 3.736c0-.192.128-.32.32-.32h12.482c.192 0 .32.128.32.32v1.34c0 .192-.128.32-.32.32h-12.482c-.192 0-.32-.128-.32-.32zm-2.465 3.224c0 1.373 1.889 1.692 2.305.703.064-.16.192-.256.352-.256h12.674c.16 0 .288.096.352.256.448 1.021 2.368.702 2.368-.67v-11.047c0-1.341-.96-1.916-2.24-1.916h-13.57c-1.056 0-2.24.543-2.24 1.916zM197.42 129.559c0 1.692 2.625 1.692 2.625 0v-13.44c0-.192.128-.32.32-.32h2.817c1.856 0 1.696-2.746 0-2.778-.289 0-.577.16-.8.32a.595.595 0 0 1-.225.064h-1.792c-.192 0-.32-.128-.32-.32v-7.502c0-.192.128-.32.32-.32h1.6c1.505 0 1.537-2.362 0-2.362h-12.673c-1.537 0-1.505 2.362.031 2.362h7.778c.192 0 .32.128.32.32v7.502c0 .192-.128.32-.32.32h-3.297c-.192 0-.32-.128-.32-.32.032-.926 0-2.107 0-5.363 0-1.628-2.624-1.724-2.624 0 0 3.32.032 4.47 0 5.395 0 .192-.128.32-.32.32h-2.785c-1.504 0-1.44 2.394.032 2.394h2.56c.193 0 .32.128.289.32-.352 3.99-1.6 8.491-5.153 12.45a1.33 1.33 0 0 0 .064 1.852c1.184 1.085 2.112-.128 2.912-1.15 3.393-4.31 4.513-9.098 4.897-13.249 0-.16.128-.287.32-.287h3.425c.192 0 .32.128.32.32zm-16.994-14.143c0-.32.064-.415.288-.415h2.337c.224 0 .32.096.32.351v7.886c0 .191-.128.319-.32.319h-2.305c-.192 0-.32-.128-.32-.32zm-2.464 10.025c0 1.372 1.856 1.628 2.336.606a.394.394 0 0 1 .352-.223h2.529c.16 0 .288.095.352.223.48.958 2.272.67 2.272-.67v-10.472c0-1.596-1.056-2.267-2.208-2.267h-2.497c-.288 0-.416-.16-.32-.415.736-1.98 1.312-4.374 1.76-6.545a.311.311 0 0 1 .32-.255h2.945c1.536 0 1.536-2.362 0-2.362h-8.577c-1.504 0-1.44 2.362.064 2.362h2.4c.224 0 .352.16.32.383-1.216 6.322-3.008 9.131-5.152 12.515-.385.607-.193 1.277.288 1.66.864.67 1.536.096 2.176-.958.416-.702.64-.67.64.128zM207.775 109.637c.032 1.597 2.624 1.597 2.624 0v-1.788c0-.478.064-.606.576-.606h9.986c.192 0 .32.128.32.32v3.192c0 3.735 3.648 3.83 4.672 3.863.32 0 .64.032 1.024.032.704 0 1.473-.032 2.305-.16.864-.128 1.184-1.15.8-1.756-.288-.51-.48-1.022-.48-1.564v-1.565c0-1.085-1.664-1.085-1.664 0v2.427c0 .191-.129.319-.32.319-.545.032-1.153.032-1.633 0-2.176-.064-2.336-.639-2.336-1.469v-3.288c0-.192.128-.32.32-.32h5.697c.544 0 .608.128.608.735v1.533c0 1.596 2.624 1.596 2.624 0v-2.203c0-1.724-1.152-2.459-2.464-2.459h-8.641c-.192 0-.32-.127-.32-.319v-1.788c0-1.596-2.657-1.596-2.657 0v1.788c0 .192-.128.32-.32.32h-8.321c-1.248 0-2.464.574-2.432 2.394zm.896 5.332c.32 1.373 1.632.926 2.592.638 3.425-1.085 5.665-3.448 6.881-5.842.544-1.054-1.536-2.107-2.112-1.022-1.312 2.459-3.777 4.055-6.433 4.79-.8.223-1.056.861-.928 1.436zm1.696 2.554c-1.6.032-1.536 2.458.032 2.458h5.92c.289 0 .417.16.32.415-1.631 4.183-4.672 6.194-8.704 7.79-.833.351-1.025 1.086-.8 1.66.544 1.437 1.856.83 2.976.32 4.289-1.98 7.745-5.013 9.281-9.993a.307.307 0 0 1 .288-.224h3.2c.417 0 .513.128.513.67v4.822c0 4.373 4.096 4.437 5.569 4.47 1.248 0 2.496-.065 3.744-.192 1.024-.128 1.408-1.15.992-1.916a4.578 4.578 0 0 1-.576-2.17v-2.906c0-1.086-1.696-1.086-1.696 0v4.278c0 .16-.128.287-.288.287-.576.032-1.312.032-2.144.032-2.753-.032-2.945-.734-2.945-1.82v-5.65c0-1.724-1.152-2.395-2.4-2.395h-3.233c-.256 0-.384-.16-.352-.415.064-.51.128-1.405.128-2.873 0-1.565-2.496-1.533-2.496 0 0 1.085-.032 1.98-.192 3a.311.311 0 0 1-.32.256zM240.98 114.682c3.744-2.523 7.2-5.62 9.921-9.482.16-.224.384-.224.544 0 2.72 3.671 6.465 7.12 10.658 9.641 1.216.735 2.496 1.628 3.264.32.352-.607.288-1.47-.608-1.948-4.992-2.682-9.281-6.736-12.065-10.6a.592.592 0 0 1-.065-.223c.065-1.245-1.664-1.852-2.368-.702-2.944 4.852-7.553 8.811-12.29 11.78-.704.447-.832 1.246-.48 1.82.8 1.31 2.177.288 3.489-.606zm15.778-.192c1.6 0 1.632-2.522.032-2.522h-11.042c-1.6 0-1.504 2.522.065 2.522zm-16.61 3.16c-1.6 0-1.537 2.427.064 2.427h6.785c.288 0 .416.16.32.415-.608 1.533-1.857 4.182-3.169 6.64-.064.096-.16.16-.256.16-1.888.128-3.264.192-3.328.192-.736 0-1.153.543-1.185 1.085-.063 1.597 1.505 1.373 2.497 1.31 3.104-.192 11.426-.671 16.162-1.789.096-.031 1.6 2.076 1.6 2.076.513.766 1.249.734 1.76.383 1.249-.862.353-1.916-.255-2.842a50.173 50.173 0 0 0-4.065-5.236c-.832-.925-1.856-2.107-2.944-1.021-.416.351-.48 1.085.16 1.756.8.83 1.312 1.5 1.888 2.235.192.255.128.447-.16.51-2.368.48-5.537.83-8.161 1.054-.352.032-.48-.16-.32-.479 1.344-2.682 2.464-5.332 2.816-6.257.064-.128.192-.224.32-.224h11.938c1.888 0 1.472-2.777-.16-2.777a1.59 1.59 0 0 0-.832.255.595.595 0 0 1-.224.064z" style="-inkscape-font-specification:'UzumasaHonmaruGothic-Cinema, Normal';font-variant-ligatures:normal;font-variant-caps:normal;font-variant-numeric:normal;font-feature-settings:normal;text-align:start"/></g><g style="line-height:1.25;-inkscape-font-specification:'GenEi Antique v5 Medium';text-align:center" aria-label="the Himekawa Snow Society" font-weight="500" font-size="8.783" font-family="GenEi Antique v5" letter-spacing="0" text-anchor="middle" stroke-width=".171"><path style="-inkscape-font-specification:'GenEi Antique v5 Medium';text-align:center" d="M68.686 139.324q-.066-.08-.066-.12 0-.052.066-.172l.147-.292q.093-.173.133-.253.04-.08.147-.08.293.027.732.027 0-.558.067-1.82 0-.133.173-.16.173-.026.306-.08.133-.052.267-.145.146-.093.293-.146.32 0 .32.279-.067.837-.067 2.072 1.198 0 1.691-.026.067 0 .147.08.08.066.08.119 0 .053-.08.292-.08.226-.107.385-.027.107-.146.107-.333-.027-1.599-.027l-.04 3.787q0 .744.16.943.16.2.64.2.173 0 .492-.08.32-.08.333-.08.08 0 .2.239.12.24.12.319 0 .066-.053.08-.906.57-1.838.57-.6 0-1-.41-.399-.413-.399-1.17l.04-4.398-1.012.027q-.067 0-.147-.067zM74.493 145.064v-.014q.147-1.023.147-2.71v-4.159q0-2.06-.147-2.923v-.014q0-.186.213-.186.214-.014.493-.093.293-.08.466-.146.174-.066.24-.066.067 0 .133.093.08.08.08.199-.133 1.86-.133 2.83v1.594q1.159-1.182 2.517-1.182 1.08 0 1.612.65.546.652.546 1.874l-.04 1.528q0 1.66.147 2.71v.014q0 .067-.054.12-.053.053-.12.053h-1.278q-.067 0-.12-.053-.053-.053-.053-.12v-.014q.133-.89.133-2.71v-1.488q0-.824-.32-1.103-.306-.292-.812-.292t-1.08.292q-.572.293-1.078.864v1.727q0 1.634.133 2.71v.014q0 .067-.053.12-.053.053-.12.053h-1.278q-.067 0-.12-.053-.054-.053-.054-.12zM82.831 144.307q-.706-.864-.706-2.458 0-1.595.959-2.578.972-.996 2.278-.996 1.678 0 2.397 1.395.36.717.36 1.607 0 .173-.12.28-.107.106-.28.106H83.59q0 1.302.493 1.913t1.638.611q1.146 0 1.878-.784.053-.053.107-.053.053 0 .093.053l.293.385q.04.04.04.093 0 .04-.027.067-.466.638-1.198 1.023-.72.372-1.559.372-1.665 0-2.517-1.036zm.84-3.521l1.49.014q1.48 0 1.48-.08 0-.73-.414-1.143-.413-.425-.852-.425-.426 0-.8.226-.692.452-.905 1.408zM94.458 145.05q.16-1.075.16-3.015v-3.707q0-1.887-.16-3.016v-.014q0-.066.054-.12.053-.066.12-.066h1.411q.067 0 .107.053.053.053.053.12v.026q-.146.957-.146 3.016v1.076h5.247v-1.076q0-1.98-.146-3.016v-.014q0-.066.053-.12.053-.066.12-.066h1.412q.146 0 .146.173v.026q-.146.957-.146 3.016v3.707q0 1.887.16 3.016v.014q0 .067-.054.12-.053.053-.12.053h-1.425q-.146 0-.146-.16v-.026q.146-.997.146-3.016v-1.7h-5.247v1.7q0 1.98.146 3.016v.014q0 .066-.053.12-.053.052-.12.052h-1.412q-.16 0-.16-.16zM105.54 136.654q-.267-.28-.267-.638 0-.359.267-.624.28-.266.639-.266.36 0 .626.266.28.265.28.624t-.28.638q-.267.279-.626.279-.36 0-.64-.28zm-.174 8.41v-.014q.147-1.116.147-2.71v-.837q0-.638-.08-1.661-.067-1.023-.067-1.289 0-.146.24-.146l1.106-.04q.266 0 .266.292v.014q-.133 1.316-.133 2.591v1.076q0 1.648.133 2.71v.015q0 .053-.067.106-.053.066-.106.066h-1.265q-.067 0-.12-.053-.054-.053-.054-.12zM109.109 145.064v-.014q.133-.903.133-2.71v-.837q0-2.113-.133-2.91v-.014q0-.066.053-.12.067-.066.12-.066l1.092-.053q.213 0 .213.292v.864q1.24-1.21 2.478-1.21.626 0 1.132.293.506.292.68.77 1.118-1.062 2.37-1.062t1.691.73q.44.718.44 1.807v1.515q0 1.674.146 2.71v.014q0 .067-.053.12-.053.053-.12.053h-1.278q-.067 0-.12-.053-.054-.053-.054-.12v-.014q.134-.903.134-2.71v-1.674q0-1.21-1.346-1.21-.479 0-.865.16-.373.16-.853.665v2.059q0 1.674.147 2.71v.014q0 .067-.053.12-.054.053-.12.053h-1.279q-.067 0-.12-.053-.053-.053-.053-.12v-.014q.133-.903.133-2.71v-1.674q0-.664-.32-.93-.306-.28-.705-.28-.4 0-.96.307-.559.305-1.052.797v1.78q0 1.674.147 2.71v.014q0 .067-.053.12-.054.053-.12.053h-1.279q-.066 0-.12-.053-.053-.053-.053-.12zM121.482 144.307q-.706-.864-.706-2.458 0-1.595.96-2.578.972-.996 2.277-.996 1.678 0 2.397 1.395.36.717.36 1.607 0 .173-.12.28-.107.106-.28.106h-4.129q0 1.302.493 1.913t1.638.611q1.146 0 1.878-.784.054-.053.107-.053t.093.053l.293.385q.04.04.04.093 0 .04-.027.067-.466.638-1.198 1.023-.72.372-1.559.372-1.664 0-2.517-1.036zm.84-3.521l1.491.014q1.478 0 1.478-.08 0-.73-.412-1.143-.413-.425-.853-.425-.426 0-.799.226-.693.452-.906 1.408zM128.355 145.064v-.014q.146-1.103.146-3.016v-3.866q0-2.046-.146-2.91v-.014q0-.186.213-.186.213-.014.493-.093.293-.08.466-.146.173-.066.24-.066.066 0 .133.093.08.08.08.199-.134 1.913-.134 2.843v3.388q.267-.04.453-.186.453-.359 1.172-1.142.733-.784 1.199-1.462.04-.053.107-.053l1.545-.04q.053 0 .106.053t.053.12q0 .066-.053.106-1.438 1.236-2.97 2.79 1.079 1.276 2.211 2.405 1.132 1.116 1.132 1.182 0 .067-.067.12-.053.066-.12.066h-1.744q-.093 0-.133-.053-.666-.956-1.066-1.514-.386-.572-1.292-1.528-.08-.053-.533-.106 0 2.072.134 3.016v.013q0 .067-.054.12-.053.053-.12.053h-1.278q-.067 0-.12-.053-.053-.053-.053-.12zM135.88 144.905q-.56-.452-.56-1.303 0-.863.706-1.474.72-.611 1.918-.877.24-.053.893-.16.666-.106.666-.212 0-1.156-.546-1.448-.427-.2-.92-.2-.785 0-1.558 1.223-.04.066-.12.066l-.2-.014q-.093 0-.133-.133-.026-.133-.12-.465-.08-.345-.12-.544 0-.093.08-.173 1.093-.904 2.212-.904 2.756 0 2.756 2.578l-.053 2.285q0 .704.093.943.107.226.48.226.053 0 .226-.053l.174-.04q.16 0 .253.505 0 .067-.04.106-.493.505-1.372.505-.866 0-1.186-.823-.572.478-1.012.65-.426.173-1.198.173-.76 0-1.32-.438zm.799-1.382q0 .292.333.545.346.239.72.239.372 0 .798-.173.893-.345.893-.678l.053-1.62-1.252.292q-1.545.412-1.545 1.395zM142.233 138.5q0-.106.106-.106l1.545.014q.08 0 .12.093 1.08 3.375 1.825 5.129.466-1.01 1.212-3.123-.706-1.82-.706-1.966 0-.146.107-.146h1.531q.12 0 .134.093.572 2.684 1.478 5.142.866-2.033 1.851-5.142.054-.106.134-.106l1.172.014q.133 0 .133.093 0 .014-.027.093-.786 1.713-2.823 6.576-.04.08-.134.08l-.945.014q-.054 0-.12-.093-.093-.253-1.252-3.268-.253.637-1.212 3.281-.053.093-.133.093l-1.04-.014q-.092 0-.133-.08-1.132-2.922-2.797-6.576-.026-.04-.026-.093zM154.02 144.905q-.56-.452-.56-1.303 0-.863.707-1.474.719-.611 1.918-.877.24-.053.892-.16.666-.106.666-.212 0-1.156-.546-1.448-.426-.2-.92-.2-.785 0-1.558 1.223-.04.066-.12.066l-.2-.014q-.092 0-.132-.133-.027-.133-.12-.465-.08-.345-.12-.544 0-.093.08-.173 1.092-.904 2.21-.904 2.758 0 2.758 2.578l-.054 2.285q0 .704.094.943.106.226.48.226.052 0 .226-.053l.173-.04q.16 0 .253.505 0 .067-.04.106-.493.505-1.372.505-.866 0-1.185-.823-.573.478-1.013.65-.426.173-1.198.173-.76 0-1.319-.438zm.8-1.382q0 .292.332.545.347.239.72.239.372 0 .799-.173.892-.345.892-.678l.053-1.62-1.252.292q-1.545.412-1.545 1.395zM165.394 144.48v-.027q.307-1.156.347-1.541.026-.12.12-.12l.16-.014q.08 0 .12.067.332.637 1.025 1.102.692.465 1.318.465.64 0 1.186-.438.546-.452.546-1.236t-.48-1.249q-.466-.478-1.198-.783-.733-.32-1.12-.519-.372-.212-.812-.57-.905-.705-.905-1.887 0-1.196.905-1.98.92-.784 2.265-.784 1.345 0 2.144.478.373.226.373.359l-.014.053q-.293 1.01-.346 1.501-.027.12-.107.12l-.16.014q-.093 0-.133-.08-.293-.677-.839-1.09-.533-.424-1.185-.424-.64 0-1.093.372-.452.372-.452 1.116 0 .73.666 1.222.466.319 1.132.585.666.252 1.078.478.427.212.88.584.945.758.945 2.1 0 1.328-.985 2.165-.973.824-2.451.824-.88 0-1.598-.173-.706-.172-1.026-.358-.306-.2-.306-.333zM173.426 145.064v-.014q.146-.996.146-2.71v-.837q0-2.033-.146-2.91v-.014q0-.066.053-.12.067-.066.12-.066l1.065-.053q.253 0 .253.279v.85q1.16-1.182 2.518-1.182 1.078 0 1.611.65.546.652.546 1.874l-.04 1.528q0 1.674.147 2.71v.014q0 .067-.053.12-.054.053-.12.053h-1.279q-.067 0-.12-.053-.053-.053-.053-.12v-.014q.133-1.01.133-2.71v-1.488q0-.824-.32-1.103-.306-.292-.825-.292-.506 0-1.08.292-.558.28-1.065.864v1.727q0 1.767.134 2.71v.014q0 .067-.054.12-.053.053-.12.053H173.6q-.067 0-.12-.053-.053-.053-.053-.12zM181.963 144.386q-.906-.97-.906-2.524 0-1.568.933-2.577.945-1.01 2.504-1.01 1.558 0 2.41.97.853.956.853 2.55 0 1.582-.906 2.565-.906.983-2.437.983-1.532 0-2.45-.957zm.56-2.683q0 1.474.852 2.298.48.465 1.172.465.706 0 1.225-.664.52-.678.52-1.7 0-1.476-.427-2.206-.426-.744-1.425-.744-.985 0-1.451.744-.467.73-.467 1.807zM188.29 138.5q0-.106.106-.106l1.545.014q.08 0 .12.093 1.079 3.375 1.825 5.129.466-1.01 1.212-3.123-.706-1.82-.706-1.966 0-.146.106-.146h1.532q.12 0 .133.093.573 2.684 1.478 5.142.866-2.033 1.852-5.142.053-.106.133-.106l1.172.014q.133 0 .133.093 0 .014-.026.093-.786 1.713-2.824 6.576-.04.08-.133.08l-.946.014q-.053 0-.12-.093-.093-.253-1.252-3.268-.253.637-1.212 3.281-.053.093-.133.093l-1.039-.014q-.093 0-.133-.08-1.132-2.922-2.797-6.576-.027-.04-.027-.093zM204.285 144.48v-.027q.307-1.156.347-1.541.026-.12.12-.12l.16-.014q.08 0 .12.067.332.637 1.025 1.102.692.465 1.318.465.64 0 1.186-.438.546-.452.546-1.236t-.48-1.249q-.466-.478-1.198-.783-.733-.32-1.12-.519-.372-.212-.812-.57-.905-.705-.905-1.887 0-1.196.905-1.98.92-.784 2.265-.784 1.345 0 2.144.478.373.226.373.359l-.014.053q-.293 1.01-.346 1.501-.027.12-.107.12l-.16.014q-.093 0-.133-.08-.293-.677-.839-1.09-.533-.424-1.185-.424-.64 0-1.093.372-.452.372-.452 1.116 0 .73.666 1.222.466.319 1.132.585.666.252 1.079.478.426.212.879.584.945.758.945 2.1 0 1.328-.985 2.165-.973.824-2.451.824-.88 0-1.598-.173-.706-.172-1.026-.358-.306-.2-.306-.333zM212.676 144.386q-.905-.97-.905-2.524 0-1.568.932-2.577.946-1.01 2.504-1.01t2.41.97q.853.956.853 2.55 0 1.582-.906 2.565-.905.983-2.437.983-1.532 0-2.45-.957zm.56-2.683q0 1.474.852 2.298.48.465 1.172.465.706 0 1.225-.664.52-.678.52-1.7 0-1.476-.426-2.206-.427-.744-1.425-.744-.986 0-1.452.744-.466.73-.466 1.807zM220.228 144.36q-.866-.983-.866-2.551 0-1.581 1.026-2.551 1.025-.983 2.277-.983 1.266 0 2.145.452.106.066.106.159-.253.89-.36 1.275-.026.093-.106.093l-.2.014q-.093 0-.133-.053-.6-1.063-1.372-1.063-.759 0-1.345.704-.573.691-.573 1.887 0 1.183.586 1.887.586.69 1.412.69.84 0 1.519-.597.026-.027.12-.027.093 0 .266.2.186.199.186.252 0 .053-.026.08-.88 1.116-2.344 1.116-1.452 0-2.318-.983zM226.794 136.654q-.266-.28-.266-.638 0-.359.266-.624.28-.266.64-.266t.626.266q.28.265.28.624t-.28.638q-.267.279-.626.279-.36 0-.64-.28zm-.173 8.41v-.014q.147-1.116.147-2.71v-.837q0-.638-.08-1.661-.067-1.023-.067-1.289 0-.146.24-.146l1.105-.04q.267 0 .267.292v.014q-.134 1.316-.134 2.591v1.076q0 1.648.134 2.71v.015q0 .053-.067.106-.053.066-.107.066h-1.265q-.067 0-.12-.053-.053-.053-.053-.12zM230.484 144.307q-.706-.864-.706-2.458 0-1.595.959-2.578.972-.996 2.277-.996 1.678 0 2.398 1.395.36.717.36 1.607 0 .173-.12.28-.107.106-.28.106h-4.13q0 1.302.494 1.913.492.611 1.638.611 1.145 0 1.878-.784.053-.053.106-.053t.093.053l.293.385q.04.04.04.093 0 .04-.026.067-.467.638-1.2 1.023-.718.372-1.557.372-1.665 0-2.518-1.036zm.839-3.521l1.491.014q1.479 0 1.479-.08 0-.73-.413-1.143-.413-.425-.853-.425-.426 0-.799.226-.692.452-.905 1.408zM236.397 139.324q-.066-.08-.066-.12 0-.052.066-.172l.147-.292q.093-.173.133-.253.04-.08.146-.08.293.027.733.027 0-.558.066-1.82 0-.133.174-.16.173-.026.306-.08.133-.052.266-.145.147-.093.293-.146.32 0 .32.279-.067.837-.067 2.072 1.199 0 1.692-.026.066 0 .146.08.08.066.08.119 0 .053-.08.292-.08.226-.106.385-.027.107-.147.107-.333-.027-1.598-.027l-.04 3.787q0 .744.16.943.16.2.64.2.173 0 .492-.08.32-.08.333-.08.08 0 .2.239.12.24.12.319 0 .066-.053.08-.906.57-1.838.57-.6 0-1-.41-.399-.413-.399-1.17l.04-4.398-1.012.027q-.067 0-.147-.067zM241.392 138.487q0-.093.12-.093h1.425q.093 0 .133.08.946 2.857 1.851 5.036 1.519-3.282 2.078-5.036.04-.08.133-.08h1.252q.133 0 .133.08 0 .067-.12.293-.12.212-2.024 4.038-1.891 3.814-2.277 5.089-.054.093-.147.093h-1.318q-.094 0-.094-.08 0-.066.573-.983.586-.917 1.012-1.86-1.105-2.936-2.703-6.484-.027-.04-.027-.093z"/></g></g><path d="M138.438 29.975a2.455 2.449-30 0 0-1.22 2.641l1.242 6.489-6.684-3.835a2.455 2.449-30 0 0-2.562.035 2.455 2.449-30 0 0 .111 4.211l6.678 3.833-6.275 2.177a2.455 2.449-30 0 0-.447.199 2.455 2.449-30 0 0 2.049 4.427l10.299-3.575 2.633 1.512-.003 2.973-5.138.006a2.455 2.449-30 0 0-1.18.283 2.455 2.449-30 0 0 1.176 4.615l5.136-.005-.003 2.969-2.669 1.54-10.273-3.531a2.455 2.449-30 0 0-2.124.225 2.455 2.449-30 0 0 .52 4.41l6.248 2.147-6.688 3.861a2.455 2.449-30 1 0 2.448 4.24l6.687-3.861-1.264 6.483a2.455 2.449-30 0 0 4.816.929l2.078-10.662 2.669-1.541 2.57 1.48-2.573 4.442a2.456 2.45-30 0 0 4.247 2.45l2.574-4.447 2.576 1.485-.008 3.029-8.247 7.134a2.456 2.45-30 0 0 3.208 3.705l5.022-4.344-.02 7.694a2.455 2.449-30 1 0 4.905.006l.02-7.71 4.997 4.318a2.455 2.45-30 1 0 3.215-3.71l-8.196-7.078.008-3.042 2.583-1.491 2.556 4.426a2.457 2.45-30 1 0 4.255-2.456l-2.556-4.427 2.579-1.489 2.643 1.516 2.032 10.633a2.455 2.45-30 1 0 4.82-.93l-1.24-6.484 6.686 3.835a2.455 2.449-30 1 0 2.447-4.25l-6.673-3.83 6.272-2.177a2.456 2.45-30 1 0-1.604-4.63l-10.301 3.576-2.628-1.508.003-2.974 5.137-.006a2.456 2.45-30 1 0 .003-4.903l-5.134.007.001-2.965 2.665-1.538 10.277 3.529a2.455 2.449-30 1 0 1.604-4.635l-6.25-2.146 6.69-3.863a2.455 2.449-30 1 0-2.447-4.24l-6.69 3.863 1.266-6.485a2.455 2.449-30 0 0-3.627-2.616 2.455 2.449-30 0 0-1.189 1.688l-2.082 10.665-2.663 1.537-2.575-1.482 2.575-4.445a2.455 2.449-30 0 0-3.262-3.412 2.455 2.449-30 0 0-.983.968l-2.574 4.444-2.577-1.483.007-3.035 8.246-7.132a2.455 2.449-30 0 0-2.873-3.952 2.455 2.449-30 0 0-.332.252l-5.023 4.345.02-7.7a2.455 2.449-30 0 0-3.655-2.165 2.455 2.449-30 0 0-1.248 2.164l-.023 7.705-4.997-4.317a2.455 2.449-30 0 0-2.963-.222 2.455 2.449-30 0 0-.252 3.932l8.193 7.076-.01 3.052-2.575 1.488-2.557-4.428a2.455 2.449-30 0 0-3.402-.902 2.455 2.449-30 0 0-.853 3.359l2.557 4.427-2.581 1.49-2.642-1.515-2.033-10.639a2.455 2.449-30 0 0-3.602-1.712zm10.727 18.104l2.578-1.488 2.574 4.458-5.154.007zm6.833-3.945l2.577-1.488 2.579 1.485-2.584 4.46zm9.399 2.443l2.575 1.484-.003 2.967-5.156.008zm-16.238 9.377l5.15-.007-2.582 4.459-2.57-1.482zm9.396 2.436l2.574 4.457-2.578 1.489-2.577-1.485zm4.257-2.454l5.152-.005-.003 2.972-2.578 1.488z" style="line-height:normal;font-variant-ligatures:normal;font-variant-position:normal;font-variant-caps:normal;font-variant-numeric:normal;font-variant-alternates:normal;font-feature-settings:normal;text-indent:0;text-align:start;text-decoration-line:none;text-decoration-style:solid;text-decoration-color:#000;text-transform:none;text-orientation:mixed;white-space:normal;shape-padding:0;isolation:auto;mix-blend-mode:normal;solid-color:#000;solid-opacity:1" color="#000" font-weight="400" font-family="sans-serif" overflow="visible" fill-rule="evenodd"/></g></svg>