<svg xmlns="http://www.w3.org/2000/svg" width="600" height="60" viewBox="0 0 158.75 15.875"><defs><linearGradient id="a"><stop offset="0" stop-color="#a8a100"/><stop offset="1" stop-color="#cad000"/></linearGradient></defs><path fill="#060034" d="M0 0h158.75v15.875H0z"/><g fill="#f9f9ff" stroke-width="1.912" font-weight="400"><path d="M8.152 4.026a.407.407 0 0 0-.202.439l.207 1.078-1.11-.638a.407.407 0 0 0-.426.005.407.407 0 0 0 .02.7l1.109.638-1.041.361a.407.407 0 0 0-.074.033.407.407 0 0 0 .34.736l1.71-.592.437.252v.494h-.853a.407.407 0 0 0-.196.047.407.407 0 0 0 .196.767h.853v.493l-.442.256-1.707-.589a.407.407 0 0 0-.353.037.407.407 0 0 0 .088.733l1.037.358-1.11.64a.407.407 0 1 0 .408.706l1.11-.64-.21 1.077a.407.407 0 1 0 .8.154L9.087 9.8l.442-.255.427.246-.427.738a.407.407 0 1 0 .706.408l.426-.739.428.247v.504L9.72 12.133a.407.407 0 1 0 .532.616l.834-.722-.002 1.28a.407.407 0 1 0 .814.002l.002-1.281.83.718a.407.407 0 1 0 .533-.616l-1.361-1.178v-.506l.429-.247.425.736a.408.408 0 0 0 .706-.407l-.426-.737.428-.247.439.253.34 1.767a.407.407 0 1 0 .8-.153l-.208-1.078 1.111.638a.407.407 0 1 0 .406-.706l-1.11-.638 1.042-.36a.407.407 0 1 0-.267-.77l-1.71.593-.436-.252v-.494h.853a.408.408 0 1 0 0-.815h-.853v-.492l.442-.255 1.706.587a.407.407 0 1 0 .266-.77l-1.038-.357 1.11-.64a.407.407 0 1 0-.407-.705l-1.11.64.21-1.077a.407.407 0 0 0-.603-.436.407.407 0 0 0-.197.28l-.344 1.773-.442.255-.428-.247.427-.738a.407.407 0 0 0-.542-.568.407.407 0 0 0-.163.16l-.427.74-.428-.248.001-.505 1.368-1.183a.407.407 0 0 0-.478-.658.407.407 0 0 0-.055.042l-.833.721.002-1.28a.407.407 0 0 0-.607-.36.407.407 0 0 0-.207.36l-.003 1.28-.83-.718a.407.407 0 0 0-.492-.038.407.407 0 0 0-.04.654l1.36 1.178v.507l-.428.246-.426-.737a.407.407 0 0 0-.564-.15.407.407 0 0 0-.141.558l.425.737-.427.247-.44-.253-.34-1.768a.407.407 0 0 0-.597-.285zm1.784 3.01l.427-.246.428.741h-.855zm1.133-.653l.428-.247.428.247-.428.74zM9.936 8.345h.855l-.428.741-.427-.247zM12.63 6.79l.428.247v.493h-.856zm-1.134 1.962l.428.741-.427.247-.429-.247zm.706-.407h.856v.494l-.428.247z" style="line-height:normal;font-variant-ligatures:normal;font-variant-position:normal;font-variant-caps:normal;font-variant-numeric:normal;font-variant-alternates:normal;font-feature-settings:normal;text-indent:0;text-align:start;text-decoration-line:none;text-decoration-style:solid;text-decoration-color:#000;text-transform:none;text-orientation:mixed;white-space:normal;shape-padding:0;isolation:auto;mix-blend-mode:normal;solid-color:#000;solid-opacity:1" color="#000" font-family="sans-serif" overflow="visible" fill-rule="evenodd"/><g style="line-height:1.25;-inkscape-font-specification:'GenEi Antique v5'" aria-label="the Himekawa Snow Society" font-size="19.237" font-family="GenEi Antique v5" letter-spacing="0" word-spacing="0" stroke-width=".806"><path style="-inkscape-font-specification:'GenEi Antique v5'" d="M19.677 7.201q-.05-.059-.05-.088 0-.04.05-.128l.108-.216q.069-.128.098-.187.03-.059.108-.059.216.02.54.02 0-.413.05-1.346 0-.098.128-.118.127-.02.225-.059.099-.039.197-.108.108-.069.216-.108.236 0 .236.206-.05.62-.05 1.533.885 0 1.249-.02.049 0 .108.06.059.048.059.088 0 .04-.06.216-.058.167-.078.285-.02.078-.108.078-.246-.02-1.179-.02l-.03 2.8q0 .55.118.698.118.148.472.148.128 0 .363-.06.236-.058.246-.058.059 0 .147.177.089.176.089.235 0 .05-.04.06-.667.422-1.355.422-.442 0-.737-.305-.295-.304-.295-.864l.03-3.252-.747.02q-.05 0-.108-.05zM23.96 11.446v-.01q.109-.757.109-2.005V6.356q0-1.522-.109-2.161v-.01q0-.137.158-.137.157-.01.363-.07.216-.058.344-.107.128-.05.177-.05.049 0 .098.07.059.058.059.147-.098 1.375-.098 2.092v1.18q.855-.875 1.857-.875.795 0 1.188.481.403.482.403 1.386l-.03 1.13q0 1.228.109 2.004v.01q0 .049-.04.088-.039.04-.088.04h-.943q-.05 0-.088-.04-.04-.04-.04-.088v-.01q.098-.659.098-2.005v-1.1q0-.609-.235-.815-.226-.216-.6-.216-.373 0-.795.216-.423.216-.796.638v1.277q0 1.209.098 2.005v.01q0 .049-.04.088-.039.04-.088.04h-.943q-.049 0-.088-.04-.04-.04-.04-.088zM30.11 10.886q-.52-.64-.52-1.818 0-1.179.707-1.906.717-.737 1.68-.737 1.238 0 1.769 1.032.265.53.265 1.189 0 .127-.088.206-.08.078-.207.078h-3.045q0 .963.363 1.415.364.452 1.209.452.844 0 1.385-.58.04-.039.078-.039.04 0 .07.04l.215.284q.03.03.03.07 0 .029-.02.048-.344.472-.884.757-.53.275-1.15.275-1.228 0-1.856-.766zm.62-2.604l1.1.01q1.09 0 1.09-.06 0-.54-.304-.844-.305-.314-.629-.314-.314 0-.59.167-.51.334-.667 1.041zM38.687 11.436q.118-.796.118-2.23V6.464q0-1.395-.118-2.23v-.01q0-.049.04-.088.039-.05.088-.05h1.042q.049 0 .078.04.04.04.04.089v.02q-.109.707-.109 2.23v.795h3.871v-.795q0-1.464-.108-2.23v-.01q0-.05.04-.089.039-.049.088-.049h1.041q.108 0 .108.128v.02q-.108.707-.108 2.23v2.74q0 1.396.118 2.23v.01q0 .05-.04.089-.038.04-.088.04h-1.05q-.109 0-.109-.119v-.02q.108-.736.108-2.23V7.949h-3.87v1.258q0 1.463.107 2.23v.01q0 .049-.039.088-.04.04-.088.04h-1.042q-.118 0-.118-.119zM46.861 5.227q-.196-.207-.196-.472t.196-.462q.207-.196.472-.196t.462.196q.206.197.206.462t-.206.472q-.197.206-.462.206t-.472-.206zm-.127 6.219v-.01q.108-.826.108-2.005v-.618q0-.472-.06-1.229-.048-.756-.048-.953 0-.108.177-.108l.815-.03q.197 0 .197.217v.01q-.099.973-.099 1.916v.795q0 1.219.099 2.005v.01q0 .039-.05.078-.039.05-.078.05h-.934q-.049 0-.088-.04-.04-.04-.04-.089zM49.494 11.446v-.01q.099-.668.099-2.005v-.618q0-1.563-.099-2.152v-.01q0-.049.04-.088.049-.05.088-.05l.806-.039q.157 0 .157.216v.64q.914-.895 1.827-.895.462 0 .835.216.374.216.501.57.826-.786 1.75-.786.923 0 1.247.54.324.53.324 1.337v1.12q0 1.237.108 2.004v.01q0 .049-.039.088-.04.04-.088.04h-.944q-.049 0-.088-.04-.04-.04-.04-.088v-.01q.099-.668.099-2.004V8.194q0-.894-.992-.894-.354 0-.639.117-.275.118-.629.492v1.523q0 1.237.108 2.004v.01q0 .049-.039.088-.04.04-.088.04h-.944q-.049 0-.088-.04-.04-.04-.04-.088v-.01q.099-.668.099-2.004V8.194q0-.492-.236-.688-.226-.206-.52-.206-.295 0-.708.226-.412.226-.776.589v1.317q0 1.237.108 2.004v.01q0 .049-.04.088-.038.04-.088.04h-.943q-.049 0-.088-.04-.04-.04-.04-.088zM58.621 10.886q-.52-.64-.52-1.818 0-1.179.707-1.906.717-.737 1.68-.737 1.238 0 1.768 1.032.266.53.266 1.189 0 .127-.089.206-.078.078-.206.078h-3.046q0 .963.364 1.415.363.452 1.208.452t1.386-.58q.039-.039.078-.039.04 0 .069.04l.216.284q.03.03.03.07 0 .029-.02.048-.344.472-.884.757-.53.275-1.15.275-1.228 0-1.857-.766zm.62-2.604l1.1.01q1.09 0 1.09-.06 0-.54-.304-.844-.305-.314-.63-.314-.313 0-.589.167-.51.334-.668 1.041zM63.69 11.446v-.01q.109-.816.109-2.23v-2.86q0-1.512-.108-2.151v-.01q0-.137.157-.137.157-.01.364-.07.216-.058.343-.107.128-.05.177-.05.05 0 .099.07.058.058.058.147-.098 1.415-.098 2.102v2.506q.197-.03.334-.138.334-.265.865-.845.54-.58.884-1.08.03-.04.079-.04l1.14-.03q.039 0 .078.04.04.04.04.088 0 .05-.04.079-1.061.914-2.191 2.063.796.943 1.63 1.778.836.826.836.875 0 .049-.05.088-.038.05-.088.05h-1.287q-.068 0-.098-.04-.491-.707-.786-1.12-.285-.423-.953-1.13-.059-.04-.393-.079 0 1.533.098 2.23v.01q0 .05-.039.089-.04.04-.088.04h-.943q-.05 0-.089-.04-.04-.04-.04-.089zM69.242 11.328q-.413-.334-.413-.963 0-.639.52-1.09.531-.453 1.416-.65.176-.038.658-.117.491-.079.491-.157 0-.855-.403-1.071-.314-.147-.678-.147-.58 0-1.15.903-.029.05-.088.05l-.147-.01q-.069 0-.098-.099-.02-.098-.089-.343-.059-.256-.088-.403 0-.069.059-.128.806-.668 1.63-.668 2.034 0 2.034 1.906l-.039 1.69q0 .52.069.697.079.167.354.167.039 0 .167-.039l.127-.03q.118 0 .187.374 0 .049-.03.078-.363.374-1.011.374-.639 0-.875-.61-.422.354-.746.482-.315.128-.885.128-.56 0-.972-.324zm.59-1.022q0 .216.245.403.255.177.53.177t.59-.128q.658-.256.658-.501l.04-1.199-.924.216q-1.14.305-1.14 1.032zM73.928 6.592q0-.078.079-.078l1.14.01q.058 0 .088.068.795 2.496 1.346 3.792.344-.746.894-2.308-.521-1.346-.521-1.454 0-.108.079-.108h1.13q.088 0 .098.068.422 1.985 1.09 3.802.639-1.503 1.366-3.802.04-.078.098-.078l.865.01q.098 0 .098.068 0 .01-.02.07-.58 1.267-2.083 4.862-.03.06-.098.06l-.697.01q-.04 0-.089-.07-.069-.186-.923-2.417-.187.472-.894 2.427-.04.069-.099.069l-.766-.01q-.069 0-.098-.059-.835-2.161-2.063-4.863-.02-.03-.02-.069zM82.623 11.328q-.413-.334-.413-.963 0-.639.52-1.09.531-.453 1.416-.65.176-.038.658-.117.491-.079.491-.157 0-.855-.403-1.071-.314-.147-.678-.147-.58 0-1.15.903-.029.05-.088.05l-.147-.01q-.069 0-.098-.099-.02-.098-.089-.343-.059-.256-.088-.403 0-.069.059-.128.806-.668 1.63-.668 2.034 0 2.034 1.906l-.039 1.69q0 .52.069.697.079.167.354.167.039 0 .167-.039l.127-.03q.118 0 .187.374 0 .049-.03.078-.363.374-1.011.374-.639 0-.875-.61-.422.354-.746.482-.315.128-.885.128-.56 0-.972-.324zm.59-1.022q0 .216.245.403.255.177.53.177t.59-.128q.658-.256.658-.501l.04-1.199-.924.216q-1.14.305-1.14 1.032zM91.013 11.013v-.02q.226-.854.255-1.14.02-.087.089-.087l.118-.01q.059 0 .088.049.246.471.757.815.51.344.972.344.472 0 .875-.324.402-.334.402-.914 0-.58-.353-.923-.344-.354-.884-.58-.54-.236-.826-.383-.275-.157-.6-.423-.667-.52-.667-1.395 0-.884.668-1.464.678-.58 1.67-.58.992 0 1.582.355.275.167.275.265l-.01.039q-.216.747-.255 1.11-.02.089-.079.089l-.118.01q-.069 0-.098-.06-.216-.5-.619-.805-.393-.314-.874-.314-.472 0-.806.275-.334.275-.334.825 0 .54.491.904.344.236.835.432.492.187.796.354.314.157.648.432.698.56.698 1.552 0 .983-.727 1.602-.717.609-1.808.609-.648 0-1.179-.128-.52-.128-.756-.265-.226-.148-.226-.246zM96.937 11.446v-.01q.108-.737.108-2.005v-.618q0-1.504-.108-2.152v-.01q0-.049.04-.088.048-.05.088-.05l.786-.039q.186 0 .186.207v.628q.855-.874 1.857-.874.796 0 1.189.481.403.482.403 1.386l-.03 1.13q0 1.237.108 2.004v.01q0 .049-.039.088-.04.04-.088.04h-.943q-.05 0-.089-.04-.04-.04-.04-.088v-.01q.1-.747.1-2.004v-1.1q0-.61-.237-.816-.226-.216-.609-.216-.373 0-.796.216-.412.206-.786.638v1.278q0 1.306.099 2.004v.01q0 .049-.04.088-.039.04-.088.04h-.943q-.05 0-.089-.04-.039-.04-.039-.088zM103.235 10.944q-.668-.717-.668-1.866 0-1.16.687-1.906.698-.747 1.847-.747 1.15 0 1.779.717.628.708.628 1.887 0 1.169-.668 1.896-.668.727-1.798.727t-1.807-.708zm.412-1.984q0 1.09.629 1.7.354.343.865.343.52 0 .903-.49.384-.502.384-1.258 0-1.09-.315-1.631-.314-.55-1.051-.55-.727 0-1.07.55-.345.54-.345 1.336zM107.901 6.592q0-.078.079-.078l1.14.01q.058 0 .088.068.796 2.496 1.346 3.792.344-.746.894-2.308-.52-1.346-.52-1.454 0-.108.078-.108h1.13q.088 0 .098.068.422 1.985 1.09 3.802.639-1.503 1.366-3.802.04-.078.098-.078l.865.01q.098 0 .098.068 0 .01-.02.07-.58 1.267-2.082 4.862-.03.06-.099.06l-.697.01q-.04 0-.089-.07-.068-.186-.923-2.417-.187.472-.894 2.427-.04.069-.098.069l-.767-.01q-.068 0-.098-.059-.835-2.161-2.063-4.863-.02-.03-.02-.069zM119.7 11.013v-.02q.227-.854.256-1.14.02-.087.088-.087l.118-.01q.06 0 .089.049.245.471.756.815t.973.344q.471 0 .874-.324.403-.334.403-.914 0-.58-.354-.923-.344-.354-.884-.58-.54-.236-.825-.383-.275-.157-.6-.423-.667-.52-.667-1.395 0-.884.668-1.464.677-.58 1.67-.58.992 0 1.582.355.275.167.275.265l-.01.039q-.216.747-.256 1.11-.02.089-.078.089l-.118.01q-.069 0-.098-.06-.217-.5-.62-.805-.392-.314-.874-.314-.471 0-.805.275-.334.275-.334.825 0 .54.49.904.345.236.836.432.491.187.796.354.314.157.648.432.698.56.698 1.552 0 .983-.727 1.602-.718.609-1.808.609-.648 0-1.179-.128-.52-.128-.756-.265-.226-.148-.226-.246zM125.89 10.944q-.668-.717-.668-1.866 0-1.16.688-1.906.697-.747 1.847-.747t1.778.717q.629.708.629 1.887 0 1.169-.668 1.896-.668.727-1.798.727t-1.808-.708zm.413-1.984q0 1.09.628 1.7.354.343.865.343.52 0 .904-.49.383-.502.383-1.258 0-1.09-.314-1.631-.315-.55-1.052-.55-.727 0-1.07.55-.344.54-.344 1.336zM131.46 10.925q-.638-.727-.638-1.886 0-1.17.756-1.887.757-.727 1.68-.727.934 0 1.582.334.079.05.079.118-.187.658-.265.943-.02.069-.08.069l-.146.01q-.07 0-.099-.04-.442-.785-1.012-.785-.56 0-.992.52-.422.511-.422 1.395 0 .875.432 1.395.432.511 1.041.511.62 0 1.12-.442.02-.02.089-.02.069 0 .196.148.138.147.138.187 0 .039-.02.059-.648.825-1.729.825-1.07 0-1.71-.727zM136.304 5.227q-.196-.207-.196-.472t.196-.462q.206-.196.472-.196.265 0 .461.196.207.197.207.462t-.207.472q-.196.206-.461.206-.266 0-.472-.206zm-.128 6.219v-.01q.108-.826.108-2.005v-.618q0-.472-.059-1.229-.049-.756-.049-.953 0-.108.177-.108l.816-.03q.196 0 .196.217v.01q-.098.973-.098 1.916v.795q0 1.219.098 2.005v.01q0 .039-.049.078-.04.05-.079.05h-.933q-.05 0-.088-.04-.04-.04-.04-.089zM139.025 10.886q-.52-.64-.52-1.818 0-1.179.707-1.906.717-.737 1.68-.737 1.238 0 1.768 1.032.266.53.266 1.189 0 .127-.089.206-.078.078-.206.078h-3.046q0 .963.364 1.415.363.452 1.208.452t1.386-.58q.039-.039.078-.039.04 0 .069.04l.216.284q.03.03.03.07 0 .029-.02.048-.344.472-.884.757-.53.275-1.15.275-1.228 0-1.857-.766zm.62-2.604l1.1.01q1.09 0 1.09-.06 0-.54-.304-.844-.305-.314-.63-.314-.313 0-.589.167-.51.334-.668 1.041zM143.388 7.201q-.05-.059-.05-.088 0-.04.05-.128l.108-.216.098-.187q.03-.059.108-.059.216.02.54.02 0-.413.05-1.346 0-.098.127-.118.128-.02.226-.059.098-.039.197-.108.108-.069.216-.108.235 0 .235.206-.049.62-.049 1.533.885 0 1.248-.02.05 0 .108.06.06.048.06.088 0 .04-.06.216-.059.167-.078.285-.02.078-.109.078-.245-.02-1.178-.02l-.03 2.8q0 .55.118.698.118.148.472.148.127 0 .363-.06.236-.058.246-.058.059 0 .147.177.088.176.088.235 0 .05-.039.06-.668.422-1.356.422-.442 0-.736-.305-.295-.304-.295-.864l.03-3.252-.747.02q-.05 0-.108-.05zM147.072 6.582q0-.068.088-.068h1.051q.07 0 .099.059.697 2.112 1.365 3.723 1.12-2.427 1.533-3.723.03-.06.098-.06h.924q.098 0 .098.06 0 .049-.089.216-.088.157-1.493 2.986-1.395 2.82-1.68 3.763-.04.069-.108.069h-.973q-.068 0-.068-.059 0-.05.422-.727.432-.678.747-1.375-.816-2.172-1.995-4.795-.02-.03-.02-.069z"/></g></g></svg>