<svg xmlns="http://www.w3.org/2000/svg" viewBox="0 0 23.19 26.364" height="99.642" width="87.648"><path style="line-height:normal;font-variant-ligatures:normal;font-variant-position:normal;font-variant-caps:normal;font-variant-numeric:normal;font-variant-alternates:normal;font-feature-settings:normal;text-indent:0;text-align:start;text-decoration-line:none;text-decoration-style:solid;text-decoration-color:#000;text-transform:none;text-orientation:mixed;white-space:normal;shape-padding:0;isolation:auto;mix-blend-mode:normal;solid-color:#000;solid-opacity:1" d="M.12 15.491a.926.926 0 0 0 .648.887l2.371.784-2.498 1.497a.926.926 0 0 0-.46.851.926.926 0 0 0 1.412.738l2.496-1.496-.437 2.467a.926.926 0 0 0-.016.184.926.926 0 0 0 1.84.139l.716-4.05.985-.59.981.547-.944 1.694a.926.926 0 0 0-.125.44.926.926 0 0 0 1.742.462l.944-1.695.98.547.018 1.161-3.06 2.738a.926.926 0 0 0-.317.741.926.926 0 0 0 1.553.64l1.86-1.664.043 2.913a.926.926 0 1 0 1.851-.028l-.043-2.913 1.909 1.608a.926.926 0 1 0 1.192-1.416l-3.137-2.646-.017-1.16.962-.576.994 1.665a.927.927 0 1 0 1.591-.95l-.994-1.664.965-.577 1 .56.836 4.028a.926.926 0 1 0 1.813-.376l-.51-2.454 2.54 1.422a.926.926 0 1 0 .906-1.615l-2.543-1.424 2.347-.853a.926.926 0 1 0-.633-1.74l-3.847 1.398-1.005-.563-.016-1.123L18.946 14a.927.927 0 0 0-.027-1.853l-1.934.028-.016-1.123.986-.592 3.888 1.284a.926.926 0 1 0 .58-1.759l-2.37-.783 2.5-1.498a.926.926 0 1 0-.954-1.588l-2.496 1.497.437-2.468a.926.926 0 1 0-1.824-.323L17 8.873l-.984.59-.98-.548.944-1.694a.927.927 0 1 0-1.619-.902l-.943 1.693-.98-.546-.017-1.16 3.058-2.738a.926.926 0 1 0-1.234-1.38l-1.86 1.664-.043-2.914a.926.926 0 1 0-1.851.027l.043 2.915-1.909-1.61a.926.926 0 0 0-1.533.715.926.926 0 0 0 .339.702l3.139 2.646.017 1.16-.964.576-.994-1.666a.926.926 0 0 0-1.728.448.926.926 0 0 0 .139.502l.994 1.666-.965.576-1.002-.561-.835-4.027a.926.926 0 0 0-1.835.22.926.926 0 0 0 .021.156l.51 2.453-2.54-1.421A.926.926 0 0 0 0 7.22a.926.926 0 0 0 .484.809l2.54 1.423-2.346.854a.926.926 0 0 0-.619.935.926.926 0 0 0 1.253.806l3.847-1.399 1.006.564.017 1.122-1.936.029a.926.926 0 0 0-.923.955.926.926 0 0 0 .95.898l1.936-.029.017 1.123-.99.593L1.35 14.62a.926.926 0 0 0-1.23.872zm7.957-.207l-.016-1.123 1.946-.029-.948 1.7zm-.044-2.976l-.016-1.123.965-.577.998 1.67zm2.643 4.425l.947-1.7.997 1.672-.962.575zM10.57 9.66l.966-.576.979.546-.948 1.7zm2.642 4.425l1.946-.029.017 1.123-.965.576zm-.028-1.854l.948-1.699.982.548.017 1.123z" color="#000" font-weight="400" font-family="sans-serif" overflow="visible" fill-rule="evenodd"/></svg>