<?xml version="1.0" encoding="UTF-8" standalone="no"?>
<!-- Created with Inkscape (http://www.inkscape.org/) -->

<svg
   xmlns:dc="http://purl.org/dc/elements/1.1/"
   xmlns:cc="http://creativecommons.org/ns#"
   xmlns:rdf="http://www.w3.org/1999/02/22-rdf-syntax-ns#"
   xmlns:svg="http://www.w3.org/2000/svg"
   xmlns="http://www.w3.org/2000/svg"
   xmlns:sodipodi="http://sodipodi.sourceforge.net/DTD/sodipodi-0.dtd"
   xmlns:inkscape="http://www.inkscape.org/namespaces/inkscape"
   width="23.190331mm"
   height="26.363667mm"
   viewBox="0 0 23.190331 26.363667"
   version="1.1"
   id="svg1052"
   inkscape:version="0.92.3 (2405546, 2018-03-11)"
   sodipodi:docname="logo.svg">
  <defs
     id="defs1046" />
  <sodipodi:namedview
     id="base"
     pagecolor="#ffffff"
     bordercolor="#666666"
     borderopacity="1.0"
     inkscape:pageopacity="0.0"
     inkscape:pageshadow="2"
     inkscape:zoom="1.4"
     inkscape:cx="105.44962"
     inkscape:cy="38.018961"
     inkscape:document-units="mm"
     inkscape:current-layer="layer1"
     showgrid="false"
     fit-margin-top="0"
     fit-margin-left="0"
     fit-margin-right="0"
     fit-margin-bottom="0"
     inkscape:window-width="1920"
     inkscape:window-height="965"
     inkscape:window-x="-8"
     inkscape:window-y="-8"
     inkscape:window-maximized="1" />
  <metadata
     id="metadata1049">
    <rdf:RDF>
      <cc:Work
         rdf:about="">
        <dc:format>image/svg+xml</dc:format>
        <dc:type
           rdf:resource="http://purl.org/dc/dcmitype/StillImage" />
        <dc:title></dc:title>
      </cc:Work>
    </rdf:RDF>
  </metadata>
  <g
     inkscape:label="レイヤー 1"
     inkscape:groupmode="layer"
     id="layer1"
     transform="translate(-75.339253,-93.318211)">
    <path
       inkscape:export-ydpi="674.68909"
       inkscape:export-xdpi="674.68909"
       id="path4837"
       d="m 75.45941,108.80952 a 0.92613427,0.92613427 0 0 0 0.64776,0.88711 l 2.37137,0.7831 -2.49789,1.49795 a 0.92613427,0.92613427 0 0 0 -0.45981,0.85076 0.92613427,0.92613427 0 0 0 1.41148,0.73733 l 2.49637,-1.49587 -0.43696,2.46756 a 0.92613427,0.92613427 0 0 0 -0.0169,0.18372 0.92613427,0.92613427 0 0 0 1.84038,0.13872 l 0.71643,-4.05058 0.98462,-0.58976 0.98125,0.54729 -0.94452,1.69414 a 0.92613446,0.92613446 0 0 0 -0.12424,0.44113 0.92613446,0.92613446 0 0 0 1.74125,0.4606 l 0.94401,-1.69413 0.98075,0.54679 0.0172,1.16104 -3.05946,2.73783 a 0.92613427,0.92613427 0 0 0 -0.31723,0.74115 0.92613427,0.92613427 0 0 0 1.55267,0.63912 l 1.86027,-1.66374 0.043,2.9132 a 0.92613446,0.92613446 0 1 0 1.85137,-0.0273 l -0.043,-2.9132 1.9086,1.60806 a 0.92613427,0.92613427 0 1 0 1.19257,-1.41613 l -3.13742,-2.64578 -0.0172,-1.16104 0.96261,-0.57497 0.99311,1.66448 a 0.92663341,0.92663341 0 1 0 1.59174,-0.94914 l -0.99467,-1.66497 0.96518,-0.57656 0.99952,0.55942 0.8363,4.02867 a 0.92613427,0.92613427 0 1 0 1.81313,-0.37615 l -0.50966,-2.45409 2.53947,1.42199 a 0.92613427,0.92613427 0 1 0 0.9059,-1.61553 l -2.54208,-1.4235 2.34618,-0.85278 a 0.92630749,0.92630749 0 1 0 -0.63299,-1.74112 l -3.8467,1.399 -1.00475,-0.56296 -0.0166,-1.12332 1.93353,-0.0286 a 0.92682126,0.92682126 0 0 0 -0.0274,-1.85344 l -1.93353,0.0286 -0.0166,-1.12332 0.98666,-0.59186 3.88737,1.28424 a 0.9263072,0.9263072 0 1 0 0.58128,-1.75906 l -2.37034,-0.78311 2.49892,-1.49848 a 0.92613427,0.92613427 0 1 0 -0.95322,-1.58755 l -2.49636,1.49638 0.43695,-2.468074 a 0.92613427,0.92613427 0 1 0 -1.82346,-0.322435 l -0.71642,4.051089 -0.98358,0.58975 -0.98127,-0.54781 0.94505,-1.69414 a 0.92675244,0.92675244 0 1 0 -1.61909,-0.902226 l -0.94351,1.693606 -0.97917,-0.54629 -0.0171,-1.160523 3.0579,-2.737807 a 0.92613427,0.92613427 0 1 0 -1.23389,-1.380291 l -1.86025,1.664767 -0.043,-2.914231 a 0.92613427,0.92613427 0 1 0 -1.85136,0.02735 l 0.043,2.914232 -1.90862,-1.609094 a 0.92613427,0.92613427 0 0 0 -1.53268,0.714146 0.92613427,0.92613427 0 0 0 0.33855,0.702011 l 3.13899,2.646267 0.0171,1.160523 -0.96416,0.57551 -0.99364,-1.665504 a 0.92613446,0.92613446 0 0 0 -1.72784,0.447764 0.92613446,0.92613446 0 0 0 0.13817,0.50186 l 0.99416,1.6655 -0.96467,0.57603 -1.00162,-0.56094 -0.83575,-4.027124 a 0.92613427,0.92613427 0 0 0 -1.83507,0.220398 0.92613427,0.92613427 0 0 0 0.0219,0.155755 l 0.50913,2.453581 -2.53895,-1.421481 a 0.92613427,0.92613427 0 0 0 -1.38867,0.806081 0.92613427,0.92613427 0 0 0 0.48432,0.80891 l 2.54053,1.42352 -2.34668,0.85331 a 0.92613427,0.92613427 0 0 0 -0.61878,0.93528 0.92613427,0.92613427 0 0 0 1.25228,0.80583 l 3.84723,-1.3985 1.0063,0.56346 0.0166,1.12229 -1.93559,0.0286 a 0.92613446,0.92613446 0 0 0 -0.9234,0.95529 0.92613446,0.92613446 0 0 0 0.95078,0.89814 l 1.93558,-0.0286 0.0166,1.12229 -0.98973,0.59346 -3.88635,-1.28477 a 0.92613427,0.92613427 0 0 0 -1.22955,0.87195 z m 7.95701,-0.20747 -0.0166,-1.12281 1.94644,-0.0288 -0.94755,1.69935 z m -0.044,-2.97624 -0.0166,-1.12281 0.96569,-0.57656 0.99734,1.67061 z m 2.64276,4.42526 0.94703,-1.69935 0.99735,1.67166 -0.96261,0.57497 z m -0.10449,-7.07322 0.96518,-0.57604 0.97918,0.54629 -0.94754,1.70038 z m 2.6412,4.42528 1.94644,-0.0288 0.0166,1.12281 -0.96517,0.57656 z m -0.0274,-1.85343 0.94808,-1.69936 0.98178,0.5478 0.0166,1.12281 z"
       style="color:#000000;font-style:normal;font-variant:normal;font-weight:normal;font-stretch:normal;font-size:medium;line-height:normal;font-family:sans-serif;font-variant-ligatures:normal;font-variant-position:normal;font-variant-caps:normal;font-variant-numeric:normal;font-variant-alternates:normal;font-feature-settings:normal;text-indent:0;text-align:start;text-decoration:none;text-decoration-line:none;text-decoration-style:solid;text-decoration-color:#000000;letter-spacing:normal;word-spacing:normal;text-transform:none;writing-mode:lr-tb;direction:ltr;text-orientation:mixed;dominant-baseline:auto;baseline-shift:baseline;text-anchor:start;white-space:normal;shape-padding:0;clip-rule:nonzero;display:inline;overflow:visible;visibility:visible;opacity:1;isolation:auto;mix-blend-mode:normal;color-interpolation:sRGB;color-interpolation-filters:linearRGB;solid-color:#000000;solid-opacity:1;vector-effect:none;fill:#000000;fill-opacity:1;fill-rule:evenodd;stroke:none;stroke-width:1.85208368;stroke-linecap:round;stroke-linejoin:miter;stroke-miterlimit:4;stroke-dasharray:none;stroke-dashoffset:0;stroke-opacity:1;color-rendering:auto;image-rendering:auto;shape-rendering:auto;text-rendering:auto;enable-background:accumulate"
       inkscape:connector-curvature="0"
       inkscape:export-filename="C:\Users\tamai\OneDrive\デスクトップ\i-b.png" />
  </g>
</svg>
